{"glyphs":{"0":{"ha":764,"x_min":68,"x_max":696,"o":"m 696 453 q 675 215 696 307 q 614 72 654 124 q 514 0 574 19 q 376 -19 454 -19 q 241 -1 299 -19 q 145 67 183 17 q 88 207 107 117 q 68 443 68 297 q 88 679 68 588 q 149 823 108 771 q 249 894 190 875 q 388 914 308 914 q 522 896 464 914 q 619 828 581 878 q 676 688 657 778 q 696 453 696 597 m 257 90 q 309 68 281 75 q 382 61 338 61 q 476 74 435 61 q 543 128 517 88 q 583 245 569 169 q 596 447 596 321 q 594 544 596 500 q 587 622 592 588 q 575 684 582 656 q 558 736 568 713 l 257 90 m 506 806 q 455 826 483 819 q 382 833 426 833 q 288 820 328 833 q 221 767 247 807 q 181 650 194 726 q 168 449 168 574 q 170 353 168 396 q 177 274 172 310 q 189 210 182 239 q 206 160 196 182 l 506 806 z "},"1":{"ha":764,"x_min":88,"x_max":682,"o":"m 88 90 l 363 90 l 363 774 l 125 644 l 89 715 l 383 894 l 469 894 l 469 90 l 682 90 l 682 0 l 88 0 l 88 90 z "},"2":{"ha":764,"x_min":81,"x_max":660,"o":"m 81 71 l 378 394 q 444 469 415 435 q 492 536 472 503 q 521 603 511 569 q 531 674 531 636 q 486 790 531 753 q 343 826 442 826 q 235 819 286 826 q 131 796 183 811 l 117 879 q 237 904 176 894 q 364 914 297 914 q 488 900 435 914 q 576 858 542 886 q 626 787 610 829 q 643 688 643 744 q 631 594 643 638 q 594 510 618 551 q 538 430 571 469 q 463 347 504 390 l 224 93 l 660 93 l 660 0 l 81 0 l 81 71 z "},"3":{"ha":764,"x_min":82,"x_max":651,"o":"m 93 92 q 199 75 147 81 q 308 69 251 69 q 411 83 367 69 q 485 122 456 97 q 530 182 515 147 q 544 260 544 217 q 531 335 544 303 q 481 388 517 367 q 383 421 446 410 q 224 432 321 432 l 224 517 q 366 534 308 517 q 459 578 424 551 q 510 636 494 604 q 525 699 525 668 q 480 794 525 765 q 342 824 435 824 q 239 817 288 824 q 139 796 190 811 l 125 881 q 242 903 183 894 q 365 911 301 911 q 565 865 497 911 q 632 721 632 818 q 579 574 632 632 q 444 485 526 515 q 524 463 486 478 q 590 422 561 447 q 635 358 618 396 q 651 267 651 319 q 631 152 651 204 q 567 63 610 100 q 460 3 524 25 q 311 -18 396 -18 q 190 -12 244 -18 q 82 6 135 -6 l 93 92 z "},"4":{"ha":764,"x_min":61,"x_max":700,"o":"m 483 211 l 61 211 l 61 294 l 442 894 l 585 894 l 585 304 l 700 304 l 700 211 l 585 211 l 585 0 l 483 0 l 483 211 m 483 304 l 483 796 l 167 304 l 483 304 z "},"5":{"ha":764,"x_min":110,"x_max":663,"o":"m 619 894 l 619 803 l 250 803 l 250 518 q 316 525 282 522 q 392 528 350 528 q 591 470 519 528 q 663 283 663 413 q 643 158 663 214 q 581 64 624 103 q 473 3 539 25 q 317 -18 407 -18 q 208 -11 257 -18 q 110 6 160 -4 l 121 92 q 219 75 171 81 q 321 69 267 69 q 433 84 388 69 q 506 125 478 99 q 545 189 533 151 q 557 274 557 226 q 508 402 557 364 q 358 440 458 440 q 313 440 333 440 q 269 437 292 439 q 221 432 247 435 q 158 424 194 429 l 158 894 l 619 894 z "},"6":{"ha":764,"x_min":108,"x_max":679,"o":"m 624 808 q 549 819 586 815 q 468 824 511 824 q 335 797 383 824 q 263 723 288 771 q 229 609 238 675 q 217 464 221 543 q 318 513 265 494 q 426 531 371 531 q 614 465 549 531 q 679 274 679 400 q 660 153 679 207 q 604 61 642 99 q 513 2 567 24 q 389 -19 458 -19 q 178 68 249 -19 q 108 349 108 156 q 122 590 108 485 q 176 766 136 694 q 286 874 215 838 q 471 911 357 911 q 558 906 517 911 q 638 892 599 901 l 624 808 m 572 268 q 531 399 572 354 q 404 444 490 444 q 313 428 357 444 q 215 375 269 411 l 215 335 q 226 216 215 267 q 258 132 236 165 q 314 83 281 99 q 396 67 347 67 q 528 122 485 67 q 572 268 572 176 z "},"7":{"ha":764,"x_min":89,"x_max":681,"o":"m 228 0 q 313 210 271 108 q 396 409 354 311 q 480 604 438 507 q 568 803 522 701 l 89 803 l 89 894 l 681 894 l 681 822 q 590 615 633 717 q 505 413 546 514 q 423 210 464 311 q 342 0 382 108 l 228 0 z "},"8":{"ha":764,"x_min":99,"x_max":682,"o":"m 682 236 q 662 133 682 181 q 604 52 642 86 q 512 -1 567 18 q 385 -19 457 -19 q 260 -2 314 -19 q 171 47 207 15 q 117 122 135 78 q 99 218 99 165 q 115 306 99 267 q 158 374 131 344 q 223 427 186 404 q 301 468 260 450 q 230 511 261 489 q 176 561 199 533 q 141 623 153 589 q 129 700 129 657 q 147 783 129 744 q 198 851 164 822 q 281 897 232 881 q 396 914 331 914 q 510 899 461 914 q 591 857 558 883 q 640 794 624 831 q 656 713 656 757 q 643 633 656 668 q 608 569 631 597 q 554 517 586 540 q 482 474 522 494 q 560 431 524 454 q 624 381 597 408 q 666 317 650 353 q 682 236 682 282 m 401 519 q 515 594 478 553 q 551 697 551 635 q 541 747 551 724 q 511 789 531 771 q 461 817 492 807 q 390 828 431 828 q 274 790 311 828 q 236 700 236 751 q 247 642 236 667 q 280 596 258 617 q 332 556 301 575 q 401 519 363 538 m 379 424 q 252 345 299 392 q 206 229 206 299 q 255 111 206 156 q 390 67 304 67 q 528 112 481 67 q 575 229 575 157 q 560 292 575 264 q 520 342 546 319 q 458 385 494 365 q 379 424 422 404 z "},"9":{"ha":764,"x_min":85,"x_max":656,"o":"m 113 92 q 205 74 164 79 q 296 69 246 69 q 428 96 381 69 q 501 170 476 122 q 535 285 526 218 q 547 431 543 351 q 446 383 499 400 q 338 365 393 365 q 150 430 215 365 q 85 621 85 494 q 103 742 85 688 q 160 834 122 796 q 251 893 197 872 q 375 914 306 914 q 585 826 515 914 q 656 546 656 738 q 642 304 656 410 q 588 127 628 199 q 478 19 549 56 q 293 -18 407 -18 q 195 -12 240 -18 q 99 7 150 -6 l 113 92 m 192 628 q 233 495 192 540 q 360 450 274 450 q 451 467 407 450 q 549 519 494 483 l 549 560 q 538 678 549 628 q 506 763 528 729 q 450 812 483 796 q 368 828 417 828 q 235 773 279 828 q 192 628 192 718 z "},"\u0000":{"ha":764,"x_min":0,"x_max":0,"o":""},"\r":{"ha":764,"x_min":0,"x_max":0,"o":""}," ":{"ha":764,"x_min":0,"x_max":0,"o":""}," ":{"ha":764,"x_min":0,"x_max":0,"o":""},"a":{"ha":764,"x_min":85,"x_max":642,"o":"m 533 481 q 495 576 533 544 q 376 608 457 608 q 272 602 325 608 q 167 583 219 596 l 157 665 q 272 687 213 679 q 394 694 332 694 q 507 681 460 694 q 584 642 554 668 q 628 576 614 615 q 642 486 642 538 l 642 0 l 551 0 l 544 65 q 424 10 486 33 q 293 -14 363 -14 q 143 33 201 -14 q 85 181 85 81 q 102 276 85 235 q 162 346 119 317 q 274 390 204 375 q 446 404 343 404 l 533 404 l 533 481 m 450 328 q 320 319 371 328 q 239 294 269 311 q 197 250 208 276 q 185 189 185 224 q 219 97 185 125 q 314 69 254 69 q 421 88 371 69 q 533 143 471 107 l 533 328 l 450 328 z "},"ą":{"ha":764,"x_min":85,"x_max":667,"o":"m 533 481 q 495 576 533 544 q 376 608 457 608 q 272 602 325 608 q 167 583 219 596 l 157 665 q 272 687 213 679 q 394 694 332 694 q 507 681 460 694 q 584 642 554 668 q 628 576 614 615 q 642 486 642 538 l 642 0 q 588 -40 614 -19 q 543 -81 563 -60 q 512 -126 524 -103 q 500 -171 500 -149 q 515 -219 500 -203 q 567 -235 531 -235 q 610 -231 586 -235 q 656 -221 633 -228 l 667 -290 q 608 -303 638 -299 q 546 -308 579 -308 q 442 -280 478 -308 q 406 -189 406 -251 q 417 -132 406 -158 q 450 -81 429 -106 q 497 -36 471 -57 q 551 4 522 -15 l 544 65 q 424 10 486 33 q 293 -14 363 -14 q 143 33 201 -14 q 85 181 85 81 q 102 276 85 235 q 162 346 119 317 q 274 390 204 375 q 446 404 343 404 l 533 404 l 533 481 m 450 328 q 320 319 371 328 q 239 294 269 311 q 197 250 208 276 q 185 189 185 224 q 219 97 185 125 q 314 69 254 69 q 421 88 371 69 q 533 143 471 107 l 533 328 l 450 328 z "},"æ":{"ha":764,"x_min":22,"x_max":742,"o":"m 282 322 q 208 315 239 322 q 157 290 176 307 q 129 248 138 274 q 121 186 121 222 q 144 98 121 125 q 201 71 167 71 q 263 88 236 71 q 324 143 290 104 l 324 322 l 282 322 m 324 476 q 301 576 324 543 q 219 608 278 608 q 152 603 186 608 q 81 585 118 597 l 67 667 q 151 686 108 679 q 233 693 194 693 q 294 687 269 693 q 337 668 319 681 q 366 639 354 656 q 385 600 378 622 q 408 638 394 621 q 442 669 422 656 q 487 691 461 683 q 547 699 513 699 q 633 684 596 699 q 693 633 669 669 q 729 537 717 597 q 742 382 742 476 q 741 350 742 364 q 740 322 740 336 l 425 322 q 432 197 425 246 q 455 121 439 149 q 497 83 471 93 q 563 72 524 72 q 635 79 601 72 q 706 97 669 86 l 719 15 q 633 -6 679 1 q 544 -14 588 -14 q 476 -7 504 -14 q 427 13 447 0 q 392 42 407 25 q 367 82 378 60 q 277 8 319 29 q 182 -14 235 -14 q 67 35 111 -14 q 22 181 22 83 q 38 276 22 235 q 85 344 53 317 q 165 384 117 371 q 279 397 214 397 l 324 397 l 324 476 m 643 397 q 635 506 642 464 q 617 572 629 549 q 585 605 604 596 q 539 614 565 614 q 492 604 513 614 q 456 571 471 594 q 434 505 442 547 q 425 397 426 463 l 643 397 z "},"à":{"ha":764,"x_min":85,"x_max":642,"o":"m 533 481 q 495 576 533 544 q 376 608 457 608 q 272 602 325 608 q 167 583 219 596 l 157 665 q 272 687 213 679 q 394 694 332 694 q 507 681 460 694 q 584 642 554 668 q 628 576 614 615 q 642 486 642 538 l 642 0 l 551 0 l 544 65 q 424 10 486 33 q 293 -14 363 -14 q 143 33 201 -14 q 85 181 85 81 q 102 276 85 235 q 162 346 119 317 q 274 390 204 375 q 446 404 343 404 l 533 404 l 533 481 m 450 328 q 320 319 371 328 q 239 294 269 311 q 197 250 208 276 q 185 189 185 224 q 219 97 185 125 q 314 69 254 69 q 421 88 371 69 q 533 143 471 107 l 533 328 l 450 328 m 303 1040 l 469 844 l 418 792 l 232 969 l 303 1040 z "},"á":{"ha":764,"x_min":85,"x_max":642,"o":"m 533 481 q 495 576 533 544 q 376 608 457 608 q 272 602 325 608 q 167 583 219 596 l 157 665 q 272 687 213 679 q 394 694 332 694 q 507 681 460 694 q 584 642 554 668 q 628 576 614 615 q 642 486 642 538 l 642 0 l 551 0 l 544 65 q 424 10 486 33 q 293 -14 363 -14 q 143 33 201 -14 q 85 181 85 81 q 102 276 85 235 q 162 346 119 317 q 274 390 204 375 q 446 404 343 404 l 533 404 l 533 481 m 450 328 q 320 319 371 328 q 239 294 269 311 q 197 250 208 276 q 185 189 185 224 q 219 97 185 125 q 314 69 254 69 q 421 88 371 69 q 533 143 471 107 l 533 328 l 450 328 m 493 1040 l 564 969 l 378 792 l 326 844 l 493 1040 z "},"â":{"ha":764,"x_min":85,"x_max":642,"o":"m 533 481 q 495 576 533 544 q 376 608 457 608 q 272 602 325 608 q 167 583 219 596 l 157 665 q 272 687 213 679 q 394 694 332 694 q 507 681 460 694 q 584 642 554 668 q 628 576 614 615 q 642 486 642 538 l 642 0 l 551 0 l 544 65 q 424 10 486 33 q 293 -14 363 -14 q 143 33 201 -14 q 85 181 85 81 q 102 276 85 235 q 162 346 119 317 q 274 390 204 375 q 446 404 343 404 l 533 404 l 533 481 m 450 328 q 320 319 371 328 q 239 294 269 311 q 197 250 208 276 q 185 189 185 224 q 219 97 185 125 q 314 69 254 69 q 421 88 371 69 q 533 143 471 107 l 533 328 l 450 328 m 401 1031 l 586 854 l 536 793 l 400 919 l 265 796 l 218 853 l 401 1031 z "},"ä":{"ha":764,"x_min":85,"x_max":642,"o":"m 533 481 q 495 576 533 544 q 376 608 457 608 q 272 602 325 608 q 167 583 219 596 l 157 665 q 272 687 213 679 q 394 694 332 694 q 507 681 460 694 q 584 642 554 668 q 628 576 614 615 q 642 486 642 538 l 642 0 l 551 0 l 544 65 q 424 10 486 33 q 293 -14 363 -14 q 143 33 201 -14 q 85 181 85 81 q 102 276 85 235 q 162 346 119 317 q 274 390 204 375 q 446 404 343 404 l 533 404 l 533 481 m 450 328 q 320 319 371 328 q 239 294 269 311 q 197 250 208 276 q 185 189 185 224 q 219 97 185 125 q 314 69 254 69 q 421 88 371 69 q 533 143 471 107 l 533 328 l 450 328 m 333 908 q 330 876 333 890 q 319 855 326 863 q 298 844 311 847 q 264 840 285 840 q 210 855 224 840 q 196 908 196 869 q 210 963 196 947 q 264 978 224 978 q 298 974 285 978 q 319 963 311 971 q 330 941 326 954 q 333 908 333 928 m 603 908 q 589 855 603 869 q 535 840 575 840 q 501 844 514 840 q 480 855 488 847 q 469 876 472 863 q 465 908 465 890 q 469 941 465 928 q 480 963 472 954 q 501 974 488 971 q 535 978 514 978 q 589 963 575 978 q 603 908 603 947 z "},"ã":{"ha":764,"x_min":85,"x_max":642,"o":"m 533 481 q 495 576 533 544 q 376 608 457 608 q 272 602 325 608 q 167 583 219 596 l 157 665 q 272 687 213 679 q 394 694 332 694 q 507 681 460 694 q 584 642 554 668 q 628 576 614 615 q 642 486 642 538 l 642 0 l 551 0 l 544 65 q 424 10 486 33 q 293 -14 363 -14 q 143 33 201 -14 q 85 181 85 81 q 102 276 85 235 q 162 346 119 317 q 274 390 204 375 q 446 404 343 404 l 533 404 l 533 481 m 450 328 q 320 319 371 328 q 239 294 269 311 q 197 250 208 276 q 185 189 185 224 q 219 97 185 125 q 314 69 254 69 q 421 88 371 69 q 533 143 471 107 l 533 328 l 450 328 m 189 869 q 210 910 197 890 q 240 946 224 931 q 278 970 257 961 q 324 979 299 979 q 369 968 349 979 q 409 943 390 957 q 444 918 428 929 q 479 907 461 907 q 520 926 504 907 q 549 976 536 946 l 606 938 q 583 896 596 915 q 554 860 571 876 q 517 835 538 844 q 471 826 496 826 q 424 838 444 826 q 385 862 404 849 q 350 887 367 875 q 315 899 333 899 q 274 879 290 899 q 246 831 258 860 l 189 869 z "},"ă":{"ha":764,"x_min":85,"x_max":642,"o":"m 533 481 q 495 576 533 544 q 376 608 457 608 q 272 602 325 608 q 167 583 219 596 l 157 665 q 272 687 213 679 q 394 694 332 694 q 507 681 460 694 q 584 642 554 668 q 628 576 614 615 q 642 486 642 538 l 642 0 l 551 0 l 544 65 q 424 10 486 33 q 293 -14 363 -14 q 143 33 201 -14 q 85 181 85 81 q 102 276 85 235 q 162 346 119 317 q 274 390 204 375 q 446 404 343 404 l 533 404 l 533 481 m 450 328 q 320 319 371 328 q 239 294 269 311 q 197 250 208 276 q 185 189 185 224 q 219 97 185 125 q 314 69 254 69 q 421 88 371 69 q 533 143 471 107 l 533 328 l 450 328 m 310 992 q 335 917 311 946 q 403 888 360 888 q 469 917 446 888 q 493 992 493 946 l 571 992 q 526 860 571 911 q 399 810 481 810 q 276 860 319 810 q 232 992 232 911 l 310 992 z "},"ā":{"ha":764,"x_min":85,"x_max":642,"o":"m 533 481 q 495 576 533 544 q 376 608 457 608 q 272 602 325 608 q 167 583 219 596 l 157 665 q 272 687 213 679 q 394 694 332 694 q 507 681 460 694 q 584 642 554 668 q 628 576 614 615 q 642 486 642 538 l 642 0 l 551 0 l 544 65 q 424 10 486 33 q 293 -14 363 -14 q 143 33 201 -14 q 85 181 85 81 q 102 276 85 235 q 162 346 119 317 q 274 390 204 375 q 446 404 343 404 l 533 404 l 533 481 m 450 328 q 320 319 371 328 q 239 294 269 311 q 197 250 208 276 q 185 189 185 224 q 219 97 185 125 q 314 69 254 69 q 421 88 371 69 q 533 143 471 107 l 533 328 l 450 328 m 221 944 l 581 944 l 581 863 l 221 863 l 221 944 z "},"ǎ":{"ha":764,"x_min":85,"x_max":642,"o":"m 533 481 q 495 576 533 544 q 376 608 457 608 q 272 602 325 608 q 167 583 219 596 l 157 665 q 272 687 213 679 q 394 694 332 694 q 507 681 460 694 q 584 642 554 668 q 628 576 614 615 q 642 486 642 538 l 642 0 l 551 0 l 544 65 q 424 10 486 33 q 293 -14 363 -14 q 143 33 201 -14 q 85 181 85 81 q 102 276 85 235 q 162 346 119 317 q 274 390 204 375 q 446 404 343 404 l 533 404 l 533 481 m 450 328 q 320 319 371 328 q 239 294 269 311 q 197 250 208 276 q 185 189 185 224 q 219 97 185 125 q 314 69 254 69 q 421 88 371 69 q 533 143 471 107 l 533 328 l 450 328 m 261 1024 l 397 897 l 532 1022 l 579 965 l 394 786 l 211 964 l 261 1024 z "},"ȧ":{"ha":764,"x_min":85,"x_max":642,"o":"m 533 481 q 495 576 533 544 q 376 608 457 608 q 272 602 325 608 q 167 583 219 596 l 157 665 q 272 687 213 679 q 394 694 332 694 q 507 681 460 694 q 584 642 554 668 q 628 576 614 615 q 642 486 642 538 l 642 0 l 551 0 l 544 65 q 424 10 486 33 q 293 -14 363 -14 q 143 33 201 -14 q 85 181 85 81 q 102 276 85 235 q 162 346 119 317 q 274 390 204 375 q 446 404 343 404 l 533 404 l 533 481 m 450 328 q 320 319 371 328 q 239 294 269 311 q 197 250 208 276 q 185 189 185 224 q 219 97 185 125 q 314 69 254 69 q 421 88 371 69 q 533 143 471 107 l 533 328 l 450 328 m 468 908 q 453 855 468 869 q 397 840 439 840 q 341 855 356 840 q 326 908 326 869 q 341 963 326 947 q 397 978 356 978 q 453 963 439 978 q 468 908 468 947 z "},"å":{"ha":764,"x_min":85,"x_max":642,"o":"m 533 481 q 495 576 533 544 q 376 608 457 608 q 272 602 325 608 q 167 583 219 596 l 157 665 q 272 687 213 679 q 394 694 332 694 q 507 681 460 694 q 584 642 554 668 q 628 576 614 615 q 642 486 642 538 l 642 0 l 551 0 l 544 65 q 424 10 486 33 q 293 -14 363 -14 q 143 33 201 -14 q 85 181 85 81 q 102 276 85 235 q 162 346 119 317 q 274 390 204 375 q 446 404 343 404 l 533 404 l 533 481 m 450 328 q 320 319 371 328 q 239 294 269 311 q 197 250 208 276 q 185 189 185 224 q 219 97 185 125 q 314 69 254 69 q 421 88 371 69 q 533 143 471 107 l 533 328 l 450 328 m 542 915 q 531 857 542 883 q 502 812 521 831 q 458 783 483 793 q 401 772 432 772 q 300 812 339 772 q 261 915 261 851 q 301 1018 261 978 q 401 1058 340 1058 q 458 1048 432 1058 q 503 1018 485 1038 q 531 972 521 999 q 542 915 542 946 m 471 915 q 453 974 471 951 q 401 996 435 996 q 350 974 368 996 q 332 915 332 951 q 350 856 332 878 q 401 833 368 833 q 453 856 435 833 q 471 915 471 878 z "},"ǽ":{"ha":764,"x_min":22,"x_max":742,"o":"m 282 322 q 208 315 239 322 q 157 290 176 307 q 129 248 138 274 q 121 186 121 222 q 144 98 121 125 q 201 71 167 71 q 263 88 236 71 q 324 143 290 104 l 324 322 l 282 322 m 324 476 q 301 576 324 543 q 219 608 278 608 q 152 603 186 608 q 81 585 118 597 l 67 667 q 151 686 108 679 q 233 693 194 693 q 294 687 269 693 q 337 668 319 681 q 366 639 354 656 q 385 600 378 622 q 408 638 394 621 q 442 669 422 656 q 487 691 461 683 q 547 699 513 699 q 633 684 596 699 q 693 633 669 669 q 729 537 717 597 q 742 382 742 476 q 741 350 742 364 q 740 322 740 336 l 425 322 q 432 197 425 246 q 455 121 439 149 q 497 83 471 93 q 563 72 524 72 q 635 79 601 72 q 706 97 669 86 l 719 15 q 633 -6 679 1 q 544 -14 588 -14 q 476 -7 504 -14 q 427 13 447 0 q 392 42 407 25 q 367 82 378 60 q 277 8 319 29 q 182 -14 235 -14 q 67 35 111 -14 q 22 181 22 83 q 38 276 22 235 q 85 344 53 317 q 165 384 117 371 q 279 397 214 397 l 324 397 l 324 476 m 643 397 q 635 506 642 464 q 617 572 629 549 q 585 605 604 596 q 539 614 565 614 q 492 604 513 614 q 456 571 471 594 q 434 505 442 547 q 425 397 426 463 l 643 397 m 506 1040 l 576 969 l 390 792 l 339 844 l 506 1040 z "},"ǣ":{"ha":764,"x_min":22,"x_max":742,"o":"m 282 322 q 208 315 239 322 q 157 290 176 307 q 129 248 138 274 q 121 186 121 222 q 144 98 121 125 q 201 71 167 71 q 263 88 236 71 q 324 143 290 104 l 324 322 l 282 322 m 324 476 q 301 576 324 543 q 219 608 278 608 q 152 603 186 608 q 81 585 118 597 l 67 667 q 151 686 108 679 q 233 693 194 693 q 294 687 269 693 q 337 668 319 681 q 366 639 354 656 q 385 600 378 622 q 408 638 394 621 q 442 669 422 656 q 487 691 461 683 q 547 699 513 699 q 633 684 596 699 q 693 633 669 669 q 729 537 717 597 q 742 382 742 476 q 741 350 742 364 q 740 322 740 336 l 425 322 q 432 197 425 246 q 455 121 439 149 q 497 83 471 93 q 563 72 524 72 q 635 79 601 72 q 706 97 669 86 l 719 15 q 633 -6 679 1 q 544 -14 588 -14 q 476 -7 504 -14 q 427 13 447 0 q 392 42 407 25 q 367 82 378 60 q 277 8 319 29 q 182 -14 235 -14 q 67 35 111 -14 q 22 181 22 83 q 38 276 22 235 q 85 344 53 317 q 165 384 117 371 q 279 397 214 397 l 324 397 l 324 476 m 643 397 q 635 506 642 464 q 617 572 629 549 q 585 605 604 596 q 539 614 565 614 q 492 604 513 614 q 456 571 471 594 q 434 505 442 547 q 425 397 426 463 l 643 397 m 201 944 l 561 944 l 561 863 l 201 863 l 201 944 z "},"b":{"ha":764,"x_min":111,"x_max":689,"o":"m 111 1025 l 219 1025 l 219 781 q 218 701 219 742 q 214 615 217 661 l 215 614 q 325 671 268 647 q 443 694 382 694 q 546 678 500 694 q 623 622 592 661 q 672 515 654 582 q 689 347 689 449 q 665 176 689 246 q 599 65 640 107 q 505 5 558 24 q 393 -14 451 -14 q 294 1 339 -14 q 206 39 249 15 l 200 0 l 111 0 l 111 1025 m 219 122 q 299 85 263 99 q 382 72 336 72 q 456 85 419 72 q 519 128 492 97 q 564 210 547 158 q 581 343 581 263 q 569 475 581 424 q 536 556 557 526 q 485 595 515 585 q 417 606 454 606 q 324 585 369 606 q 219 526 278 565 l 219 122 z "},"c":{"ha":764,"x_min":110,"x_max":656,"o":"m 650 14 q 551 -6 604 3 q 444 -14 497 -14 q 297 2 360 -14 q 192 58 233 18 q 131 167 151 99 q 110 338 110 235 q 135 512 110 443 q 205 622 160 581 q 314 678 250 663 q 456 694 378 694 q 559 688 510 694 q 656 668 608 681 l 644 586 q 555 603 599 597 q 458 608 511 608 q 360 599 404 608 q 284 560 315 589 q 236 478 253 531 q 219 340 219 425 q 234 206 219 258 q 278 124 249 154 q 352 83 307 93 q 458 72 397 72 q 550 78 503 72 q 642 96 597 85 l 650 14 z "},"ç":{"ha":764,"x_min":110,"x_max":656,"o":"m 650 14 q 553 -5 604 3 q 451 -12 501 -12 l 436 -12 l 429 -75 q 526 -103 493 -78 q 560 -181 560 -128 q 517 -273 560 -239 q 394 -307 474 -307 q 301 -297 343 -307 l 310 -237 q 349 -244 331 -242 q 389 -246 368 -246 q 453 -230 433 -246 q 474 -185 474 -214 q 454 -143 474 -157 q 386 -129 435 -129 l 350 -129 l 364 -8 q 263 14 310 -3 q 183 69 217 31 q 129 172 149 107 q 110 338 110 236 q 135 512 110 443 q 205 622 160 581 q 314 678 250 663 q 456 694 378 694 q 559 688 510 694 q 656 668 608 681 l 644 586 q 555 603 599 597 q 458 608 511 608 q 360 599 404 608 q 284 560 315 589 q 236 478 253 531 q 219 340 219 425 q 234 206 219 258 q 278 124 249 154 q 352 83 307 93 q 458 72 397 72 q 550 78 503 72 q 642 96 597 85 l 650 14 z "},"ć":{"ha":764,"x_min":110,"x_max":656,"o":"m 650 14 q 551 -6 604 3 q 444 -14 497 -14 q 297 2 360 -14 q 192 58 233 18 q 131 167 151 99 q 110 338 110 235 q 135 512 110 443 q 205 622 160 581 q 314 678 250 663 q 456 694 378 694 q 559 688 510 694 q 656 668 608 681 l 644 586 q 555 603 599 597 q 458 608 511 608 q 360 599 404 608 q 284 560 315 589 q 236 478 253 531 q 219 340 219 425 q 234 206 219 258 q 278 124 249 154 q 352 83 307 93 q 458 72 397 72 q 550 78 503 72 q 642 96 597 85 l 650 14 m 518 1040 l 589 969 l 403 792 l 351 844 l 518 1040 z "},"ĉ":{"ha":764,"x_min":110,"x_max":656,"o":"m 650 14 q 551 -6 604 3 q 444 -14 497 -14 q 297 2 360 -14 q 192 58 233 18 q 131 167 151 99 q 110 338 110 235 q 135 512 110 443 q 205 622 160 581 q 314 678 250 663 q 456 694 378 694 q 559 688 510 694 q 656 668 608 681 l 644 586 q 555 603 599 597 q 458 608 511 608 q 360 599 404 608 q 284 560 315 589 q 236 478 253 531 q 219 340 219 425 q 234 206 219 258 q 278 124 249 154 q 352 83 307 93 q 458 72 397 72 q 550 78 503 72 q 642 96 597 85 l 650 14 m 426 1031 l 611 854 l 561 793 l 425 919 l 290 796 l 243 853 l 426 1031 z "},"č":{"ha":764,"x_min":110,"x_max":656,"o":"m 650 14 q 551 -6 604 3 q 444 -14 497 -14 q 297 2 360 -14 q 192 58 233 18 q 131 167 151 99 q 110 338 110 235 q 135 512 110 443 q 205 622 160 581 q 314 678 250 663 q 456 694 378 694 q 559 688 510 694 q 656 668 608 681 l 644 586 q 555 603 599 597 q 458 608 511 608 q 360 599 404 608 q 284 560 315 589 q 236 478 253 531 q 219 340 219 425 q 234 206 219 258 q 278 124 249 154 q 352 83 307 93 q 458 72 397 72 q 550 78 503 72 q 642 96 597 85 l 650 14 m 290 1024 l 426 897 l 561 1022 l 608 965 l 424 786 l 240 964 l 290 1024 z "},"ċ":{"ha":764,"x_min":110,"x_max":656,"o":"m 650 14 q 551 -6 604 3 q 444 -14 497 -14 q 297 2 360 -14 q 192 58 233 18 q 131 167 151 99 q 110 338 110 235 q 135 512 110 443 q 205 622 160 581 q 314 678 250 663 q 456 694 378 694 q 559 688 510 694 q 656 668 608 681 l 644 586 q 555 603 599 597 q 458 608 511 608 q 360 599 404 608 q 284 560 315 589 q 236 478 253 531 q 219 340 219 425 q 234 206 219 258 q 278 124 249 154 q 352 83 307 93 q 458 72 397 72 q 550 78 503 72 q 642 96 597 85 l 650 14 m 494 908 q 480 855 494 869 q 424 840 465 840 q 367 855 382 840 q 353 908 353 869 q 367 963 353 947 q 424 978 382 978 q 480 963 465 978 q 494 908 494 947 z "},"d":{"ha":764,"x_min":75,"x_max":653,"o":"m 556 72 q 441 10 499 35 q 321 -14 383 -14 q 218 3 264 -14 q 141 59 172 19 q 92 165 110 99 q 75 333 75 232 q 99 504 75 435 q 165 615 124 574 q 259 676 206 657 q 371 694 313 694 q 465 681 421 694 q 549 647 508 668 l 550 649 q 546 733 547 693 q 544 811 544 772 l 544 1025 l 653 1025 l 653 0 l 564 0 l 556 72 m 544 560 q 465 595 501 582 q 382 608 428 608 q 308 597 344 608 q 244 554 272 585 q 200 471 217 524 q 183 338 183 418 q 195 206 183 257 q 228 126 207 154 q 278 86 249 97 q 347 75 308 75 q 440 95 394 75 q 544 154 486 115 l 544 560 z "},"đ":{"ha":764,"x_min":75,"x_max":744,"o":"m 556 72 q 441 10 499 35 q 321 -14 383 -14 q 218 3 264 -14 q 141 59 172 19 q 92 165 110 99 q 75 333 75 232 q 99 504 75 435 q 165 615 124 574 q 259 676 206 657 q 371 694 313 694 q 465 681 421 694 q 549 647 508 668 l 550 649 q 546 728 547 692 q 544 801 544 765 l 544 818 l 372 818 l 372 900 l 544 900 l 544 1025 l 653 1025 l 653 900 l 744 900 l 744 818 l 653 818 l 653 0 l 564 0 l 556 72 m 544 560 q 465 595 501 582 q 382 608 428 608 q 308 597 344 608 q 244 554 272 585 q 200 471 217 524 q 183 338 183 418 q 195 206 183 257 q 228 126 207 154 q 278 86 249 97 q 347 75 308 75 q 440 95 394 75 q 544 154 486 115 l 544 560 z "},"ð":{"ha":764,"x_min":81,"x_max":681,"o":"m 368 915 q 331 959 354 933 q 290 1004 308 985 l 379 1051 q 424 1005 403 1028 q 460 961 444 982 l 592 1033 l 638 967 l 504 894 q 575 776 543 840 q 631 642 607 713 q 668 499 656 572 q 681 350 681 425 q 660 172 681 243 q 601 58 640 100 q 506 -1 561 17 q 381 -19 451 -19 q 253 -3 308 -19 q 158 53 197 13 q 100 163 119 94 q 81 336 81 232 q 100 502 81 435 q 156 610 119 569 q 243 669 192 651 q 358 688 294 688 q 453 676 411 688 q 524 647 494 664 l 525 649 q 476 752 504 701 q 414 849 447 803 l 279 778 l 233 843 l 368 915 m 575 339 q 573 399 575 372 q 567 451 571 426 q 557 501 563 476 q 544 554 551 525 q 469 588 510 574 q 375 603 428 603 q 299 592 332 603 q 240 551 265 581 q 203 469 215 521 q 190 338 190 418 q 203 201 190 254 q 240 119 215 149 q 300 78 264 89 q 383 67 336 67 q 466 78 431 67 q 526 119 501 89 q 563 202 550 149 q 575 339 575 256 z "},"ď":{"ha":764,"x_min":68,"x_max":803,"o":"m 519 67 q 414 8 467 29 q 299 -14 361 -14 q 203 3 246 -14 q 131 59 161 19 q 84 165 100 99 q 68 333 68 232 q 92 504 68 435 q 153 615 115 574 q 241 676 192 657 q 343 694 290 694 q 433 683 394 694 q 511 653 472 672 l 513 654 q 509 735 510 697 q 508 811 508 772 l 508 1025 l 610 1025 l 610 0 l 528 0 l 519 67 m 508 564 q 471 583 489 575 q 435 597 453 592 q 398 606 417 603 q 357 608 379 608 q 290 597 324 608 q 231 554 257 585 q 189 471 204 524 q 174 338 174 418 q 185 206 174 257 q 215 126 196 156 q 263 86 235 97 q 326 75 290 75 q 415 93 374 75 q 508 144 456 111 l 508 564 m 711 1078 l 803 1065 l 746 813 l 676 821 l 711 1078 z "},"e":{"ha":764,"x_min":93,"x_max":671,"o":"m 644 19 q 533 -5 592 4 q 403 -14 474 -14 q 274 0 332 -14 q 176 51 217 14 q 115 158 136 89 q 93 338 93 226 q 115 515 93 446 q 178 626 138 585 q 276 683 219 667 q 403 700 333 700 q 518 685 468 700 q 603 635 568 671 q 654 539 638 600 q 671 383 671 478 q 671 352 671 367 q 669 318 671 338 l 203 318 q 217 189 203 238 q 260 115 232 140 q 328 81 288 89 q 424 72 369 72 q 535 81 485 72 q 633 101 585 89 l 644 19 m 569 394 q 558 506 569 463 q 524 573 546 549 q 469 606 501 597 q 397 615 438 615 q 320 606 356 615 q 260 571 285 596 q 220 503 235 546 q 203 394 206 461 l 569 394 z "},"ę":{"ha":764,"x_min":93,"x_max":671,"o":"m 644 19 q 576 -30 607 -6 q 523 -78 544 -54 q 490 -125 501 -101 q 478 -171 478 -149 q 492 -219 478 -203 q 544 -235 507 -235 q 588 -231 564 -235 q 633 -221 611 -228 l 644 -290 q 586 -303 615 -299 q 524 -308 557 -308 q 419 -280 456 -308 q 383 -189 383 -251 q 395 -133 383 -160 q 426 -83 407 -107 q 469 -40 446 -60 q 521 -1 493 -19 q 469 -10 499 -7 q 403 -14 439 -14 q 274 0 332 -14 q 176 51 217 14 q 115 158 136 89 q 93 338 93 226 q 115 515 93 446 q 178 626 138 585 q 276 683 219 667 q 403 700 333 700 q 518 685 468 700 q 603 635 568 671 q 654 539 638 600 q 671 383 671 478 q 671 351 671 367 q 669 318 671 335 l 203 318 q 217 189 203 238 q 260 115 232 140 q 328 81 288 89 q 424 72 369 72 q 535 81 485 72 q 633 101 585 89 l 644 19 m 569 394 q 558 506 569 463 q 524 573 546 549 q 469 606 501 597 q 397 615 438 615 q 320 606 356 615 q 260 571 285 596 q 220 503 235 546 q 203 394 206 461 l 569 394 z "},"è":{"ha":764,"x_min":93,"x_max":671,"o":"m 644 19 q 533 -5 592 4 q 403 -14 474 -14 q 274 0 332 -14 q 176 51 217 14 q 115 158 136 89 q 93 338 93 226 q 115 515 93 446 q 178 626 138 585 q 276 683 219 667 q 403 700 333 700 q 518 685 468 700 q 603 635 568 671 q 654 539 638 600 q 671 383 671 478 q 671 352 671 367 q 669 318 671 338 l 203 318 q 217 189 203 238 q 260 115 232 140 q 328 81 288 89 q 424 72 369 72 q 535 81 485 72 q 633 101 585 89 l 644 19 m 569 394 q 558 506 569 463 q 524 573 546 549 q 469 606 501 597 q 397 615 438 615 q 320 606 356 615 q 260 571 285 596 q 220 503 235 546 q 203 394 206 461 l 569 394 m 296 1040 l 463 844 l 411 792 l 225 969 l 296 1040 z "},"é":{"ha":764,"x_min":93,"x_max":671,"o":"m 644 19 q 533 -5 592 4 q 403 -14 474 -14 q 274 0 332 -14 q 176 51 217 14 q 115 158 136 89 q 93 338 93 226 q 115 515 93 446 q 178 626 138 585 q 276 683 219 667 q 403 700 333 700 q 518 685 468 700 q 603 635 568 671 q 654 539 638 600 q 671 383 671 478 q 671 352 671 367 q 669 318 671 338 l 203 318 q 217 189 203 238 q 260 115 232 140 q 328 81 288 89 q 424 72 369 72 q 535 81 485 72 q 633 101 585 89 l 644 19 m 569 394 q 558 506 569 463 q 524 573 546 549 q 469 606 501 597 q 397 615 438 615 q 320 606 356 615 q 260 571 285 596 q 220 503 235 546 q 203 394 206 461 l 569 394 m 488 1040 l 558 969 l 372 792 l 321 844 l 488 1040 z "},"ê":{"ha":764,"x_min":93,"x_max":671,"o":"m 644 19 q 533 -5 592 4 q 403 -14 474 -14 q 274 0 332 -14 q 176 51 217 14 q 115 158 136 89 q 93 338 93 226 q 115 515 93 446 q 178 626 138 585 q 276 683 219 667 q 403 700 333 700 q 518 685 468 700 q 603 635 568 671 q 654 539 638 600 q 671 383 671 478 q 671 352 671 367 q 669 318 671 338 l 203 318 q 217 189 203 238 q 260 115 232 140 q 328 81 288 89 q 424 72 369 72 q 535 81 485 72 q 633 101 585 89 l 644 19 m 569 394 q 558 506 569 463 q 524 573 546 549 q 469 606 501 597 q 397 615 438 615 q 320 606 356 615 q 260 571 285 596 q 220 503 235 546 q 203 394 206 461 l 569 394 m 397 1031 l 582 854 l 532 793 l 396 919 l 261 796 l 214 853 l 397 1031 z "},"ë":{"ha":764,"x_min":93,"x_max":671,"o":"m 644 19 q 533 -5 592 4 q 403 -14 474 -14 q 274 0 332 -14 q 176 51 217 14 q 115 158 136 89 q 93 338 93 226 q 115 515 93 446 q 178 626 138 585 q 276 683 219 667 q 403 700 333 700 q 518 685 468 700 q 603 635 568 671 q 654 539 638 600 q 671 383 671 478 q 671 352 671 367 q 669 318 671 338 l 203 318 q 217 189 203 238 q 260 115 232 140 q 328 81 288 89 q 424 72 369 72 q 535 81 485 72 q 633 101 585 89 l 644 19 m 569 394 q 558 506 569 463 q 524 573 546 549 q 469 606 501 597 q 397 615 438 615 q 320 606 356 615 q 260 571 285 596 q 220 503 235 546 q 203 394 206 461 l 569 394 m 322 908 q 319 876 322 890 q 308 855 315 863 q 287 844 300 847 q 253 840 274 840 q 199 855 213 840 q 185 908 185 869 q 199 963 185 947 q 253 978 213 978 q 287 974 274 978 q 308 963 300 971 q 319 941 315 954 q 322 908 322 928 m 592 908 q 578 855 592 869 q 524 840 564 840 q 490 844 503 840 q 469 855 476 847 q 458 876 461 863 q 454 908 454 890 q 458 941 454 928 q 469 963 461 954 q 490 974 476 971 q 524 978 503 978 q 578 963 564 978 q 592 908 592 947 z "},"ĕ":{"ha":764,"x_min":93,"x_max":671,"o":"m 644 19 q 533 -5 592 4 q 403 -14 474 -14 q 274 0 332 -14 q 176 51 217 14 q 115 158 136 89 q 93 338 93 226 q 115 515 93 446 q 178 626 138 585 q 276 683 219 667 q 403 700 333 700 q 518 685 468 700 q 603 635 568 671 q 654 539 638 600 q 671 383 671 478 q 671 352 671 367 q 669 318 671 338 l 203 318 q 217 189 203 238 q 260 115 232 140 q 328 81 288 89 q 424 72 369 72 q 535 81 485 72 q 633 101 585 89 l 644 19 m 569 394 q 558 506 569 463 q 524 573 546 549 q 469 606 501 597 q 397 615 438 615 q 320 606 356 615 q 260 571 285 596 q 220 503 235 546 q 203 394 206 461 l 569 394 m 301 992 q 327 917 303 946 q 394 888 351 888 q 461 917 438 888 q 485 992 485 946 l 563 992 q 517 860 563 911 q 390 810 472 810 q 267 860 311 810 q 224 992 224 911 l 301 992 z "},"ē":{"ha":764,"x_min":93,"x_max":671,"o":"m 644 19 q 533 -5 592 4 q 403 -14 474 -14 q 274 0 332 -14 q 176 51 217 14 q 115 158 136 89 q 93 338 93 226 q 115 515 93 446 q 178 626 138 585 q 276 683 219 667 q 403 700 333 700 q 518 685 468 700 q 603 635 568 671 q 654 539 638 600 q 671 383 671 478 q 671 352 671 367 q 669 318 671 338 l 203 318 q 217 189 203 238 q 260 115 232 140 q 328 81 288 89 q 424 72 369 72 q 535 81 485 72 q 633 101 585 89 l 644 19 m 569 394 q 558 506 569 463 q 524 573 546 549 q 469 606 501 597 q 397 615 438 615 q 320 606 356 615 q 260 571 285 596 q 220 503 235 546 q 203 394 206 461 l 569 394 m 210 944 l 569 944 l 569 863 l 210 863 l 210 944 z "},"ě":{"ha":764,"x_min":93,"x_max":671,"o":"m 644 19 q 533 -5 592 4 q 403 -14 474 -14 q 274 0 332 -14 q 176 51 217 14 q 115 158 136 89 q 93 338 93 226 q 115 515 93 446 q 178 626 138 585 q 276 683 219 667 q 403 700 333 700 q 518 685 468 700 q 603 635 568 671 q 654 539 638 600 q 671 383 671 478 q 671 352 671 367 q 669 318 671 338 l 203 318 q 217 189 203 238 q 260 115 232 140 q 328 81 288 89 q 424 72 369 72 q 535 81 485 72 q 633 101 585 89 l 644 19 m 569 394 q 558 506 569 463 q 524 573 546 549 q 469 606 501 597 q 397 615 438 615 q 320 606 356 615 q 260 571 285 596 q 220 503 235 546 q 203 394 206 461 l 569 394 m 260 1024 l 396 897 l 531 1022 l 578 965 l 393 786 l 210 964 l 260 1024 z "},"ė":{"ha":764,"x_min":93,"x_max":671,"o":"m 644 19 q 533 -5 592 4 q 403 -14 474 -14 q 274 0 332 -14 q 176 51 217 14 q 115 158 136 89 q 93 338 93 226 q 115 515 93 446 q 178 626 138 585 q 276 683 219 667 q 403 700 333 700 q 518 685 468 700 q 603 635 568 671 q 654 539 638 600 q 671 383 671 478 q 671 352 671 367 q 669 318 671 338 l 203 318 q 217 189 203 238 q 260 115 232 140 q 328 81 288 89 q 424 72 369 72 q 535 81 485 72 q 633 101 585 89 l 644 19 m 569 394 q 558 506 569 463 q 524 573 546 549 q 469 606 501 597 q 397 615 438 615 q 320 606 356 615 q 260 571 285 596 q 220 503 235 546 q 203 394 206 461 l 569 394 m 460 908 q 445 855 460 869 q 389 840 431 840 q 333 855 347 840 q 318 908 318 869 q 333 963 318 947 q 389 978 347 978 q 445 963 431 978 q 460 908 460 947 z "},"f":{"ha":764,"x_min":68,"x_max":703,"o":"m 289 597 l 68 597 l 68 681 l 289 681 l 289 793 q 306 904 289 857 q 356 983 322 951 q 440 1029 389 1014 q 560 1044 490 1044 q 635 1041 600 1044 q 703 1031 671 1038 l 690 949 q 631 956 663 954 q 564 958 600 958 q 440 921 482 958 q 399 799 399 883 l 399 681 l 686 681 l 686 597 l 399 597 l 399 0 l 289 0 l 289 597 z "},"g":{"ha":764,"x_min":65,"x_max":728,"o":"m 728 610 l 603 600 q 635 547 622 579 q 647 460 647 515 q 578 273 647 329 q 372 217 510 217 q 306 222 331 217 q 260 236 281 226 q 228 206 238 221 q 218 175 218 192 q 222 155 218 164 q 236 137 225 146 q 268 119 247 128 q 324 104 289 111 q 441 81 382 92 q 544 61 500 71 q 613 40 583 53 q 660 7 642 26 q 687 -38 678 -12 q 696 -99 696 -64 q 678 -185 696 -146 q 622 -253 661 -225 q 521 -299 583 -282 q 369 -315 458 -315 q 226 -302 283 -315 q 132 -264 168 -289 q 81 -203 96 -239 q 65 -122 65 -167 q 76 -60 65 -87 q 106 -11 88 -32 q 147 25 124 10 q 193 51 169 40 q 133 93 154 68 q 113 158 113 118 q 131 218 113 192 q 179 267 149 244 q 124 337 146 293 q 103 458 103 381 q 172 644 103 588 q 376 700 240 700 q 456 694 422 700 q 514 681 490 689 l 728 681 l 728 610 m 490 -14 q 397 3 447 -6 q 289 24 347 13 q 206 -27 240 4 q 171 -112 171 -58 q 180 -165 171 -142 q 212 -203 189 -187 q 274 -228 235 -219 q 374 -237 313 -237 q 478 -226 436 -237 q 544 -198 519 -215 q 580 -156 569 -181 q 590 -107 590 -132 q 567 -47 590 -68 q 490 -14 543 -25 m 542 458 q 532 536 542 504 q 501 587 522 568 q 449 614 481 606 q 374 622 417 622 q 298 615 329 622 q 247 588 267 607 q 217 538 226 568 q 208 460 208 507 q 217 381 208 413 q 247 330 226 350 q 299 302 267 310 q 375 294 331 294 q 450 302 418 294 q 502 329 482 310 q 532 380 522 349 q 542 458 542 411 z "},"ǵ":{"ha":764,"x_min":65,"x_max":728,"o":"m 728 610 l 603 600 q 635 547 622 579 q 647 460 647 515 q 578 273 647 329 q 372 217 510 217 q 306 222 331 217 q 260 236 281 226 q 228 206 238 221 q 218 175 218 192 q 222 155 218 164 q 236 137 225 146 q 268 119 247 128 q 324 104 289 111 q 441 81 382 92 q 544 61 500 71 q 613 40 583 53 q 660 7 642 26 q 687 -38 678 -12 q 696 -99 696 -64 q 678 -185 696 -146 q 622 -253 661 -225 q 521 -299 583 -282 q 369 -315 458 -315 q 226 -302 283 -315 q 132 -264 168 -289 q 81 -203 96 -239 q 65 -122 65 -167 q 76 -60 65 -87 q 106 -11 88 -32 q 147 25 124 10 q 193 51 169 40 q 133 93 154 68 q 113 158 113 118 q 131 218 113 192 q 179 267 149 244 q 124 337 146 293 q 103 458 103 381 q 172 644 103 588 q 376 700 240 700 q 456 694 422 700 q 514 681 490 689 l 728 681 l 728 610 m 490 -14 q 397 3 447 -6 q 289 24 347 13 q 206 -27 240 4 q 171 -112 171 -58 q 180 -165 171 -142 q 212 -203 189 -187 q 274 -228 235 -219 q 374 -237 313 -237 q 478 -226 436 -237 q 544 -198 519 -215 q 580 -156 569 -181 q 590 -107 590 -132 q 567 -47 590 -68 q 490 -14 543 -25 m 542 458 q 532 536 542 504 q 501 587 522 568 q 449 614 481 606 q 374 622 417 622 q 298 615 329 622 q 247 588 267 607 q 217 538 226 568 q 208 460 208 507 q 217 381 208 413 q 247 330 226 350 q 299 302 267 310 q 375 294 331 294 q 450 302 418 294 q 502 329 482 310 q 532 380 522 349 q 542 458 542 411 m 479 1040 l 550 969 l 364 792 l 313 844 l 479 1040 z "},"ĝ":{"ha":764,"x_min":65,"x_max":728,"o":"m 728 610 l 603 600 q 635 547 622 579 q 647 460 647 515 q 578 273 647 329 q 372 217 510 217 q 306 222 331 217 q 260 236 281 226 q 228 206 238 221 q 218 175 218 192 q 222 155 218 164 q 236 137 225 146 q 268 119 247 128 q 324 104 289 111 q 441 81 382 92 q 544 61 500 71 q 613 40 583 53 q 660 7 642 26 q 687 -38 678 -12 q 696 -99 696 -64 q 678 -185 696 -146 q 622 -253 661 -225 q 521 -299 583 -282 q 369 -315 458 -315 q 226 -302 283 -315 q 132 -264 168 -289 q 81 -203 96 -239 q 65 -122 65 -167 q 76 -60 65 -87 q 106 -11 88 -32 q 147 25 124 10 q 193 51 169 40 q 133 93 154 68 q 113 158 113 118 q 131 218 113 192 q 179 267 149 244 q 124 337 146 293 q 103 458 103 381 q 172 644 103 588 q 376 700 240 700 q 456 694 422 700 q 514 681 490 689 l 728 681 l 728 610 m 490 -14 q 397 3 447 -6 q 289 24 347 13 q 206 -27 240 4 q 171 -112 171 -58 q 180 -165 171 -142 q 212 -203 189 -187 q 274 -228 235 -219 q 374 -237 313 -237 q 478 -226 436 -237 q 544 -198 519 -215 q 580 -156 569 -181 q 590 -107 590 -132 q 567 -47 590 -68 q 490 -14 543 -25 m 542 458 q 532 536 542 504 q 501 587 522 568 q 449 614 481 606 q 374 622 417 622 q 298 615 329 622 q 247 588 267 607 q 217 538 226 568 q 208 460 208 507 q 217 381 208 413 q 247 330 226 350 q 299 302 267 310 q 375 294 331 294 q 450 302 418 294 q 502 329 482 310 q 532 380 522 349 q 542 458 542 411 m 378 1031 l 563 854 l 513 793 l 376 919 l 242 796 l 194 853 l 378 1031 z "},"ğ":{"ha":764,"x_min":65,"x_max":728,"o":"m 728 610 l 603 600 q 635 547 622 579 q 647 460 647 515 q 578 273 647 329 q 372 217 510 217 q 306 222 331 217 q 260 236 281 226 q 228 206 238 221 q 218 175 218 192 q 222 155 218 164 q 236 137 225 146 q 268 119 247 128 q 324 104 289 111 q 441 81 382 92 q 544 61 500 71 q 613 40 583 53 q 660 7 642 26 q 687 -38 678 -12 q 696 -99 696 -64 q 678 -185 696 -146 q 622 -253 661 -225 q 521 -299 583 -282 q 369 -315 458 -315 q 226 -302 283 -315 q 132 -264 168 -289 q 81 -203 96 -239 q 65 -122 65 -167 q 76 -60 65 -87 q 106 -11 88 -32 q 147 25 124 10 q 193 51 169 40 q 133 93 154 68 q 113 158 113 118 q 131 218 113 192 q 179 267 149 244 q 124 337 146 293 q 103 458 103 381 q 172 644 103 588 q 376 700 240 700 q 456 694 422 700 q 514 681 490 689 l 728 681 l 728 610 m 490 -14 q 397 3 447 -6 q 289 24 347 13 q 206 -27 240 4 q 171 -112 171 -58 q 180 -165 171 -142 q 212 -203 189 -187 q 274 -228 235 -219 q 374 -237 313 -237 q 478 -226 436 -237 q 544 -198 519 -215 q 580 -156 569 -181 q 590 -107 590 -132 q 567 -47 590 -68 q 490 -14 543 -25 m 542 458 q 532 536 542 504 q 501 587 522 568 q 449 614 481 606 q 374 622 417 622 q 298 615 329 622 q 247 588 267 607 q 217 538 226 568 q 208 460 208 507 q 217 381 208 413 q 247 330 226 350 q 299 302 267 310 q 375 294 331 294 q 450 302 418 294 q 502 329 482 310 q 532 380 522 349 q 542 458 542 411 m 286 992 q 312 917 288 946 q 379 888 336 888 q 446 917 422 888 q 469 992 469 946 l 547 992 q 502 860 547 911 q 375 810 457 810 q 252 860 296 810 q 208 992 208 911 l 286 992 z "},"ǧ":{"ha":764,"x_min":65,"x_max":728,"o":"m 728 610 l 603 600 q 635 547 622 579 q 647 460 647 515 q 578 273 647 329 q 372 217 510 217 q 306 222 331 217 q 260 236 281 226 q 228 206 238 221 q 218 175 218 192 q 222 155 218 164 q 236 137 225 146 q 268 119 247 128 q 324 104 289 111 q 441 81 382 92 q 544 61 500 71 q 613 40 583 53 q 660 7 642 26 q 687 -38 678 -12 q 696 -99 696 -64 q 678 -185 696 -146 q 622 -253 661 -225 q 521 -299 583 -282 q 369 -315 458 -315 q 226 -302 283 -315 q 132 -264 168 -289 q 81 -203 96 -239 q 65 -122 65 -167 q 76 -60 65 -87 q 106 -11 88 -32 q 147 25 124 10 q 193 51 169 40 q 133 93 154 68 q 113 158 113 118 q 131 218 113 192 q 179 267 149 244 q 124 337 146 293 q 103 458 103 381 q 172 644 103 588 q 376 700 240 700 q 456 694 422 700 q 514 681 490 689 l 728 681 l 728 610 m 490 -14 q 397 3 447 -6 q 289 24 347 13 q 206 -27 240 4 q 171 -112 171 -58 q 180 -165 171 -142 q 212 -203 189 -187 q 274 -228 235 -219 q 374 -237 313 -237 q 478 -226 436 -237 q 544 -198 519 -215 q 580 -156 569 -181 q 590 -107 590 -132 q 567 -47 590 -68 q 490 -14 543 -25 m 542 458 q 532 536 542 504 q 501 587 522 568 q 449 614 481 606 q 374 622 417 622 q 298 615 329 622 q 247 588 267 607 q 217 538 226 568 q 208 460 208 507 q 217 381 208 413 q 247 330 226 350 q 299 302 267 310 q 375 294 331 294 q 450 302 418 294 q 502 329 482 310 q 532 380 522 349 q 542 458 542 411 m 243 1024 l 379 897 l 514 1022 l 561 965 l 376 786 l 193 964 l 243 1024 z "},"ġ":{"ha":764,"x_min":65,"x_max":728,"o":"m 728 610 l 603 600 q 635 547 622 579 q 647 460 647 515 q 578 273 647 329 q 372 217 510 217 q 306 222 331 217 q 260 236 281 226 q 228 206 238 221 q 218 175 218 192 q 222 155 218 164 q 236 137 225 146 q 268 119 247 128 q 324 104 289 111 q 441 81 382 92 q 544 61 500 71 q 613 40 583 53 q 660 7 642 26 q 687 -38 678 -12 q 696 -99 696 -64 q 678 -185 696 -146 q 622 -253 661 -225 q 521 -299 583 -282 q 369 -315 458 -315 q 226 -302 283 -315 q 132 -264 168 -289 q 81 -203 96 -239 q 65 -122 65 -167 q 76 -60 65 -87 q 106 -11 88 -32 q 147 25 124 10 q 193 51 169 40 q 133 93 154 68 q 113 158 113 118 q 131 218 113 192 q 179 267 149 244 q 124 337 146 293 q 103 458 103 381 q 172 644 103 588 q 376 700 240 700 q 456 694 422 700 q 514 681 490 689 l 728 681 l 728 610 m 490 -14 q 397 3 447 -6 q 289 24 347 13 q 206 -27 240 4 q 171 -112 171 -58 q 180 -165 171 -142 q 212 -203 189 -187 q 274 -228 235 -219 q 374 -237 313 -237 q 478 -226 436 -237 q 544 -198 519 -215 q 580 -156 569 -181 q 590 -107 590 -132 q 567 -47 590 -68 q 490 -14 543 -25 m 542 458 q 532 536 542 504 q 501 587 522 568 q 449 614 481 606 q 374 622 417 622 q 298 615 329 622 q 247 588 267 607 q 217 538 226 568 q 208 460 208 507 q 217 381 208 413 q 247 330 226 350 q 299 302 267 310 q 375 294 331 294 q 450 302 418 294 q 502 329 482 310 q 532 380 522 349 q 542 458 542 411 m 449 908 q 434 855 449 869 q 378 840 419 840 q 322 855 336 840 q 307 908 307 869 q 322 963 307 947 q 378 978 336 978 q 434 963 419 978 q 449 908 449 947 z "},"ģ":{"ha":764,"x_min":65,"x_max":728,"o":"m 728 610 l 603 600 q 635 547 622 579 q 647 460 647 515 q 578 273 647 329 q 372 217 510 217 q 306 222 331 217 q 260 236 281 226 q 228 206 238 221 q 218 175 218 192 q 222 155 218 164 q 236 137 225 146 q 268 119 247 128 q 324 104 289 111 q 441 81 382 92 q 544 61 500 71 q 613 40 583 53 q 660 7 642 26 q 687 -38 678 -12 q 696 -99 696 -64 q 678 -185 696 -146 q 622 -253 661 -225 q 521 -299 583 -282 q 369 -315 458 -315 q 226 -302 283 -315 q 132 -264 168 -289 q 81 -203 96 -239 q 65 -122 65 -167 q 76 -60 65 -87 q 106 -11 88 -32 q 147 25 124 10 q 193 51 169 40 q 133 93 154 68 q 113 158 113 118 q 131 218 113 192 q 179 267 149 244 q 124 337 146 293 q 103 458 103 381 q 172 644 103 588 q 376 700 240 700 q 456 694 422 700 q 514 681 490 689 l 728 681 l 728 610 m 490 -14 q 397 3 447 -6 q 289 24 347 13 q 206 -27 240 4 q 171 -112 171 -58 q 180 -165 171 -142 q 212 -203 189 -187 q 274 -228 235 -219 q 374 -237 313 -237 q 478 -226 436 -237 q 544 -198 519 -215 q 580 -156 569 -181 q 590 -107 590 -132 q 567 -47 590 -68 q 490 -14 543 -25 m 542 458 q 532 536 542 504 q 501 587 522 568 q 449 614 481 606 q 374 622 417 622 q 298 615 329 622 q 247 588 267 607 q 217 538 226 568 q 208 460 208 507 q 217 381 208 413 q 247 330 226 350 q 299 302 267 310 q 375 294 331 294 q 450 302 418 294 q 502 329 482 310 q 532 380 522 349 q 542 458 542 411 m 585 964 q 548 947 568 957 q 508 927 528 938 q 469 907 488 917 q 438 889 451 897 q 440 875 440 881 q 440 865 440 869 q 424 824 440 836 q 378 813 408 813 q 331 827 344 813 q 318 878 318 842 q 324 908 318 896 q 344 932 329 921 q 388 953 360 943 q 461 979 415 964 q 516 998 489 989 q 568 1014 543 1007 l 585 964 z "},"h":{"ha":764,"x_min":111,"x_max":657,"o":"m 111 1025 l 219 1025 l 219 781 q 218 701 219 742 q 214 614 217 661 l 215 613 q 327 670 267 646 q 456 694 388 694 q 604 642 551 694 q 657 469 657 589 l 657 0 l 549 0 l 549 451 q 515 572 549 539 q 426 606 481 606 q 324 585 376 606 q 219 525 272 564 l 219 0 l 111 0 l 111 1025 z "},"ħ":{"ha":764,"x_min":19,"x_max":657,"o":"m 111 818 l 19 818 l 19 900 l 111 900 l 111 1025 l 219 1025 l 219 900 l 392 900 l 392 818 l 219 818 l 219 779 q 218 701 219 742 q 214 614 217 661 l 215 613 q 327 670 267 646 q 456 694 388 694 q 604 642 551 694 q 657 469 657 589 l 657 0 l 549 0 l 549 451 q 515 572 549 539 q 426 606 481 606 q 324 585 376 606 q 219 525 272 564 l 219 0 l 111 0 l 111 818 z "},"ĥ":{"ha":764,"x_min":111,"x_max":657,"o":"m 111 1025 l 219 1025 l 219 781 q 218 701 219 742 q 214 614 217 661 l 215 613 q 327 670 267 646 q 456 694 388 694 q 604 642 551 694 q 657 469 657 589 l 657 0 l 549 0 l 549 451 q 515 572 549 539 q 426 606 481 606 q 324 585 376 606 q 219 525 272 564 l 219 0 l 111 0 l 111 1025 m 390 1286 l 582 1169 l 546 1103 l 385 1189 l 228 1103 l 193 1169 l 390 1286 z "},"ȟ":{"ha":764,"x_min":111,"x_max":657,"o":"m 111 1025 l 219 1025 l 219 781 q 218 701 219 742 q 214 614 217 661 l 215 613 q 327 670 267 646 q 456 694 388 694 q 604 642 551 694 q 657 469 657 589 l 657 0 l 549 0 l 549 451 q 515 572 549 539 q 426 606 481 606 q 324 585 376 606 q 219 525 272 564 l 219 0 l 111 0 l 111 1025 m 219 1246 l 381 1160 l 538 1246 l 572 1179 l 375 1064 l 183 1179 l 219 1246 z "},"i":{"ha":764,"x_min":89,"x_max":683,"o":"m 89 83 l 367 83 l 367 597 l 96 597 l 96 681 l 475 681 l 475 83 l 683 83 l 683 0 l 89 0 l 89 83 m 496 908 q 493 874 496 888 q 481 851 490 860 q 457 840 472 843 q 419 836 442 836 q 381 840 396 836 q 357 851 367 843 q 344 874 347 860 q 342 908 342 888 q 344 942 342 929 q 357 965 347 956 q 381 977 367 974 q 419 981 396 981 q 457 977 442 981 q 481 965 472 974 q 493 942 490 956 q 496 908 496 929 z "},"į":{"ha":764,"x_min":89,"x_max":683,"o":"m 89 83 l 367 83 l 367 597 l 96 597 l 96 681 l 475 681 l 475 83 l 683 83 l 683 0 l 471 0 q 417 -40 442 -19 q 372 -81 392 -60 q 340 -126 351 -103 q 329 -171 329 -149 q 344 -219 329 -203 q 396 -235 360 -235 q 438 -231 415 -235 q 483 -221 461 -228 l 496 -290 q 437 -303 467 -299 q 375 -308 407 -308 q 271 -280 307 -308 q 235 -189 235 -251 q 246 -133 235 -160 q 276 -83 257 -107 q 322 -39 296 -60 q 375 0 347 -18 l 89 0 l 89 83 m 496 908 q 493 874 496 888 q 481 851 490 860 q 457 840 472 843 q 419 836 442 836 q 381 840 396 836 q 357 851 367 843 q 344 874 347 860 q 342 908 342 888 q 344 942 342 929 q 357 965 347 956 q 381 977 367 974 q 419 981 396 981 q 457 977 442 981 q 481 965 472 974 q 493 942 490 956 q 496 908 496 929 z "},"ı":{"ha":764,"x_min":89,"x_max":683,"o":"m 89 83 l 367 83 l 367 597 l 96 597 l 96 681 l 475 681 l 475 83 l 683 83 l 683 0 l 89 0 l 89 83 z "},"ì":{"ha":764,"x_min":89,"x_max":683,"o":"m 310 1040 l 476 844 l 425 792 l 239 969 l 310 1040 m 89 83 l 367 83 l 367 597 l 96 597 l 96 681 l 475 681 l 475 83 l 683 83 l 683 0 l 89 0 l 89 83 z "},"í":{"ha":764,"x_min":89,"x_max":683,"o":"m 488 1040 l 558 969 l 372 792 l 321 844 l 488 1040 m 89 83 l 367 83 l 367 597 l 96 597 l 96 681 l 475 681 l 475 83 l 683 83 l 683 0 l 89 0 l 89 83 z "},"î":{"ha":764,"x_min":89,"x_max":683,"o":"m 89 83 l 367 83 l 367 597 l 96 597 l 96 681 l 475 681 l 475 83 l 683 83 l 683 0 l 89 0 l 89 83 m 414 1031 l 599 854 l 549 793 l 413 919 l 278 796 l 231 853 l 414 1031 z "},"ï":{"ha":764,"x_min":89,"x_max":683,"o":"m 344 908 q 341 876 344 890 q 330 855 338 863 q 309 844 322 847 q 275 840 296 840 q 221 855 235 840 q 207 908 207 869 q 221 963 207 947 q 275 978 235 978 q 309 974 296 978 q 330 963 322 971 q 341 941 338 954 q 344 908 344 928 m 614 908 q 600 855 614 869 q 546 840 586 840 q 512 844 525 840 q 491 855 499 847 q 480 876 483 863 q 476 908 476 890 q 480 941 476 928 q 491 963 483 954 q 512 974 499 971 q 546 978 525 978 q 600 963 586 978 q 614 908 614 947 m 89 83 l 367 83 l 367 597 l 96 597 l 96 681 l 475 681 l 475 83 l 683 83 l 683 0 l 89 0 l 89 83 z "},"ĩ":{"ha":764,"x_min":89,"x_max":683,"o":"m 201 869 q 223 910 210 890 q 253 946 236 931 q 290 970 269 961 q 336 979 311 979 q 382 968 361 979 q 422 943 403 957 q 457 918 440 929 q 492 907 474 907 q 533 926 517 907 q 561 976 549 946 l 618 938 q 596 896 608 915 q 567 860 583 876 q 529 835 550 844 q 483 826 508 826 q 437 838 457 826 q 398 862 417 849 q 363 887 379 875 q 328 899 346 899 q 287 879 303 899 q 258 831 271 860 l 201 869 m 89 83 l 367 83 l 367 597 l 96 597 l 96 681 l 475 681 l 475 83 l 683 83 l 683 0 l 89 0 l 89 83 z "},"ĭ":{"ha":764,"x_min":89,"x_max":683,"o":"m 319 992 q 345 917 321 946 q 413 888 369 888 q 479 917 456 888 q 503 992 503 946 l 581 992 q 535 860 581 911 q 408 810 490 810 q 285 860 329 810 q 242 992 242 911 l 319 992 m 89 83 l 367 83 l 367 597 l 96 597 l 96 681 l 475 681 l 475 83 l 683 83 l 683 0 l 89 0 l 89 83 z "},"ī":{"ha":764,"x_min":89,"x_max":683,"o":"m 231 944 l 590 944 l 590 863 l 231 863 l 231 944 m 89 83 l 367 83 l 367 597 l 96 597 l 96 681 l 475 681 l 475 83 l 683 83 l 683 0 l 89 0 l 89 83 z "},"ǐ":{"ha":764,"x_min":89,"x_max":683,"o":"m 281 1024 l 417 897 l 551 1022 l 599 965 l 414 786 l 231 964 l 281 1024 m 89 83 l 367 83 l 367 597 l 96 597 l 96 681 l 475 681 l 475 83 l 683 83 l 683 0 l 89 0 l 89 83 z "},"ĳ":{"ha":764,"x_min":119,"x_max":646,"o":"m 142 681 l 251 681 l 251 0 l 142 0 l 142 681 m 275 908 q 272 874 275 888 q 259 851 268 860 q 235 840 250 843 q 197 836 221 836 q 160 840 175 836 q 135 851 144 843 q 123 874 126 860 q 119 908 119 888 q 123 942 119 929 q 135 965 126 956 q 160 977 144 974 q 197 981 175 981 q 235 977 221 981 q 259 965 250 974 q 272 942 268 956 q 275 908 275 929 m 622 681 l 622 -50 q 608 -162 622 -114 q 561 -244 593 -211 q 478 -293 529 -276 q 350 -310 426 -310 q 271 -307 307 -310 q 200 -297 235 -304 l 210 -214 q 272 -222 240 -219 q 347 -225 303 -225 q 476 -183 440 -225 q 513 -58 513 -140 l 513 681 l 622 681 m 646 908 q 642 874 646 888 q 630 851 639 860 q 606 840 621 843 q 568 836 590 836 q 530 840 544 836 q 506 851 515 843 q 494 874 497 860 q 490 908 490 888 q 494 942 490 929 q 506 965 497 956 q 530 977 515 974 q 568 981 544 981 q 606 977 590 981 q 630 965 621 974 q 642 942 639 956 q 646 908 646 929 z "},"j":{"ha":764,"x_min":86,"x_max":588,"o":"m 124 597 l 124 681 l 567 681 l 567 -50 q 552 -162 567 -114 q 503 -244 538 -211 q 409 -293 468 -276 q 264 -310 350 -310 q 166 -304 211 -310 q 86 -293 121 -299 l 94 -210 q 170 -220 126 -215 q 261 -225 214 -225 q 356 -214 318 -225 q 417 -182 394 -203 q 448 -131 439 -161 q 457 -58 457 -100 l 457 597 l 124 597 m 588 908 q 584 874 588 888 q 572 851 581 860 q 547 840 563 843 q 510 836 532 836 q 472 840 486 836 q 448 851 457 843 q 435 874 439 860 q 432 908 432 888 q 435 942 432 929 q 448 965 439 956 q 472 977 457 974 q 510 981 486 981 q 547 977 532 981 q 572 965 563 974 q 584 942 581 956 q 588 908 588 929 z "},"ȷ":{"ha":764,"x_min":86,"x_max":567,"o":"m 124 597 l 124 681 l 567 681 l 567 -50 q 552 -162 567 -114 q 503 -244 538 -211 q 409 -293 468 -276 q 264 -310 350 -310 q 166 -304 211 -310 q 86 -293 121 -299 l 94 -210 q 170 -220 126 -215 q 261 -225 214 -225 q 356 -214 318 -225 q 417 -182 394 -203 q 448 -131 439 -161 q 457 -58 457 -100 l 457 597 l 124 597 z "},"ĵ":{"ha":764,"x_min":86,"x_max":676,"o":"m 124 597 l 124 681 l 567 681 l 567 -50 q 552 -162 567 -114 q 503 -244 538 -211 q 409 -293 468 -276 q 264 -310 350 -310 q 166 -304 211 -310 q 86 -293 121 -299 l 94 -210 q 170 -220 126 -215 q 261 -225 214 -225 q 356 -214 318 -225 q 417 -182 394 -203 q 448 -131 439 -161 q 457 -58 457 -100 l 457 597 l 124 597 m 492 1031 l 676 854 l 626 793 l 490 919 l 356 796 l 308 853 l 492 1031 z "},"k":{"ha":764,"x_min":121,"x_max":713,"o":"m 121 1025 l 229 1025 l 229 385 l 564 681 l 701 681 l 346 374 l 713 0 l 571 0 l 229 351 l 229 0 l 121 0 l 121 1025 z "},"ǩ":{"ha":764,"x_min":121,"x_max":713,"o":"m 121 1025 l 229 1025 l 229 385 l 564 681 l 701 681 l 346 374 l 713 0 l 571 0 l 229 351 l 229 0 l 121 0 l 121 1025 m 233 1246 l 394 1160 l 551 1246 l 586 1179 l 389 1064 l 197 1179 l 233 1246 z "},"ķ":{"ha":764,"x_min":121,"x_max":713,"o":"m 121 1025 l 229 1025 l 229 385 l 564 681 l 701 681 l 346 374 l 713 0 l 571 0 l 229 351 l 229 0 l 121 0 l 121 1025 m 183 -254 q 219 -237 199 -247 q 259 -217 239 -228 q 298 -196 279 -206 q 329 -178 317 -186 q 328 -164 328 -169 q 328 -154 328 -158 q 343 -114 328 -125 q 389 -103 358 -103 q 437 -117 424 -103 q 450 -168 450 -132 q 444 -199 450 -186 q 423 -222 439 -211 q 379 -244 407 -233 q 307 -268 351 -254 q 251 -287 278 -279 q 199 -304 224 -296 l 183 -254 z "},"ĸ":{"ha":764,"x_min":121,"x_max":713,"o":"m 121 681 l 229 681 l 229 365 l 564 681 l 701 681 l 346 354 l 713 0 l 571 0 l 229 332 l 229 0 l 121 0 l 121 681 z "},"l":{"ha":764,"x_min":81,"x_max":676,"o":"m 676 83 l 676 0 l 317 0 l 317 942 l 81 942 l 81 1025 l 425 1025 l 425 83 l 676 83 z "},"ł":{"ha":764,"x_min":81,"x_max":676,"o":"m 676 83 l 676 0 l 315 0 l 315 528 l 147 447 l 110 521 l 315 619 l 315 942 l 81 942 l 81 1025 l 424 1025 l 424 669 l 596 754 l 633 681 l 424 579 l 424 83 l 676 83 z "},"ĺ":{"ha":764,"x_min":81,"x_max":676,"o":"m 676 83 l 676 0 l 317 0 l 317 942 l 81 942 l 81 1025 l 425 1025 l 425 83 l 676 83 m 524 1278 l 564 1189 l 318 1085 l 288 1153 l 524 1278 z "},"ľ":{"ha":764,"x_min":81,"x_max":721,"o":"m 625 1083 l 721 1060 l 621 807 l 547 822 l 625 1083 m 676 83 l 676 0 l 314 0 l 314 942 l 81 942 l 81 1025 l 422 1025 l 422 83 l 676 83 z "},"ŀ":{"ha":764,"x_min":75,"x_max":742,"o":"m 742 418 q 738 379 742 394 q 726 355 735 364 q 701 342 717 346 q 661 338 685 338 q 622 342 638 338 q 598 355 607 346 q 585 379 589 364 q 581 418 581 394 q 585 456 581 440 q 598 480 589 471 q 622 493 607 489 q 661 497 638 497 q 701 493 685 497 q 726 480 717 489 q 738 456 735 471 q 742 418 742 440 m 631 83 l 631 0 l 283 0 l 283 942 l 75 942 l 75 1025 l 392 1025 l 392 83 l 631 83 z "},"ļ":{"ha":764,"x_min":81,"x_max":676,"o":"m 676 83 l 676 0 l 317 0 l 317 942 l 81 942 l 81 1025 l 425 1025 l 425 83 l 676 83 m 182 -254 q 217 -237 197 -247 q 258 -217 238 -228 q 297 -196 278 -206 q 328 -178 315 -186 q 326 -164 326 -169 q 326 -154 326 -158 q 342 -114 326 -125 q 388 -103 357 -103 q 435 -117 422 -103 q 449 -168 449 -132 q 443 -199 449 -186 q 422 -222 438 -211 q 378 -244 406 -233 q 306 -268 350 -254 q 249 -287 276 -279 q 197 -304 222 -296 l 182 -254 z "},"m":{"ha":764,"x_min":56,"x_max":711,"o":"m 56 681 l 140 681 l 147 613 q 219 672 182 649 q 300 694 257 694 q 376 671 346 694 q 419 610 406 647 q 495 670 457 646 q 578 694 533 694 q 628 685 604 694 q 672 654 653 675 q 701 601 690 633 q 711 522 711 569 l 711 0 l 610 0 l 610 501 q 606 552 610 532 q 593 584 601 572 q 574 601 585 596 q 550 606 563 606 q 498 588 525 606 q 432 529 471 569 q 433 514 433 521 q 433 499 433 507 l 433 0 l 333 0 l 333 501 q 328 552 333 532 q 315 584 324 572 q 296 601 307 596 q 272 606 285 606 q 221 588 247 606 q 156 529 194 569 l 156 0 l 56 0 l 56 681 z "},"n":{"ha":764,"x_min":111,"x_max":657,"o":"m 111 681 l 200 681 l 208 608 q 326 670 264 646 q 456 694 389 694 q 604 642 551 694 q 657 469 657 589 l 657 0 l 549 0 l 549 451 q 515 572 549 539 q 426 606 481 606 q 324 585 376 606 q 219 525 272 564 l 219 0 l 111 0 l 111 681 z "},"ŋ":{"ha":764,"x_min":111,"x_max":657,"o":"m 111 681 l 200 681 l 208 608 q 326 670 264 646 q 456 694 389 694 q 604 642 551 694 q 657 469 657 589 l 657 -69 q 601 -254 657 -199 q 439 -310 546 -310 q 394 -308 417 -310 q 353 -303 372 -306 l 364 -219 q 422 -225 393 -225 q 519 -192 489 -225 q 549 -74 549 -158 l 549 451 q 515 572 549 539 q 426 606 481 606 q 324 585 376 606 q 219 525 272 564 l 219 0 l 111 0 l 111 681 z "},"ǹ":{"ha":764,"x_min":111,"x_max":657,"o":"m 111 681 l 200 681 l 208 608 q 326 670 264 646 q 456 694 389 694 q 604 642 551 694 q 657 469 657 589 l 657 0 l 549 0 l 549 451 q 515 572 549 539 q 426 606 481 606 q 324 585 376 606 q 219 525 272 564 l 219 0 l 111 0 l 111 681 m 281 1040 l 447 844 l 396 792 l 210 969 l 281 1040 z "},"ń":{"ha":764,"x_min":111,"x_max":657,"o":"m 111 681 l 200 681 l 208 608 q 326 670 264 646 q 456 694 389 694 q 604 642 551 694 q 657 469 657 589 l 657 0 l 549 0 l 549 451 q 515 572 549 539 q 426 606 481 606 q 324 585 376 606 q 219 525 272 564 l 219 0 l 111 0 l 111 681 m 490 1040 l 561 969 l 375 792 l 324 844 l 490 1040 z "},"ñ":{"ha":764,"x_min":111,"x_max":657,"o":"m 111 681 l 200 681 l 208 608 q 326 670 264 646 q 456 694 389 694 q 604 642 551 694 q 657 469 657 589 l 657 0 l 549 0 l 549 451 q 515 572 549 539 q 426 606 481 606 q 324 585 376 606 q 219 525 272 564 l 219 0 l 111 0 l 111 681 m 175 869 q 197 910 183 890 q 226 946 210 931 q 264 970 243 961 q 310 979 285 979 q 356 968 335 979 q 395 943 376 957 q 431 918 414 929 q 465 907 447 907 q 506 926 490 907 q 535 976 522 946 l 592 938 q 569 896 582 915 q 540 860 557 876 q 503 835 524 844 q 457 826 482 826 q 410 838 431 826 q 372 862 390 849 q 336 887 353 875 q 301 899 319 899 q 260 879 276 899 q 232 831 244 860 l 175 869 z "},"ň":{"ha":764,"x_min":111,"x_max":657,"o":"m 111 681 l 200 681 l 208 608 q 326 670 264 646 q 456 694 389 694 q 604 642 551 694 q 657 469 657 589 l 657 0 l 549 0 l 549 451 q 515 572 549 539 q 426 606 481 606 q 324 585 376 606 q 219 525 272 564 l 219 0 l 111 0 l 111 681 m 244 1024 l 381 897 l 515 1022 l 563 965 l 378 786 l 194 964 l 244 1024 z "},"ŉ":{"ha":764,"x_min":-3,"x_max":665,"o":"m 126 681 l 215 681 l 224 608 q 338 669 275 644 q 467 694 401 694 q 613 642 560 694 q 665 469 665 589 l 665 0 l 557 0 l 557 451 q 523 572 557 539 q 435 606 489 606 q 335 585 386 606 q 235 528 285 565 l 235 0 l 126 0 l 126 681 m -3 778 q 16 812 7 793 q 34 849 25 831 q 51 884 43 867 q 65 915 58 901 q 45 933 53 921 q 38 974 38 946 q 49 1020 38 1007 q 99 1033 61 1033 q 147 1020 135 1033 q 160 974 160 1007 q 157 940 160 954 q 144 908 154 925 q 99 835 126 876 q 40 754 71 793 l -3 778 z "},"ņ":{"ha":764,"x_min":111,"x_max":657,"o":"m 111 681 l 200 681 l 208 608 q 326 670 264 646 q 456 694 389 694 q 604 642 551 694 q 657 469 657 589 l 657 0 l 549 0 l 549 451 q 515 572 549 539 q 426 606 481 606 q 324 585 376 606 q 219 525 272 564 l 219 0 l 111 0 l 111 681 m 183 -254 q 219 -237 199 -247 q 259 -217 239 -228 q 298 -196 279 -206 q 329 -178 317 -186 q 328 -164 328 -169 q 328 -154 328 -158 q 343 -114 328 -125 q 389 -103 358 -103 q 437 -117 424 -103 q 450 -168 450 -132 q 444 -199 450 -186 q 423 -222 439 -211 q 379 -244 407 -233 q 307 -268 351 -254 q 251 -287 278 -279 q 199 -304 224 -296 l 183 -254 z "},"o":{"ha":764,"x_min":79,"x_max":685,"o":"m 685 343 q 663 166 685 236 q 602 55 642 96 q 506 -3 563 14 q 379 -19 450 -19 q 253 -3 308 -19 q 159 52 197 13 q 100 161 121 92 q 79 338 79 231 q 101 515 79 446 q 162 626 122 585 q 258 683 201 667 q 383 700 314 700 q 510 685 454 700 q 604 629 565 669 q 664 520 643 589 q 685 343 685 451 m 575 339 q 562 480 575 426 q 524 563 549 533 q 463 603 499 593 q 381 614 426 614 q 300 603 336 614 q 240 564 264 593 q 202 481 215 535 q 189 342 189 428 q 202 201 189 256 q 240 117 215 147 q 301 77 265 88 q 382 67 336 67 q 464 77 428 67 q 524 117 500 88 q 562 199 549 146 q 575 339 575 253 z "},"œ":{"ha":764,"x_min":13,"x_max":742,"o":"m 324 339 q 316 481 324 426 q 294 565 308 536 q 260 605 281 594 q 215 615 240 615 q 171 605 190 615 q 139 565 151 594 q 119 482 126 536 q 113 342 113 428 q 119 200 113 254 q 140 116 126 146 q 172 76 153 86 q 217 65 190 65 q 261 76 242 65 q 294 115 281 86 q 316 199 308 144 q 324 339 324 253 m 719 15 q 633 -6 679 1 q 544 -14 588 -14 q 428 14 468 -14 q 369 85 389 42 q 310 8 346 36 q 210 -19 275 -19 q 124 -3 161 -19 q 63 52 88 13 q 25 161 38 92 q 13 338 13 231 q 26 515 13 446 q 65 626 39 585 q 129 683 90 667 q 218 700 168 700 q 281 691 254 700 q 326 667 307 682 q 356 631 344 651 q 378 588 368 611 q 401 631 388 611 q 436 666 415 651 q 484 690 457 681 q 547 699 511 699 q 633 684 596 699 q 693 633 669 669 q 729 537 717 597 q 742 382 742 476 q 741 350 742 364 q 740 322 740 336 l 425 322 q 432 197 425 246 q 455 121 439 149 q 497 83 471 93 q 563 72 524 72 q 635 79 601 72 q 706 97 669 86 l 719 15 m 643 397 q 635 506 642 464 q 617 572 629 549 q 585 605 604 596 q 539 614 565 614 q 492 604 513 614 q 456 571 471 594 q 434 505 442 547 q 425 397 426 463 l 643 397 z "},"ø":{"ha":764,"x_min":79,"x_max":685,"o":"m 175 36 q 105 145 131 74 q 79 338 79 217 q 101 515 79 446 q 162 626 122 585 q 258 683 201 667 q 383 700 314 700 q 458 695 425 700 q 517 679 492 690 l 574 786 l 646 753 l 589 644 q 660 533 636 604 q 685 343 685 463 q 663 166 685 236 q 602 55 642 96 q 506 -3 563 14 q 379 -19 450 -19 q 306 -14 339 -19 q 247 0 272 -8 l 185 -117 l 111 -82 l 175 36 m 476 601 q 434 614 457 610 q 381 618 411 618 q 299 608 335 618 q 238 567 263 597 q 199 483 213 538 q 186 342 186 429 q 197 213 186 263 q 225 135 207 163 l 476 601 m 286 79 q 329 67 306 71 q 382 63 353 63 q 465 73 428 63 q 526 113 501 83 q 565 197 551 143 q 578 339 578 251 q 567 464 578 415 q 539 546 557 513 l 286 79 z "},"ò":{"ha":764,"x_min":79,"x_max":685,"o":"m 685 343 q 663 166 685 236 q 602 55 642 96 q 506 -3 563 14 q 379 -19 450 -19 q 253 -3 308 -19 q 159 52 197 13 q 100 161 121 92 q 79 338 79 231 q 101 515 79 446 q 162 626 122 585 q 258 683 201 667 q 383 700 314 700 q 510 685 454 700 q 604 629 565 669 q 664 520 643 589 q 685 343 685 451 m 575 339 q 562 480 575 426 q 524 563 549 533 q 463 603 499 593 q 381 614 426 614 q 300 603 336 614 q 240 564 264 593 q 202 481 215 535 q 189 342 189 428 q 202 201 189 256 q 240 117 215 147 q 301 77 265 88 q 382 67 336 67 q 464 77 428 67 q 524 117 500 88 q 562 199 549 146 q 575 339 575 253 m 289 1040 l 456 844 l 404 792 l 218 969 l 289 1040 z "},"ó":{"ha":764,"x_min":79,"x_max":685,"o":"m 685 343 q 663 166 685 236 q 602 55 642 96 q 506 -3 563 14 q 379 -19 450 -19 q 253 -3 308 -19 q 159 52 197 13 q 100 161 121 92 q 79 338 79 231 q 101 515 79 446 q 162 626 122 585 q 258 683 201 667 q 383 700 314 700 q 510 685 454 700 q 604 629 565 669 q 664 520 643 589 q 685 343 685 451 m 575 339 q 562 480 575 426 q 524 563 549 533 q 463 603 499 593 q 381 614 426 614 q 300 603 336 614 q 240 564 264 593 q 202 481 215 535 q 189 342 189 428 q 202 201 189 256 q 240 117 215 147 q 301 77 265 88 q 382 67 336 67 q 464 77 428 67 q 524 117 500 88 q 562 199 549 146 q 575 339 575 253 m 474 1040 l 544 969 l 358 792 l 307 844 l 474 1040 z "},"ô":{"ha":764,"x_min":79,"x_max":685,"o":"m 685 343 q 663 166 685 236 q 602 55 642 96 q 506 -3 563 14 q 379 -19 450 -19 q 253 -3 308 -19 q 159 52 197 13 q 100 161 121 92 q 79 338 79 231 q 101 515 79 446 q 162 626 122 585 q 258 683 201 667 q 383 700 314 700 q 510 685 454 700 q 604 629 565 669 q 664 520 643 589 q 685 343 685 451 m 575 339 q 562 480 575 426 q 524 563 549 533 q 463 603 499 593 q 381 614 426 614 q 300 603 336 614 q 240 564 264 593 q 202 481 215 535 q 189 342 189 428 q 202 201 189 256 q 240 117 215 147 q 301 77 265 88 q 382 67 336 67 q 464 77 428 67 q 524 117 500 88 q 562 199 549 146 q 575 339 575 253 m 381 1031 l 565 854 l 515 793 l 379 919 l 244 796 l 197 853 l 381 1031 z "},"ö":{"ha":764,"x_min":79,"x_max":685,"o":"m 685 343 q 663 166 685 236 q 602 55 642 96 q 506 -3 563 14 q 379 -19 450 -19 q 253 -3 308 -19 q 159 52 197 13 q 100 161 121 92 q 79 338 79 231 q 101 515 79 446 q 162 626 122 585 q 258 683 201 667 q 383 700 314 700 q 510 685 454 700 q 604 629 565 669 q 664 520 643 589 q 685 343 685 451 m 575 339 q 562 480 575 426 q 524 563 549 533 q 463 603 499 593 q 381 614 426 614 q 300 603 336 614 q 240 564 264 593 q 202 481 215 535 q 189 342 189 428 q 202 201 189 256 q 240 117 215 147 q 301 77 265 88 q 382 67 336 67 q 464 77 428 67 q 524 117 500 88 q 562 199 549 146 q 575 339 575 253 m 315 908 q 312 876 315 890 q 301 855 308 863 q 280 844 293 847 q 246 840 267 840 q 192 855 206 840 q 178 908 178 869 q 192 963 178 947 q 246 978 206 978 q 280 974 267 978 q 301 963 293 971 q 312 941 308 954 q 315 908 315 928 m 585 908 q 571 855 585 869 q 517 840 557 840 q 483 844 496 840 q 462 855 469 847 q 451 876 454 863 q 447 908 447 890 q 451 941 447 928 q 462 963 454 954 q 483 974 469 971 q 517 978 496 978 q 571 963 557 978 q 585 908 585 947 z "},"õ":{"ha":764,"x_min":79,"x_max":685,"o":"m 685 343 q 663 166 685 236 q 602 55 642 96 q 506 -3 563 14 q 379 -19 450 -19 q 253 -3 308 -19 q 159 52 197 13 q 100 161 121 92 q 79 338 79 231 q 101 515 79 446 q 162 626 122 585 q 258 683 201 667 q 383 700 314 700 q 510 685 454 700 q 604 629 565 669 q 664 520 643 589 q 685 343 685 451 m 575 339 q 562 480 575 426 q 524 563 549 533 q 463 603 499 593 q 381 614 426 614 q 300 603 336 614 q 240 564 264 593 q 202 481 215 535 q 189 342 189 428 q 202 201 189 256 q 240 117 215 147 q 301 77 265 88 q 382 67 336 67 q 464 77 428 67 q 524 117 500 88 q 562 199 549 146 q 575 339 575 253 m 171 869 q 192 910 179 890 q 222 946 206 931 q 260 970 239 961 q 306 979 281 979 q 351 968 331 979 q 391 943 372 957 q 426 918 410 929 q 461 907 443 907 q 502 926 486 907 q 531 976 518 946 l 588 938 q 565 896 578 915 q 536 860 553 876 q 499 835 519 844 q 453 826 478 826 q 406 838 426 826 q 367 862 386 849 q 332 887 349 875 q 297 899 315 899 q 256 879 272 899 q 228 831 240 860 l 171 869 z "},"ŏ":{"ha":764,"x_min":79,"x_max":685,"o":"m 685 343 q 663 166 685 236 q 602 55 642 96 q 506 -3 563 14 q 379 -19 450 -19 q 253 -3 308 -19 q 159 52 197 13 q 100 161 121 92 q 79 338 79 231 q 101 515 79 446 q 162 626 122 585 q 258 683 201 667 q 383 700 314 700 q 510 685 454 700 q 604 629 565 669 q 664 520 643 589 q 685 343 685 451 m 575 339 q 562 480 575 426 q 524 563 549 533 q 463 603 499 593 q 381 614 426 614 q 300 603 336 614 q 240 564 264 593 q 202 481 215 535 q 189 342 189 428 q 202 201 189 256 q 240 117 215 147 q 301 77 265 88 q 382 67 336 67 q 464 77 428 67 q 524 117 500 88 q 562 199 549 146 q 575 339 575 253 m 290 992 q 316 917 292 946 q 383 888 340 888 q 450 917 426 888 q 474 992 474 946 l 551 992 q 506 860 551 911 q 379 810 461 810 q 256 860 300 810 q 213 992 213 911 l 290 992 z "},"ō":{"ha":764,"x_min":79,"x_max":685,"o":"m 685 343 q 663 166 685 236 q 602 55 642 96 q 506 -3 563 14 q 379 -19 450 -19 q 253 -3 308 -19 q 159 52 197 13 q 100 161 121 92 q 79 338 79 231 q 101 515 79 446 q 162 626 122 585 q 258 683 201 667 q 383 700 314 700 q 510 685 454 700 q 604 629 565 669 q 664 520 643 589 q 685 343 685 451 m 575 339 q 562 480 575 426 q 524 563 549 533 q 463 603 499 593 q 381 614 426 614 q 300 603 336 614 q 240 564 264 593 q 202 481 215 535 q 189 342 189 428 q 202 201 189 256 q 240 117 215 147 q 301 77 265 88 q 382 67 336 67 q 464 77 428 67 q 524 117 500 88 q 562 199 549 146 q 575 339 575 253 m 201 944 l 561 944 l 561 863 l 201 863 l 201 944 z "},"ǒ":{"ha":764,"x_min":79,"x_max":685,"o":"m 685 343 q 663 166 685 236 q 602 55 642 96 q 506 -3 563 14 q 379 -19 450 -19 q 253 -3 308 -19 q 159 52 197 13 q 100 161 121 92 q 79 338 79 231 q 101 515 79 446 q 162 626 122 585 q 258 683 201 667 q 383 700 314 700 q 510 685 454 700 q 604 629 565 669 q 664 520 643 589 q 685 343 685 451 m 575 339 q 562 480 575 426 q 524 563 549 533 q 463 603 499 593 q 381 614 426 614 q 300 603 336 614 q 240 564 264 593 q 202 481 215 535 q 189 342 189 428 q 202 201 189 256 q 240 117 215 147 q 301 77 265 88 q 382 67 336 67 q 464 77 428 67 q 524 117 500 88 q 562 199 549 146 q 575 339 575 253 m 247 1024 l 383 897 l 518 1022 l 565 965 l 381 786 l 197 964 l 247 1024 z "},"ȯ":{"ha":764,"x_min":79,"x_max":685,"o":"m 685 343 q 663 166 685 236 q 602 55 642 96 q 506 -3 563 14 q 379 -19 450 -19 q 253 -3 308 -19 q 159 52 197 13 q 100 161 121 92 q 79 338 79 231 q 101 515 79 446 q 162 626 122 585 q 258 683 201 667 q 383 700 314 700 q 510 685 454 700 q 604 629 565 669 q 664 520 643 589 q 685 343 685 451 m 575 339 q 562 480 575 426 q 524 563 549 533 q 463 603 499 593 q 381 614 426 614 q 300 603 336 614 q 240 564 264 593 q 202 481 215 535 q 189 342 189 428 q 202 201 189 256 q 240 117 215 147 q 301 77 265 88 q 382 67 336 67 q 464 77 428 67 q 524 117 500 88 q 562 199 549 146 q 575 339 575 253 m 449 908 q 434 855 449 869 q 378 840 419 840 q 322 855 336 840 q 307 908 307 869 q 322 963 307 947 q 378 978 336 978 q 434 963 419 978 q 449 908 449 947 z "},"ő":{"ha":764,"x_min":79,"x_max":685,"o":"m 685 343 q 663 166 685 236 q 602 55 642 96 q 506 -3 563 14 q 379 -19 450 -19 q 253 -3 308 -19 q 159 52 197 13 q 100 161 121 92 q 79 338 79 231 q 101 515 79 446 q 162 626 122 585 q 258 683 201 667 q 383 700 314 700 q 510 685 454 700 q 604 629 565 669 q 664 520 643 589 q 685 343 685 451 m 575 339 q 562 480 575 426 q 524 563 549 533 q 463 603 499 593 q 381 614 426 614 q 300 603 336 614 q 240 564 264 593 q 202 481 215 535 q 189 342 189 428 q 202 201 189 256 q 240 117 215 147 q 301 77 265 88 q 382 67 336 67 q 464 77 428 67 q 524 117 500 88 q 562 199 549 146 q 575 339 575 253 m 372 1042 l 446 989 l 279 790 l 224 831 l 372 1042 m 601 1031 l 672 972 l 489 789 l 435 833 l 601 1031 z "},"ǿ":{"ha":764,"x_min":79,"x_max":685,"o":"m 479 1040 l 550 969 l 364 792 l 313 844 l 479 1040 m 175 36 q 105 145 131 74 q 79 338 79 217 q 101 515 79 446 q 162 626 122 585 q 258 683 201 667 q 383 700 314 700 q 458 695 425 700 q 517 679 492 690 l 574 786 l 646 753 l 589 644 q 660 533 636 604 q 685 343 685 463 q 663 166 685 236 q 602 55 642 96 q 506 -3 563 14 q 379 -19 450 -19 q 306 -14 339 -19 q 247 0 272 -8 l 185 -117 l 111 -82 l 175 36 m 476 601 q 434 614 457 610 q 381 618 411 618 q 299 608 335 618 q 238 567 263 597 q 199 483 213 538 q 186 342 186 429 q 197 213 186 263 q 225 135 207 163 l 476 601 m 286 79 q 329 67 306 71 q 382 63 353 63 q 465 73 428 63 q 526 113 501 83 q 565 197 551 143 q 578 339 578 251 q 567 464 578 415 q 539 546 557 513 l 286 79 z "},"p":{"ha":764,"x_min":111,"x_max":689,"o":"m 111 681 l 200 681 l 208 608 q 323 670 265 646 q 443 694 381 694 q 546 678 500 694 q 623 622 592 661 q 672 515 654 582 q 689 347 689 449 q 665 176 689 246 q 599 65 640 107 q 505 5 558 24 q 393 -14 451 -14 q 299 -1 343 -14 q 215 33 256 13 l 214 32 q 218 -51 217 -11 q 219 -131 219 -92 l 219 -297 l 111 -297 l 111 681 m 219 122 q 299 85 263 99 q 382 72 336 72 q 456 85 419 72 q 519 128 492 97 q 564 210 547 158 q 581 343 581 263 q 569 475 581 424 q 536 556 557 526 q 485 595 515 585 q 417 606 454 606 q 324 585 369 606 q 219 526 278 565 l 219 122 z "},"þ":{"ha":764,"x_min":111,"x_max":689,"o":"m 111 1025 l 219 1025 l 219 781 q 218 701 219 742 q 214 615 217 661 l 215 614 q 325 671 268 647 q 443 694 382 694 q 546 678 500 694 q 623 622 592 661 q 672 515 654 582 q 689 347 689 449 q 665 176 689 246 q 599 65 640 107 q 505 5 558 24 q 393 -14 451 -14 q 299 -1 343 -14 q 215 33 256 13 l 214 32 q 218 -51 217 -11 q 219 -131 219 -92 l 219 -297 l 111 -297 l 111 1025 m 219 122 q 299 85 263 99 q 382 72 336 72 q 456 85 419 72 q 519 128 492 97 q 564 210 547 158 q 581 343 581 263 q 569 475 581 424 q 536 556 557 526 q 485 595 515 585 q 417 606 454 606 q 324 585 369 606 q 219 526 278 565 l 219 122 z "},"q":{"ha":764,"x_min":75,"x_max":653,"o":"m 653 -297 l 544 -297 l 544 -100 q 546 -22 544 -62 q 550 65 547 19 l 549 67 q 439 10 496 33 q 321 -14 382 -14 q 218 3 264 -14 q 141 59 172 19 q 92 165 110 99 q 75 333 75 232 q 99 504 75 435 q 165 615 124 574 q 259 676 206 657 q 371 694 313 694 q 470 681 425 694 q 558 642 515 667 l 564 681 l 653 681 l 653 -297 m 544 560 q 465 595 501 582 q 382 608 428 608 q 308 597 344 608 q 244 554 272 585 q 200 471 217 524 q 183 338 183 418 q 195 206 183 257 q 228 126 207 154 q 278 86 249 97 q 347 75 308 75 q 440 95 394 75 q 544 154 486 115 l 544 560 z "},"r":{"ha":764,"x_min":78,"x_max":722,"o":"m 368 589 q 483 670 429 640 q 599 700 538 700 q 664 694 635 700 q 722 674 693 688 l 699 569 q 645 593 674 585 q 579 601 617 601 q 533 595 556 601 q 487 576 511 589 q 436 546 463 564 q 376 503 410 528 l 376 83 l 610 83 l 610 0 l 78 0 l 78 83 l 268 83 l 268 597 l 86 597 l 86 681 l 360 681 l 368 589 z "},"ŕ":{"ha":764,"x_min":78,"x_max":722,"o":"m 368 589 q 483 670 429 640 q 599 700 538 700 q 664 694 635 700 q 722 674 693 688 l 699 569 q 645 593 674 585 q 579 601 617 601 q 533 595 556 601 q 487 576 511 589 q 436 546 463 564 q 376 503 410 528 l 376 83 l 610 83 l 610 0 l 78 0 l 78 83 l 268 83 l 268 597 l 86 597 l 86 681 l 360 681 l 368 589 m 479 1040 l 550 969 l 364 792 l 313 844 l 479 1040 z "},"ř":{"ha":764,"x_min":78,"x_max":722,"o":"m 368 589 q 483 670 429 640 q 599 700 538 700 q 664 694 635 700 q 722 674 693 688 l 699 569 q 645 593 674 585 q 579 601 617 601 q 533 595 556 601 q 487 576 511 589 q 436 546 463 564 q 376 503 410 528 l 376 83 l 610 83 l 610 0 l 78 0 l 78 83 l 268 83 l 268 597 l 86 597 l 86 681 l 360 681 l 368 589 m 247 1024 l 383 897 l 518 1022 l 565 965 l 381 786 l 197 964 l 247 1024 z "},"ŗ":{"ha":764,"x_min":78,"x_max":722,"o":"m 368 589 q 483 670 429 640 q 599 700 538 700 q 664 694 635 700 q 722 674 693 688 l 699 569 q 645 593 674 585 q 579 601 617 601 q 533 595 556 601 q 487 576 511 589 q 436 546 463 564 q 376 503 410 528 l 376 83 l 610 83 l 610 0 l 78 0 l 78 83 l 268 83 l 268 597 l 86 597 l 86 681 l 360 681 l 368 589 m 110 -254 q 145 -237 125 -247 q 185 -217 165 -228 q 224 -196 206 -206 q 256 -178 243 -186 q 254 -164 254 -169 q 254 -154 254 -158 q 269 -114 254 -125 q 315 -103 285 -103 q 363 -117 350 -103 q 376 -168 376 -132 q 371 -199 376 -186 q 349 -222 365 -211 q 306 -244 333 -233 q 233 -268 278 -254 q 177 -287 204 -279 q 125 -304 150 -296 l 110 -254 z "},"s":{"ha":764,"x_min":121,"x_max":660,"o":"m 132 96 q 243 76 186 83 q 354 68 300 68 q 450 76 413 68 q 511 99 488 85 q 544 135 535 114 q 554 179 554 156 q 546 223 554 206 q 515 253 538 240 q 455 279 493 267 q 356 308 417 292 q 249 342 293 326 q 178 380 206 358 q 137 431 150 401 q 124 504 124 461 q 197 646 124 597 q 414 694 271 694 q 465 692 439 694 q 516 688 490 690 q 566 680 542 685 q 613 669 590 675 l 599 589 q 505 606 553 600 q 408 613 457 613 q 269 587 310 613 q 228 511 228 561 q 236 472 228 488 q 266 444 244 457 q 324 419 288 431 q 418 392 360 407 q 529 357 483 374 q 604 318 575 340 q 647 265 633 296 q 660 186 660 233 q 586 40 660 93 q 347 -14 513 -14 q 231 -7 288 -14 q 121 14 175 0 l 132 96 z "},"ş":{"ha":764,"x_min":121,"x_max":660,"o":"m 132 96 q 243 76 186 83 q 354 68 300 68 q 450 76 413 68 q 511 99 488 85 q 544 135 535 114 q 554 179 554 156 q 546 223 554 206 q 515 253 538 240 q 455 279 493 267 q 356 308 417 292 q 249 342 293 326 q 178 380 206 358 q 137 431 150 401 q 124 504 124 461 q 197 646 124 597 q 414 694 271 694 q 465 692 439 694 q 516 688 490 690 q 566 680 542 685 q 613 669 590 675 l 599 589 q 505 606 553 600 q 408 613 457 613 q 269 587 310 613 q 228 511 228 561 q 236 472 228 488 q 266 444 244 457 q 324 419 288 431 q 418 392 360 407 q 529 357 483 374 q 604 318 575 340 q 647 265 633 296 q 660 186 660 233 q 592 44 660 93 q 392 -11 524 -6 l 383 -75 q 482 -103 449 -78 q 515 -181 515 -128 q 472 -273 515 -239 q 350 -307 429 -307 q 257 -297 299 -307 l 265 -237 q 305 -244 286 -242 q 344 -246 324 -246 q 409 -230 389 -246 q 429 -185 429 -214 q 410 -143 429 -157 q 342 -129 392 -129 l 306 -129 l 318 -12 q 219 -5 269 -11 q 121 14 168 1 l 132 96 z "},"ß":{"ha":764,"x_min":108,"x_max":731,"o":"m 108 793 q 176 985 108 926 q 381 1044 243 1044 q 560 998 503 1044 q 618 869 618 951 q 612 817 618 840 q 593 772 606 793 q 563 728 581 750 q 524 683 546 707 q 490 647 506 664 q 462 613 474 629 q 444 578 450 596 q 438 542 438 561 q 444 506 438 521 q 464 476 450 490 q 503 444 478 461 q 565 406 528 428 q 642 355 611 378 q 693 308 674 332 q 722 256 713 285 q 731 189 731 228 q 665 41 731 94 q 476 -12 600 -12 q 392 -8 433 -12 q 314 8 351 -3 l 326 89 q 399 74 364 79 q 471 69 435 69 q 587 101 550 69 q 624 183 624 133 q 619 223 624 206 q 598 257 614 240 q 555 292 582 274 q 485 336 528 311 q 415 380 443 360 q 367 421 386 400 q 340 466 349 442 q 331 522 331 490 q 359 619 331 576 q 431 710 388 661 q 466 749 450 732 q 492 784 482 767 q 507 819 501 801 q 513 858 513 836 q 478 931 513 904 q 374 958 443 958 q 256 924 293 958 q 218 801 218 890 l 218 0 l 108 0 l 108 793 z "},"ś":{"ha":764,"x_min":121,"x_max":660,"o":"m 132 96 q 243 76 186 83 q 354 68 300 68 q 450 76 413 68 q 511 99 488 85 q 544 135 535 114 q 554 179 554 156 q 546 223 554 206 q 515 253 538 240 q 455 279 493 267 q 356 308 417 292 q 249 342 293 326 q 178 380 206 358 q 137 431 150 401 q 124 504 124 461 q 197 646 124 597 q 414 694 271 694 q 465 692 439 694 q 516 688 490 690 q 566 680 542 685 q 613 669 590 675 l 599 589 q 505 606 553 600 q 408 613 457 613 q 269 587 310 613 q 228 511 228 561 q 236 472 228 488 q 266 444 244 457 q 324 419 288 431 q 418 392 360 407 q 529 357 483 374 q 604 318 575 340 q 647 265 633 296 q 660 186 660 233 q 586 40 660 93 q 347 -14 513 -14 q 231 -7 288 -14 q 121 14 175 0 l 132 96 m 482 1040 l 553 969 l 367 792 l 315 844 l 482 1040 z "},"ŝ":{"ha":764,"x_min":121,"x_max":660,"o":"m 132 96 q 243 76 186 83 q 354 68 300 68 q 450 76 413 68 q 511 99 488 85 q 544 135 535 114 q 554 179 554 156 q 546 223 554 206 q 515 253 538 240 q 455 279 493 267 q 356 308 417 292 q 249 342 293 326 q 178 380 206 358 q 137 431 150 401 q 124 504 124 461 q 197 646 124 597 q 414 694 271 694 q 465 692 439 694 q 516 688 490 690 q 566 680 542 685 q 613 669 590 675 l 599 589 q 505 606 553 600 q 408 613 457 613 q 269 587 310 613 q 228 511 228 561 q 236 472 228 488 q 266 444 244 457 q 324 419 288 431 q 418 392 360 407 q 529 357 483 374 q 604 318 575 340 q 647 265 633 296 q 660 186 660 233 q 586 40 660 93 q 347 -14 513 -14 q 231 -7 288 -14 q 121 14 175 0 l 132 96 m 399 1031 l 583 854 l 533 793 l 397 919 l 263 796 l 215 853 l 399 1031 z "},"š":{"ha":764,"x_min":121,"x_max":660,"o":"m 132 96 q 243 76 186 83 q 354 68 300 68 q 450 76 413 68 q 511 99 488 85 q 544 135 535 114 q 554 179 554 156 q 546 223 554 206 q 515 253 538 240 q 455 279 493 267 q 356 308 417 292 q 249 342 293 326 q 178 380 206 358 q 137 431 150 401 q 124 504 124 461 q 197 646 124 597 q 414 694 271 694 q 465 692 439 694 q 516 688 490 690 q 566 680 542 685 q 613 669 590 675 l 599 589 q 505 606 553 600 q 408 613 457 613 q 269 587 310 613 q 228 511 228 561 q 236 472 228 488 q 266 444 244 457 q 324 419 288 431 q 418 392 360 407 q 529 357 483 374 q 604 318 575 340 q 647 265 633 296 q 660 186 660 233 q 586 40 660 93 q 347 -14 513 -14 q 231 -7 288 -14 q 121 14 175 0 l 132 96 m 261 1024 l 397 897 l 532 1022 l 579 965 l 394 786 l 211 964 l 261 1024 z "},"ș":{"ha":764,"x_min":121,"x_max":660,"o":"m 132 96 q 243 76 186 83 q 354 68 300 68 q 450 76 413 68 q 511 99 488 85 q 544 135 535 114 q 554 179 554 156 q 546 223 554 206 q 515 253 538 240 q 455 279 493 267 q 356 308 417 292 q 249 342 293 326 q 178 380 206 358 q 137 431 150 401 q 124 504 124 461 q 197 646 124 597 q 414 694 271 694 q 465 692 439 694 q 516 688 490 690 q 566 680 542 685 q 613 669 590 675 l 599 589 q 505 606 553 600 q 408 613 457 613 q 269 587 310 613 q 228 511 228 561 q 236 472 228 488 q 266 444 244 457 q 324 419 288 431 q 418 392 360 407 q 529 357 483 374 q 604 318 575 340 q 647 265 633 296 q 660 186 660 233 q 586 40 660 93 q 347 -14 513 -14 q 231 -7 288 -14 q 121 14 175 0 l 132 96 m 175 -254 q 210 -237 190 -247 q 251 -217 231 -228 q 290 -196 271 -206 q 321 -178 308 -186 q 319 -164 319 -169 q 319 -154 319 -158 q 335 -114 319 -125 q 381 -103 350 -103 q 428 -117 415 -103 q 442 -168 442 -132 q 436 -199 442 -186 q 415 -222 431 -211 q 371 -244 399 -233 q 299 -268 343 -254 q 242 -287 269 -279 q 190 -304 215 -296 l 175 -254 z "},"t":{"ha":764,"x_min":63,"x_max":693,"o":"m 257 681 l 257 910 l 367 926 l 367 681 l 685 681 l 685 597 l 367 597 l 367 217 q 374 152 367 179 q 399 108 381 125 q 449 82 418 90 q 528 74 481 74 q 622 83 582 74 q 682 99 661 92 l 693 18 q 619 -1 667 10 q 504 -11 571 -11 q 388 1 435 -11 q 311 38 340 13 q 269 101 282 64 q 257 190 257 139 l 257 597 l 63 597 l 63 681 l 257 681 z "},"ŧ":{"ha":764,"x_min":65,"x_max":694,"o":"m 260 681 l 260 910 l 368 926 l 368 681 l 686 681 l 686 597 l 368 597 l 368 449 l 668 449 l 668 367 l 368 367 l 368 207 q 376 149 368 174 q 401 106 383 124 q 451 81 419 89 q 529 74 482 74 q 624 83 585 74 q 685 99 663 92 l 694 18 q 620 -1 668 10 q 506 -11 572 -11 q 389 1 436 -11 q 313 38 342 13 q 272 101 285 64 q 260 190 260 139 l 260 367 l 83 367 l 83 449 l 260 449 l 260 597 l 65 597 l 65 681 l 260 681 z "},"ť":{"ha":764,"x_min":63,"x_max":690,"o":"m 250 681 l 250 910 l 358 926 l 358 681 l 678 681 l 678 597 l 358 597 l 358 217 q 366 152 358 179 q 392 108 374 125 q 442 82 411 90 q 519 74 472 74 q 614 83 575 74 q 675 99 653 92 l 685 18 q 611 -1 658 10 q 497 -11 564 -11 q 379 1 426 -11 q 303 38 332 13 q 263 101 275 64 q 250 190 250 139 l 250 597 l 63 597 l 63 681 l 250 681 m 594 1099 l 690 1075 l 586 811 l 515 829 l 594 1099 z "},"ț":{"ha":764,"x_min":63,"x_max":693,"o":"m 257 681 l 257 910 l 367 926 l 367 681 l 685 681 l 685 597 l 367 597 l 367 217 q 374 152 367 179 q 399 108 381 125 q 449 82 418 90 q 528 74 481 74 q 622 83 582 74 q 682 99 661 92 l 693 18 q 619 -1 667 10 q 504 -11 571 -11 q 388 1 435 -11 q 311 38 340 13 q 269 101 282 64 q 257 190 257 139 l 257 597 l 63 597 l 63 681 l 257 681 m 229 -254 q 265 -237 244 -247 q 305 -217 285 -228 q 344 -196 325 -206 q 375 -178 363 -186 q 374 -164 374 -169 q 374 -154 374 -158 q 389 -114 374 -125 q 435 -103 404 -103 q 483 -117 469 -103 q 496 -168 496 -132 q 490 -199 496 -186 q 469 -222 485 -211 q 425 -244 453 -233 q 353 -268 397 -254 q 297 -287 324 -279 q 244 -304 269 -296 l 229 -254 z "},"ţ":{"ha":764,"x_min":63,"x_max":693,"o":"m 257 681 l 257 910 l 367 926 l 367 681 l 685 681 l 685 597 l 367 597 l 367 217 q 374 152 367 179 q 399 108 381 125 q 449 82 418 90 q 528 74 481 74 q 622 83 582 74 q 682 99 661 92 l 693 18 q 620 -1 668 10 q 507 -11 572 -11 l 496 -11 l 489 -75 q 586 -103 553 -78 q 619 -181 619 -128 q 576 -273 619 -239 q 454 -307 533 -307 q 361 -297 404 -307 l 369 -237 q 408 -244 389 -242 q 449 -246 428 -246 q 513 -230 493 -246 q 533 -185 533 -214 q 514 -143 533 -157 q 444 -129 494 -129 l 410 -129 l 424 -6 q 353 13 383 0 q 301 49 322 26 q 269 106 281 72 q 257 190 257 140 l 257 597 l 63 597 l 63 681 l 257 681 z "},"u":{"ha":764,"x_min":107,"x_max":653,"o":"m 215 681 l 215 229 q 249 109 215 143 q 338 75 283 75 q 440 96 388 75 q 544 157 492 117 l 544 681 l 653 681 l 653 0 l 564 0 l 556 74 q 498 38 528 54 q 438 10 468 22 q 375 -8 407 -1 q 308 -14 343 -14 q 160 39 213 -14 q 107 211 107 92 l 107 681 l 215 681 z "},"ų":{"ha":764,"x_min":107,"x_max":679,"o":"m 215 681 l 215 229 q 249 109 215 143 q 338 75 283 75 q 440 96 388 75 q 544 157 492 117 l 544 681 l 653 681 l 653 0 q 599 -40 625 -19 q 554 -81 574 -60 q 523 -126 535 -103 q 511 -171 511 -149 q 526 -219 511 -203 q 579 -235 542 -235 q 622 -231 599 -235 q 667 -221 644 -228 l 679 -290 q 620 -303 650 -299 q 557 -308 590 -308 q 453 -281 490 -308 q 417 -190 417 -253 q 429 -133 417 -160 q 462 -81 442 -106 q 508 -36 482 -57 q 564 4 535 -15 l 556 74 q 498 38 528 54 q 438 10 468 22 q 375 -8 407 -1 q 308 -14 343 -14 q 160 39 213 -14 q 107 211 107 92 l 107 681 l 215 681 z "},"ù":{"ha":764,"x_min":107,"x_max":653,"o":"m 215 681 l 215 229 q 249 109 215 143 q 338 75 283 75 q 440 96 388 75 q 544 157 492 117 l 544 681 l 653 681 l 653 0 l 564 0 l 556 74 q 498 38 528 54 q 438 10 468 22 q 375 -8 407 -1 q 308 -14 343 -14 q 160 39 213 -14 q 107 211 107 92 l 107 681 l 215 681 m 272 1040 l 439 844 l 388 792 l 201 969 l 272 1040 z "},"ú":{"ha":764,"x_min":107,"x_max":653,"o":"m 215 681 l 215 229 q 249 109 215 143 q 338 75 283 75 q 440 96 388 75 q 544 157 492 117 l 544 681 l 653 681 l 653 0 l 564 0 l 556 74 q 498 38 528 54 q 438 10 468 22 q 375 -8 407 -1 q 308 -14 343 -14 q 160 39 213 -14 q 107 211 107 92 l 107 681 l 215 681 m 488 1040 l 558 969 l 372 792 l 321 844 l 488 1040 z "},"û":{"ha":764,"x_min":107,"x_max":653,"o":"m 215 681 l 215 229 q 249 109 215 143 q 338 75 283 75 q 440 96 388 75 q 544 157 492 117 l 544 681 l 653 681 l 653 0 l 564 0 l 556 74 q 498 38 528 54 q 438 10 468 22 q 375 -8 407 -1 q 308 -14 343 -14 q 160 39 213 -14 q 107 211 107 92 l 107 681 l 215 681 m 382 1031 l 567 854 l 517 793 l 381 919 l 246 796 l 199 853 l 382 1031 z "},"ü":{"ha":764,"x_min":107,"x_max":653,"o":"m 215 681 l 215 229 q 249 109 215 143 q 338 75 283 75 q 440 96 388 75 q 544 157 492 117 l 544 681 l 653 681 l 653 0 l 564 0 l 556 74 q 498 38 528 54 q 438 10 468 22 q 375 -8 407 -1 q 308 -14 343 -14 q 160 39 213 -14 q 107 211 107 92 l 107 681 l 215 681 m 317 908 q 313 876 317 890 q 302 855 310 863 q 281 844 294 847 q 247 840 268 840 q 193 855 207 840 q 179 908 179 869 q 193 963 179 947 q 247 978 207 978 q 281 974 268 978 q 302 963 294 971 q 313 941 310 954 q 317 908 317 928 m 586 908 q 572 855 586 869 q 518 840 558 840 q 484 844 497 840 q 463 855 471 847 q 452 876 456 863 q 449 908 449 890 q 452 941 449 928 q 463 963 456 954 q 484 974 471 971 q 518 978 497 978 q 572 963 558 978 q 586 908 586 947 z "},"ũ":{"ha":764,"x_min":107,"x_max":653,"o":"m 215 681 l 215 229 q 249 109 215 143 q 338 75 283 75 q 440 96 388 75 q 544 157 492 117 l 544 681 l 653 681 l 653 0 l 564 0 l 556 74 q 498 38 528 54 q 438 10 468 22 q 375 -8 407 -1 q 308 -14 343 -14 q 160 39 213 -14 q 107 211 107 92 l 107 681 l 215 681 m 171 869 q 192 910 179 890 q 222 946 206 931 q 260 970 239 961 q 306 979 281 979 q 351 968 331 979 q 391 943 372 957 q 426 918 410 929 q 461 907 443 907 q 502 926 486 907 q 531 976 518 946 l 588 938 q 565 896 578 915 q 536 860 553 876 q 499 835 519 844 q 453 826 478 826 q 406 838 426 826 q 367 862 386 849 q 332 887 349 875 q 297 899 315 899 q 256 879 272 899 q 228 831 240 860 l 171 869 z "},"ŭ":{"ha":764,"x_min":107,"x_max":653,"o":"m 215 681 l 215 229 q 249 109 215 143 q 338 75 283 75 q 440 96 388 75 q 544 157 492 117 l 544 681 l 653 681 l 653 0 l 564 0 l 556 74 q 498 38 528 54 q 438 10 468 22 q 375 -8 407 -1 q 308 -14 343 -14 q 160 39 213 -14 q 107 211 107 92 l 107 681 l 215 681 m 292 992 q 317 917 293 946 q 385 888 342 888 q 451 917 428 888 q 475 992 475 946 l 553 992 q 508 860 553 911 q 381 810 463 810 q 258 860 301 810 q 214 992 214 911 l 292 992 z "},"ū":{"ha":764,"x_min":107,"x_max":653,"o":"m 215 681 l 215 229 q 249 109 215 143 q 338 75 283 75 q 440 96 388 75 q 544 157 492 117 l 544 681 l 653 681 l 653 0 l 564 0 l 556 74 q 498 38 528 54 q 438 10 468 22 q 375 -8 407 -1 q 308 -14 343 -14 q 160 39 213 -14 q 107 211 107 92 l 107 681 l 215 681 m 203 944 l 563 944 l 563 863 l 203 863 l 203 944 z "},"ǔ":{"ha":764,"x_min":107,"x_max":653,"o":"m 215 681 l 215 229 q 249 109 215 143 q 338 75 283 75 q 440 96 388 75 q 544 157 492 117 l 544 681 l 653 681 l 653 0 l 564 0 l 556 74 q 498 38 528 54 q 438 10 468 22 q 375 -8 407 -1 q 308 -14 343 -14 q 160 39 213 -14 q 107 211 107 92 l 107 681 l 215 681 m 249 1024 l 385 897 l 519 1022 l 567 965 l 382 786 l 199 964 l 249 1024 z "},"ů":{"ha":764,"x_min":107,"x_max":653,"o":"m 215 681 l 215 229 q 249 109 215 143 q 338 75 283 75 q 440 96 388 75 q 544 157 492 117 l 544 681 l 653 681 l 653 0 l 564 0 l 556 74 q 498 38 528 54 q 438 10 468 22 q 375 -8 407 -1 q 308 -14 343 -14 q 160 39 213 -14 q 107 211 107 92 l 107 681 l 215 681 m 525 915 q 515 857 525 883 q 485 812 504 831 q 441 783 467 793 q 385 772 415 772 q 283 812 322 772 q 244 915 244 851 q 284 1018 244 978 q 385 1058 324 1058 q 442 1048 415 1058 q 486 1018 468 1038 q 515 972 504 999 q 525 915 525 946 m 454 915 q 436 974 454 951 q 385 996 418 996 q 333 974 351 996 q 315 915 315 951 q 333 856 315 878 q 385 833 351 833 q 436 856 418 833 q 454 915 454 878 z "},"ű":{"ha":764,"x_min":107,"x_max":683,"o":"m 215 681 l 215 229 q 249 109 215 143 q 338 75 283 75 q 440 96 388 75 q 544 157 492 117 l 544 681 l 653 681 l 653 0 l 564 0 l 556 74 q 498 38 528 54 q 438 10 468 22 q 375 -8 407 -1 q 308 -14 343 -14 q 160 39 213 -14 q 107 211 107 92 l 107 681 l 215 681 m 383 1042 l 457 989 l 290 790 l 235 831 l 383 1042 m 613 1031 l 683 972 l 500 789 l 446 833 l 613 1031 z "},"v":{"ha":764,"x_min":43,"x_max":721,"o":"m 43 681 l 156 681 l 301 308 q 324 247 314 275 q 344 192 335 219 q 363 138 353 165 q 383 76 372 110 l 385 76 q 406 138 396 110 q 424 194 415 167 q 444 249 433 221 q 467 308 454 276 l 613 681 l 721 681 l 456 0 l 307 0 l 43 681 z "},"w":{"ha":764,"x_min":10,"x_max":754,"o":"m 10 681 l 115 681 l 186 282 q 203 184 196 231 q 215 85 210 138 l 219 85 q 233 147 226 119 q 246 208 239 175 l 319 532 l 447 532 l 521 208 q 535 150 529 178 q 547 85 540 122 l 551 85 q 565 184 558 138 q 581 282 571 231 l 651 681 l 754 681 l 624 0 l 482 0 l 408 324 q 396 380 403 351 q 383 442 389 408 l 379 442 q 368 383 374 410 q 356 324 363 356 l 282 0 l 140 0 l 10 681 z "},"ŵ":{"ha":764,"x_min":10,"x_max":754,"o":"m 10 681 l 115 681 l 186 282 q 203 184 196 231 q 215 85 210 138 l 219 85 q 233 147 226 119 q 246 208 239 175 l 319 532 l 447 532 l 521 208 q 535 150 529 178 q 547 85 540 122 l 551 85 q 565 184 558 138 q 581 282 571 231 l 651 681 l 754 681 l 624 0 l 482 0 l 408 324 q 396 380 403 351 q 383 442 389 408 l 379 442 q 368 383 374 410 q 356 324 363 356 l 282 0 l 140 0 l 10 681 m 381 1031 l 565 854 l 515 793 l 379 919 l 244 796 l 197 853 l 381 1031 z "},"x":{"ha":764,"x_min":46,"x_max":718,"o":"m 304 349 l 54 681 l 183 681 l 388 410 l 390 407 q 417 449 404 429 q 447 490 431 468 l 589 681 l 708 681 l 453 347 l 718 0 l 588 0 l 371 289 l 368 292 q 340 247 354 268 q 308 203 325 226 l 165 0 l 46 0 l 304 349 z "},"y":{"ha":764,"x_min":43,"x_max":721,"o":"m 43 681 l 160 681 l 301 321 q 324 260 314 289 q 344 205 335 232 q 363 150 353 178 q 382 90 372 122 l 385 90 q 404 152 394 124 q 423 208 414 181 q 442 263 432 235 q 465 321 453 290 l 607 681 l 721 681 l 407 -99 q 356 -203 382 -162 q 299 -267 329 -243 q 232 -301 268 -292 q 150 -310 196 -310 q 96 -307 121 -310 q 50 -299 71 -304 l 60 -215 q 103 -222 81 -219 q 144 -225 125 -225 q 191 -220 169 -225 q 232 -201 213 -215 q 269 -162 251 -187 q 304 -94 286 -136 l 344 0 l 310 0 l 43 681 z "},"ý":{"ha":764,"x_min":43,"x_max":721,"o":"m 43 681 l 160 681 l 301 321 q 324 260 314 289 q 344 205 335 232 q 363 150 353 178 q 382 90 372 122 l 385 90 q 404 152 394 124 q 423 208 414 181 q 442 263 432 235 q 465 321 453 290 l 607 681 l 721 681 l 407 -99 q 356 -203 382 -162 q 299 -267 329 -243 q 232 -301 268 -292 q 150 -310 196 -310 q 96 -307 121 -310 q 50 -299 71 -304 l 60 -215 q 103 -222 81 -219 q 144 -225 125 -225 q 191 -220 169 -225 q 232 -201 213 -215 q 269 -162 251 -187 q 304 -94 286 -136 l 344 0 l 310 0 l 43 681 m 493 1040 l 564 969 l 378 792 l 326 844 l 493 1040 z "},"ŷ":{"ha":764,"x_min":43,"x_max":721,"o":"m 43 681 l 160 681 l 301 321 q 324 260 314 289 q 344 205 335 232 q 363 150 353 178 q 382 90 372 122 l 385 90 q 404 152 394 124 q 423 208 414 181 q 442 263 432 235 q 465 321 453 290 l 607 681 l 721 681 l 407 -99 q 356 -203 382 -162 q 299 -267 329 -243 q 232 -301 268 -292 q 150 -310 196 -310 q 96 -307 121 -310 q 50 -299 71 -304 l 60 -215 q 103 -222 81 -219 q 144 -225 125 -225 q 191 -220 169 -225 q 232 -201 213 -215 q 269 -162 251 -187 q 304 -94 286 -136 l 344 0 l 310 0 l 43 681 m 382 1031 l 567 854 l 517 793 l 381 919 l 246 796 l 199 853 l 382 1031 z "},"ÿ":{"ha":764,"x_min":43,"x_max":721,"o":"m 43 681 l 160 681 l 301 321 q 324 260 314 289 q 344 205 335 232 q 363 150 353 178 q 382 90 372 122 l 385 90 q 404 152 394 124 q 423 208 414 181 q 442 263 432 235 q 465 321 453 290 l 607 681 l 721 681 l 407 -99 q 356 -203 382 -162 q 299 -267 329 -243 q 232 -301 268 -292 q 150 -310 196 -310 q 96 -307 121 -310 q 50 -299 71 -304 l 60 -215 q 103 -222 81 -219 q 144 -225 125 -225 q 191 -220 169 -225 q 232 -201 213 -215 q 269 -162 251 -187 q 304 -94 286 -136 l 344 0 l 310 0 l 43 681 m 317 908 q 313 876 317 890 q 302 855 310 863 q 281 844 294 847 q 247 840 268 840 q 193 855 207 840 q 179 908 179 869 q 193 963 179 947 q 247 978 207 978 q 281 974 268 978 q 302 963 294 971 q 313 941 310 954 q 317 908 317 928 m 586 908 q 572 855 586 869 q 518 840 558 840 q 484 844 497 840 q 463 855 471 847 q 452 876 456 863 q 449 908 449 890 q 452 941 449 928 q 463 963 456 954 q 484 974 471 971 q 518 978 497 978 q 572 963 558 978 q 586 908 586 947 z "},"ȳ":{"ha":764,"x_min":43,"x_max":721,"o":"m 43 681 l 160 681 l 301 321 q 324 260 314 289 q 344 205 335 232 q 363 150 353 178 q 382 90 372 122 l 385 90 q 404 152 394 124 q 423 208 414 181 q 442 263 432 235 q 465 321 453 290 l 607 681 l 721 681 l 407 -99 q 356 -203 382 -162 q 299 -267 329 -243 q 232 -301 268 -292 q 150 -310 196 -310 q 96 -307 121 -310 q 50 -299 71 -304 l 60 -215 q 103 -222 81 -219 q 144 -225 125 -225 q 191 -220 169 -225 q 232 -201 213 -215 q 269 -162 251 -187 q 304 -94 286 -136 l 344 0 l 310 0 l 43 681 m 203 944 l 563 944 l 563 863 l 203 863 l 203 944 z "},"z":{"ha":764,"x_min":90,"x_max":671,"o":"m 90 63 l 510 594 l 117 594 l 117 681 l 661 681 l 661 621 l 238 86 l 671 86 l 671 0 l 90 0 l 90 63 z "},"ź":{"ha":764,"x_min":90,"x_max":671,"o":"m 90 63 l 510 594 l 117 594 l 117 681 l 661 681 l 661 621 l 238 86 l 671 86 l 671 0 l 90 0 l 90 63 m 497 1040 l 568 969 l 382 792 l 331 844 l 497 1040 z "},"ž":{"ha":764,"x_min":90,"x_max":671,"o":"m 90 63 l 510 594 l 117 594 l 117 681 l 661 681 l 661 621 l 238 86 l 671 86 l 671 0 l 90 0 l 90 63 m 268 1024 l 404 897 l 539 1022 l 586 965 l 401 786 l 218 964 l 268 1024 z "},"ż":{"ha":764,"x_min":90,"x_max":671,"o":"m 90 63 l 510 594 l 117 594 l 117 681 l 661 681 l 661 621 l 238 86 l 671 86 l 671 0 l 90 0 l 90 63 m 476 908 q 462 855 476 869 q 406 840 447 840 q 349 855 364 840 q 335 908 335 869 q 349 963 335 947 q 406 978 364 978 q 462 963 447 978 q 476 908 476 947 z "},"A":{"ha":764,"x_min":19,"x_max":744,"o":"m 301 965 l 461 965 l 744 0 l 628 0 l 550 267 l 207 267 l 129 0 l 19 0 l 301 965 m 531 354 l 457 617 q 435 690 444 656 q 415 756 425 724 q 397 822 406 789 q 379 892 389 856 l 378 892 q 358 822 367 856 q 341 756 350 789 q 322 690 332 724 q 301 617 313 656 l 226 354 l 531 354 z "},"Ą":{"ha":764,"x_min":19,"x_max":767,"o":"m 303 965 l 461 965 l 744 0 q 690 -40 715 -19 q 644 -82 664 -60 q 613 -126 625 -104 q 601 -172 601 -149 q 617 -219 601 -204 q 668 -233 633 -233 q 710 -229 688 -233 q 756 -218 733 -225 l 767 -290 q 708 -304 738 -300 q 646 -308 679 -308 q 542 -280 579 -308 q 506 -190 506 -251 q 517 -133 506 -160 q 547 -83 528 -107 q 592 -37 567 -58 q 646 0 618 -17 l 628 0 l 550 267 l 207 267 l 129 0 l 19 0 l 303 965 m 531 354 l 457 617 q 435 690 444 656 q 415 756 425 724 q 397 822 406 789 q 379 892 389 856 l 378 892 q 358 822 367 856 q 341 756 350 789 q 322 690 332 724 q 301 617 313 656 l 226 354 l 531 354 z "},"Æ":{"ha":764,"x_min":0,"x_max":738,"o":"m 285 965 l 738 965 l 738 878 l 506 878 l 506 543 l 721 543 l 721 457 l 506 457 l 506 88 l 738 88 l 738 0 l 396 0 l 396 269 l 188 269 l 110 0 l 0 0 l 285 965 m 396 356 l 396 881 l 364 881 l 210 356 l 396 356 z "},"À":{"ha":764,"x_min":19,"x_max":744,"o":"m 301 965 l 461 965 l 744 0 l 628 0 l 550 267 l 207 267 l 129 0 l 19 0 l 301 965 m 531 354 l 457 617 q 435 690 444 656 q 415 756 425 724 q 397 822 406 789 q 379 892 389 856 l 378 892 q 358 822 367 856 q 341 756 350 789 q 322 690 332 724 q 301 617 313 656 l 226 354 l 531 354 m 239 1253 l 475 1128 l 444 1060 l 199 1164 l 239 1253 z "},"Á":{"ha":764,"x_min":19,"x_max":744,"o":"m 301 965 l 461 965 l 744 0 l 628 0 l 550 267 l 207 267 l 129 0 l 19 0 l 301 965 m 531 354 l 457 617 q 435 690 444 656 q 415 756 425 724 q 397 822 406 789 q 379 892 389 856 l 378 892 q 358 822 367 856 q 341 756 350 789 q 322 690 332 724 q 301 617 313 656 l 226 354 l 531 354 m 525 1253 l 565 1164 l 319 1060 l 289 1128 l 525 1253 z "},"Â":{"ha":764,"x_min":19,"x_max":744,"o":"m 301 965 l 461 965 l 744 0 l 628 0 l 550 267 l 207 267 l 129 0 l 19 0 l 301 965 m 531 354 l 457 617 q 435 690 444 656 q 415 756 425 724 q 397 822 406 789 q 379 892 389 856 l 378 892 q 358 822 367 856 q 341 756 350 789 q 322 690 332 724 q 301 617 313 656 l 226 354 l 531 354 m 385 1246 l 576 1129 l 540 1063 l 379 1149 l 222 1063 l 188 1129 l 385 1246 z "},"Ä":{"ha":764,"x_min":19,"x_max":744,"o":"m 301 965 l 461 965 l 744 0 l 628 0 l 550 267 l 207 267 l 129 0 l 19 0 l 301 965 m 531 354 l 457 617 q 435 690 444 656 q 415 756 425 724 q 397 822 406 789 q 379 892 389 856 l 378 892 q 358 822 367 856 q 341 756 350 789 q 322 690 332 724 q 301 617 313 656 l 226 354 l 531 354 m 293 1146 q 290 1114 293 1128 q 278 1092 286 1100 q 258 1081 271 1085 q 225 1076 244 1076 q 191 1081 204 1076 q 169 1092 178 1085 q 158 1114 161 1100 q 156 1146 156 1128 q 158 1178 156 1165 q 169 1200 161 1192 q 191 1212 178 1208 q 225 1215 204 1215 q 279 1200 265 1215 q 293 1146 293 1185 m 611 1146 q 608 1114 611 1128 q 597 1092 606 1100 q 576 1081 589 1085 q 542 1076 563 1076 q 508 1081 521 1076 q 487 1092 494 1085 q 476 1114 479 1100 q 474 1146 474 1128 q 476 1178 474 1165 q 487 1200 479 1192 q 508 1212 494 1208 q 542 1215 521 1215 q 597 1200 583 1215 q 611 1146 611 1185 z "},"Ã":{"ha":764,"x_min":19,"x_max":744,"o":"m 301 965 l 461 965 l 744 0 l 628 0 l 550 267 l 207 267 l 129 0 l 19 0 l 301 965 m 531 354 l 457 617 q 435 690 444 656 q 415 756 425 724 q 397 822 406 789 q 379 892 389 856 l 378 892 q 358 822 367 856 q 341 756 350 789 q 322 690 332 724 q 301 617 313 656 l 226 354 l 531 354 m 164 1128 q 220 1185 186 1161 q 306 1208 254 1208 q 353 1201 332 1208 q 392 1183 374 1193 q 428 1166 410 1174 q 465 1158 446 1158 q 513 1172 493 1158 q 550 1207 532 1185 l 600 1160 q 544 1102 578 1126 q 458 1078 510 1078 q 411 1086 432 1078 q 372 1103 390 1094 q 336 1121 354 1113 q 299 1129 318 1129 q 251 1115 271 1129 q 214 1081 232 1101 l 164 1128 z "},"Ă":{"ha":764,"x_min":19,"x_max":744,"o":"m 301 965 l 461 965 l 744 0 l 628 0 l 550 267 l 207 267 l 129 0 l 19 0 l 301 965 m 531 354 l 457 617 q 435 690 444 656 q 415 756 425 724 q 397 822 406 789 q 379 892 389 856 l 378 892 q 358 822 367 856 q 341 756 350 789 q 322 690 332 724 q 301 617 313 656 l 226 354 l 531 354 m 272 1222 q 302 1158 275 1185 q 382 1132 329 1132 q 462 1158 436 1132 q 490 1222 488 1185 l 568 1222 q 556 1158 568 1188 q 519 1105 543 1128 q 459 1069 494 1082 q 378 1056 424 1056 q 297 1069 332 1056 q 240 1105 263 1082 q 205 1158 217 1128 q 193 1222 193 1188 l 272 1222 z "},"Ā":{"ha":764,"x_min":19,"x_max":744,"o":"m 301 965 l 461 965 l 744 0 l 628 0 l 550 267 l 207 267 l 129 0 l 19 0 l 301 965 m 531 354 l 457 617 q 435 690 444 656 q 415 756 425 724 q 397 822 406 789 q 379 892 389 856 l 378 892 q 358 822 367 856 q 341 756 350 789 q 322 690 332 724 q 301 617 313 656 l 226 354 l 531 354 m 164 1183 l 599 1183 l 599 1106 l 164 1106 l 164 1183 z "},"Ǎ":{"ha":764,"x_min":19,"x_max":744,"o":"m 301 965 l 461 965 l 744 0 l 628 0 l 550 267 l 207 267 l 129 0 l 19 0 l 301 965 m 531 354 l 457 617 q 435 690 444 656 q 415 756 425 724 q 397 822 406 789 q 379 892 389 856 l 378 892 q 358 822 367 856 q 341 756 350 789 q 322 690 332 724 q 301 617 313 656 l 226 354 l 531 354 m 224 1238 l 385 1151 l 542 1238 l 576 1171 l 379 1056 l 188 1171 l 224 1238 z "},"Ȧ":{"ha":764,"x_min":19,"x_max":744,"o":"m 301 965 l 461 965 l 744 0 l 628 0 l 550 267 l 207 267 l 129 0 l 19 0 l 301 965 m 531 354 l 457 617 q 435 690 444 656 q 415 756 425 724 q 397 822 406 789 q 379 892 389 856 l 378 892 q 358 822 367 856 q 341 756 350 789 q 322 690 332 724 q 301 617 313 656 l 226 354 l 531 354 m 453 1146 q 449 1114 453 1128 q 438 1092 446 1100 q 415 1081 429 1085 q 382 1076 401 1076 q 348 1081 361 1076 q 326 1092 335 1085 q 315 1114 318 1100 q 311 1146 311 1128 q 315 1178 311 1165 q 326 1200 318 1192 q 348 1212 335 1208 q 382 1215 361 1215 q 438 1200 422 1215 q 453 1146 453 1185 z "},"Å":{"ha":764,"x_min":19,"x_max":744,"o":"m 301 965 l 461 965 l 744 0 l 628 0 l 550 267 l 207 267 l 129 0 l 19 0 l 301 965 m 531 354 l 457 617 q 435 690 444 656 q 415 756 425 724 q 397 822 406 789 q 379 892 389 856 l 378 892 q 358 822 367 856 q 341 756 350 789 q 322 690 332 724 q 301 617 313 656 l 226 354 l 531 354 m 521 1153 q 481 1053 521 1092 q 378 1015 442 1015 q 274 1053 314 1015 q 235 1153 235 1092 q 274 1251 235 1213 q 378 1290 314 1290 q 435 1280 408 1290 q 481 1251 461 1269 q 510 1208 500 1233 q 521 1153 521 1183 m 451 1153 q 432 1208 451 1188 q 378 1228 413 1228 q 324 1208 343 1228 q 304 1153 304 1188 q 324 1098 304 1118 q 378 1078 343 1078 q 432 1098 413 1078 q 451 1153 451 1118 z "},"Ǽ":{"ha":764,"x_min":0,"x_max":738,"o":"m 285 965 l 738 965 l 738 878 l 506 878 l 506 543 l 721 543 l 721 457 l 506 457 l 506 88 l 738 88 l 738 0 l 396 0 l 396 269 l 188 269 l 110 0 l 0 0 l 285 965 m 396 356 l 396 881 l 364 881 l 210 356 l 396 356 m 631 1253 l 671 1164 l 425 1060 l 394 1128 l 631 1253 z "},"Ǣ":{"ha":764,"x_min":0,"x_max":738,"o":"m 285 965 l 738 965 l 738 878 l 506 878 l 506 543 l 721 543 l 721 457 l 506 457 l 506 88 l 738 88 l 738 0 l 396 0 l 396 269 l 188 269 l 110 0 l 0 0 l 285 965 m 396 356 l 396 881 l 364 881 l 210 356 l 396 356 m 265 1183 l 700 1183 l 700 1106 l 265 1106 l 265 1183 z "},"B":{"ha":764,"x_min":104,"x_max":704,"o":"m 104 965 l 354 965 q 500 955 439 965 q 601 919 561 944 q 659 849 640 893 q 678 739 678 806 q 638 588 678 643 q 528 511 597 533 q 596 490 564 506 q 652 447 628 475 q 690 378 676 419 q 704 279 704 336 q 684 156 704 208 q 622 69 664 103 q 517 17 581 35 q 364 0 453 0 l 104 0 l 104 965 m 369 86 q 542 132 492 86 q 592 274 592 178 q 581 356 592 321 q 542 413 569 390 q 469 447 515 436 q 354 458 424 458 l 215 458 l 215 86 l 369 86 m 356 543 q 443 552 404 543 q 510 582 482 561 q 552 638 538 603 q 567 724 567 672 q 555 802 567 772 q 517 849 543 832 q 449 873 490 867 q 350 879 408 879 l 215 879 l 215 543 l 356 543 z "},"C":{"ha":764,"x_min":79,"x_max":688,"o":"m 688 17 q 579 -6 638 4 q 463 -15 521 -15 q 294 5 365 -15 q 176 79 224 25 q 103 230 128 133 q 79 479 79 326 q 106 729 79 632 q 184 882 133 826 q 308 959 235 938 q 472 981 381 981 q 586 972 531 981 q 688 951 642 964 l 672 865 q 577 885 629 878 q 475 892 525 892 q 356 876 408 892 q 266 817 303 861 q 210 694 229 774 q 190 485 190 614 q 208 274 190 354 q 262 149 226 193 q 351 89 297 104 q 475 74 404 74 q 576 82 525 74 q 672 103 626 90 l 688 17 z "},"Ç":{"ha":764,"x_min":79,"x_max":688,"o":"m 688 17 q 580 -6 638 4 q 465 -15 522 -15 l 440 -15 l 435 -74 q 538 -102 504 -76 q 572 -181 572 -128 q 527 -274 572 -240 q 401 -308 482 -308 q 352 -306 376 -308 q 306 -299 328 -304 l 314 -237 q 354 -244 333 -242 q 396 -246 375 -246 q 485 -185 485 -246 q 465 -144 485 -157 q 396 -131 444 -131 l 354 -131 l 367 -8 q 249 22 301 -1 q 158 100 196 46 q 100 246 121 154 q 79 479 79 338 q 106 729 79 632 q 184 882 133 826 q 308 959 235 938 q 472 981 381 981 q 586 972 531 981 q 688 951 642 964 l 672 865 q 577 885 629 878 q 475 892 525 892 q 356 876 408 892 q 266 817 303 861 q 210 694 229 774 q 190 485 190 614 q 208 274 190 354 q 262 149 226 193 q 351 89 297 104 q 475 74 404 74 q 576 82 525 74 q 672 103 626 90 l 688 17 z "},"Ć":{"ha":764,"x_min":79,"x_max":688,"o":"m 688 17 q 579 -6 638 4 q 463 -15 521 -15 q 294 5 365 -15 q 176 79 224 25 q 103 230 128 133 q 79 479 79 326 q 106 729 79 632 q 184 882 133 826 q 308 959 235 938 q 472 981 381 981 q 586 972 531 981 q 688 951 642 964 l 672 865 q 577 885 629 878 q 475 892 525 892 q 356 876 408 892 q 266 817 303 861 q 210 694 229 774 q 190 485 190 614 q 208 274 190 354 q 262 149 226 193 q 351 89 297 104 q 475 74 404 74 q 576 82 525 74 q 672 103 626 90 l 688 17 m 593 1253 l 633 1164 l 388 1060 l 357 1128 l 593 1253 z "},"Ĉ":{"ha":764,"x_min":79,"x_max":688,"o":"m 688 17 q 579 -6 638 4 q 463 -15 521 -15 q 294 5 365 -15 q 176 79 224 25 q 103 230 128 133 q 79 479 79 326 q 106 729 79 632 q 184 882 133 826 q 308 959 235 938 q 472 981 381 981 q 586 972 531 981 q 688 951 642 964 l 672 865 q 577 885 629 878 q 475 892 525 892 q 356 876 408 892 q 266 817 303 861 q 210 694 229 774 q 190 485 190 614 q 208 274 190 354 q 262 149 226 193 q 351 89 297 104 q 475 74 404 74 q 576 82 525 74 q 672 103 626 90 l 688 17 m 454 1246 l 646 1129 l 610 1063 l 449 1149 l 292 1063 l 257 1129 l 454 1246 z "},"Č":{"ha":764,"x_min":79,"x_max":688,"o":"m 688 17 q 579 -6 638 4 q 463 -15 521 -15 q 294 5 365 -15 q 176 79 224 25 q 103 230 128 133 q 79 479 79 326 q 106 729 79 632 q 184 882 133 826 q 308 959 235 938 q 472 981 381 981 q 586 972 531 981 q 688 951 642 964 l 672 865 q 577 885 629 878 q 475 892 525 892 q 356 876 408 892 q 266 817 303 861 q 210 694 229 774 q 190 485 190 614 q 208 274 190 354 q 262 149 226 193 q 351 89 297 104 q 475 74 404 74 q 576 82 525 74 q 672 103 626 90 l 688 17 m 290 1238 l 451 1151 l 608 1238 l 643 1171 l 446 1056 l 254 1171 l 290 1238 z "},"Ċ":{"ha":764,"x_min":79,"x_max":688,"o":"m 688 17 q 579 -6 638 4 q 463 -15 521 -15 q 294 5 365 -15 q 176 79 224 25 q 103 230 128 133 q 79 479 79 326 q 106 729 79 632 q 184 882 133 826 q 308 959 235 938 q 472 981 381 981 q 586 972 531 981 q 688 951 642 964 l 672 865 q 577 885 629 878 q 475 892 525 892 q 356 876 408 892 q 266 817 303 861 q 210 694 229 774 q 190 485 190 614 q 208 274 190 354 q 262 149 226 193 q 351 89 297 104 q 475 74 404 74 q 576 82 525 74 q 672 103 626 90 l 688 17 m 517 1146 q 513 1114 517 1128 q 501 1092 510 1100 q 479 1081 493 1085 q 446 1076 465 1076 q 412 1081 425 1076 q 390 1092 399 1085 q 378 1114 382 1100 q 375 1146 375 1128 q 378 1178 375 1165 q 390 1200 382 1192 q 412 1212 399 1208 q 446 1215 425 1215 q 501 1200 486 1215 q 517 1146 517 1185 z "},"D":{"ha":764,"x_min":86,"x_max":707,"o":"m 86 965 l 349 965 q 510 946 442 965 q 622 874 578 926 q 686 730 665 822 q 707 490 707 638 q 685 248 707 343 q 617 98 663 153 q 503 22 572 43 q 342 0 435 0 l 86 0 l 86 965 m 344 88 q 456 103 408 88 q 535 162 504 119 q 582 282 567 204 q 597 485 597 360 q 582 687 597 610 q 536 806 567 764 q 458 863 506 849 q 344 878 410 878 l 197 878 l 197 88 l 344 88 z "},"Ð":{"ha":764,"x_min":14,"x_max":707,"o":"m 113 467 l 14 467 l 14 551 l 113 551 l 113 965 l 350 965 q 510 946 443 965 q 622 874 578 926 q 686 730 665 822 q 707 490 707 638 q 685 248 707 343 q 618 98 663 153 q 505 22 574 43 q 343 0 436 0 l 113 0 l 113 467 m 346 88 q 457 103 410 88 q 535 162 504 119 q 582 282 567 204 q 597 485 597 360 q 583 687 597 610 q 537 806 568 764 q 458 863 506 849 q 346 878 410 878 l 224 878 l 224 551 l 404 551 l 404 467 l 224 467 l 224 88 l 346 88 z "},"Ď":{"ha":764,"x_min":86,"x_max":707,"o":"m 86 965 l 349 965 q 510 946 442 965 q 622 874 578 926 q 686 730 665 822 q 707 490 707 638 q 685 248 707 343 q 617 98 663 153 q 503 22 572 43 q 342 0 435 0 l 86 0 l 86 965 m 344 88 q 456 103 408 88 q 535 162 504 119 q 582 282 567 204 q 597 485 597 360 q 582 687 597 610 q 536 806 567 764 q 458 863 506 849 q 344 878 410 878 l 197 878 l 197 88 l 344 88 m 179 1238 l 340 1151 l 497 1238 l 532 1171 l 335 1056 l 143 1171 l 179 1238 z "},"Đ":{"ha":764,"x_min":14,"x_max":707,"o":"m 113 467 l 14 467 l 14 551 l 113 551 l 113 965 l 350 965 q 510 946 443 965 q 622 874 578 926 q 686 730 665 822 q 707 490 707 638 q 685 248 707 343 q 618 98 663 153 q 505 22 574 43 q 343 0 436 0 l 113 0 l 113 467 m 346 88 q 457 103 410 88 q 535 162 504 119 q 582 282 567 204 q 597 485 597 360 q 583 687 597 610 q 537 806 568 764 q 458 863 506 849 q 346 878 410 878 l 224 878 l 224 551 l 404 551 l 404 467 l 224 467 l 224 88 l 346 88 z "},"E":{"ha":764,"x_min":126,"x_max":664,"o":"m 126 965 l 664 965 l 664 878 l 236 878 l 236 543 l 632 543 l 632 457 l 236 457 l 236 88 l 664 88 l 664 0 l 126 0 l 126 965 z "},"Ę":{"ha":764,"x_min":126,"x_max":686,"o":"m 126 965 l 664 965 l 664 878 l 236 878 l 236 543 l 632 543 l 632 457 l 236 457 l 236 88 l 664 88 l 664 0 q 610 -40 636 -19 q 564 -82 583 -60 q 533 -126 544 -104 q 521 -172 521 -149 q 536 -219 521 -204 q 586 -233 551 -233 q 630 -229 607 -233 q 675 -218 653 -225 l 686 -290 q 628 -304 658 -300 q 565 -308 599 -308 q 462 -280 499 -308 q 425 -190 425 -251 q 437 -133 425 -160 q 468 -83 449 -107 q 513 -37 488 -58 q 565 0 538 -17 l 126 0 l 126 965 z "},"È":{"ha":764,"x_min":126,"x_max":664,"o":"m 126 965 l 664 965 l 664 878 l 236 878 l 236 543 l 632 543 l 632 457 l 236 457 l 236 88 l 664 88 l 664 0 l 126 0 l 126 965 m 238 1253 l 474 1128 l 443 1060 l 197 1164 l 238 1253 z "},"É":{"ha":764,"x_min":126,"x_max":664,"o":"m 126 965 l 664 965 l 664 878 l 236 878 l 236 543 l 632 543 l 632 457 l 236 457 l 236 88 l 664 88 l 664 0 l 126 0 l 126 965 m 543 1253 l 583 1164 l 338 1060 l 307 1128 l 543 1253 z "},"Ê":{"ha":764,"x_min":126,"x_max":664,"o":"m 126 965 l 664 965 l 664 878 l 236 878 l 236 543 l 632 543 l 632 457 l 236 457 l 236 88 l 664 88 l 664 0 l 126 0 l 126 965 m 397 1246 l 589 1129 l 553 1063 l 392 1149 l 235 1063 l 200 1129 l 397 1246 z "},"Ë":{"ha":764,"x_min":126,"x_max":664,"o":"m 126 965 l 664 965 l 664 878 l 236 878 l 236 543 l 632 543 l 632 457 l 236 457 l 236 88 l 664 88 l 664 0 l 126 0 l 126 965 m 300 1146 q 297 1114 300 1128 q 285 1092 293 1100 q 265 1081 278 1085 q 232 1076 251 1076 q 198 1081 211 1076 q 176 1092 185 1085 q 165 1114 168 1100 q 163 1146 163 1128 q 165 1178 163 1165 q 176 1200 168 1192 q 198 1212 185 1208 q 232 1215 211 1215 q 286 1200 272 1215 q 300 1146 300 1185 m 618 1146 q 615 1114 618 1128 q 604 1092 613 1100 q 583 1081 596 1085 q 549 1076 569 1076 q 515 1081 528 1076 q 494 1092 501 1085 q 483 1114 486 1100 q 481 1146 481 1128 q 483 1178 481 1165 q 494 1200 486 1192 q 515 1212 501 1208 q 549 1215 528 1215 q 604 1200 590 1215 q 618 1146 618 1185 z "},"Ĕ":{"ha":764,"x_min":126,"x_max":664,"o":"m 126 965 l 664 965 l 664 878 l 236 878 l 236 543 l 632 543 l 632 457 l 236 457 l 236 88 l 664 88 l 664 0 l 126 0 l 126 965 m 282 1222 q 312 1158 285 1185 q 392 1132 339 1132 q 472 1158 446 1132 q 500 1222 497 1185 l 578 1222 q 565 1158 578 1188 q 528 1105 553 1128 q 469 1069 504 1082 q 388 1056 433 1056 q 307 1069 342 1056 q 249 1105 272 1082 q 215 1158 226 1128 q 203 1222 203 1188 l 282 1222 z "},"Ē":{"ha":764,"x_min":126,"x_max":664,"o":"m 126 965 l 664 965 l 664 878 l 236 878 l 236 543 l 632 543 l 632 457 l 236 457 l 236 88 l 664 88 l 664 0 l 126 0 l 126 965 m 171 1183 l 606 1183 l 606 1106 l 171 1106 l 171 1183 z "},"Ě":{"ha":764,"x_min":126,"x_max":664,"o":"m 126 965 l 664 965 l 664 878 l 236 878 l 236 543 l 632 543 l 632 457 l 236 457 l 236 88 l 664 88 l 664 0 l 126 0 l 126 965 m 236 1238 l 397 1151 l 554 1238 l 589 1171 l 392 1056 l 200 1171 l 236 1238 z "},"Ė":{"ha":764,"x_min":126,"x_max":664,"o":"m 126 965 l 664 965 l 664 878 l 236 878 l 236 543 l 632 543 l 632 457 l 236 457 l 236 88 l 664 88 l 664 0 l 126 0 l 126 965 m 472 1146 q 469 1114 472 1128 q 457 1092 465 1100 q 435 1081 449 1085 q 401 1076 421 1076 q 367 1081 381 1076 q 346 1092 354 1085 q 334 1114 338 1100 q 331 1146 331 1128 q 334 1178 331 1165 q 346 1200 338 1192 q 367 1212 354 1208 q 401 1215 381 1215 q 457 1200 442 1215 q 472 1146 472 1185 z "},"F":{"ha":764,"x_min":136,"x_max":674,"o":"m 136 965 l 674 965 l 674 878 l 247 878 l 247 543 l 636 543 l 636 457 l 247 457 l 247 0 l 136 0 l 136 965 z "},"G":{"ha":764,"x_min":57,"x_max":679,"o":"m 679 31 q 558 -3 629 11 q 414 -17 486 -17 q 256 3 322 -17 q 144 78 189 24 q 78 228 100 132 q 57 478 57 325 q 83 728 57 631 q 158 882 108 826 q 276 959 207 938 q 433 981 346 981 q 552 972 494 981 q 661 949 610 964 l 649 864 q 542 884 594 876 q 436 892 490 892 q 322 876 372 892 q 238 817 272 861 q 184 692 203 772 q 165 483 165 613 q 182 272 165 353 q 231 146 199 190 q 309 87 263 101 q 418 72 356 72 q 505 80 467 72 q 571 99 543 88 l 571 454 l 369 454 l 369 540 l 679 540 l 679 31 z "},"Ǵ":{"ha":764,"x_min":57,"x_max":679,"o":"m 679 31 q 558 -3 629 11 q 414 -17 486 -17 q 256 3 322 -17 q 144 78 189 24 q 78 228 100 132 q 57 478 57 325 q 83 728 57 631 q 158 882 108 826 q 276 959 207 938 q 433 981 346 981 q 552 972 494 981 q 661 949 610 964 l 649 864 q 542 884 594 876 q 436 892 490 892 q 322 876 372 892 q 238 817 272 861 q 184 692 203 772 q 165 483 165 613 q 182 272 165 353 q 231 146 199 190 q 309 87 263 101 q 418 72 356 72 q 505 80 467 72 q 571 99 543 88 l 571 454 l 369 454 l 369 540 l 679 540 l 679 31 m 572 1253 l 613 1164 l 367 1060 l 336 1128 l 572 1253 z "},"Ĝ":{"ha":764,"x_min":57,"x_max":679,"o":"m 679 31 q 558 -3 629 11 q 414 -17 486 -17 q 256 3 322 -17 q 144 78 189 24 q 78 228 100 132 q 57 478 57 325 q 83 728 57 631 q 158 882 108 826 q 276 959 207 938 q 433 981 346 981 q 552 972 494 981 q 661 949 610 964 l 649 864 q 542 884 594 876 q 436 892 490 892 q 322 876 372 892 q 238 817 272 861 q 184 692 203 772 q 165 483 165 613 q 182 272 165 353 q 231 146 199 190 q 309 87 263 101 q 418 72 356 72 q 505 80 467 72 q 571 99 543 88 l 571 454 l 369 454 l 369 540 l 679 540 l 679 31 m 421 1246 l 613 1129 l 576 1063 l 415 1149 l 258 1063 l 224 1129 l 421 1246 z "},"Ğ":{"ha":764,"x_min":57,"x_max":679,"o":"m 679 31 q 558 -3 629 11 q 414 -17 486 -17 q 256 3 322 -17 q 144 78 189 24 q 78 228 100 132 q 57 478 57 325 q 83 728 57 631 q 158 882 108 826 q 276 959 207 938 q 433 981 346 981 q 552 972 494 981 q 661 949 610 964 l 649 864 q 542 884 594 876 q 436 892 490 892 q 322 876 372 892 q 238 817 272 861 q 184 692 203 772 q 165 483 165 613 q 182 272 165 353 q 231 146 199 190 q 309 87 263 101 q 418 72 356 72 q 505 80 467 72 q 571 99 543 88 l 571 454 l 369 454 l 369 540 l 679 540 l 679 31 m 303 1222 q 333 1158 306 1185 q 413 1132 360 1132 q 492 1158 467 1132 q 521 1222 518 1185 l 599 1222 q 586 1158 599 1188 q 549 1105 574 1128 q 490 1069 525 1082 q 408 1056 454 1056 q 328 1069 363 1056 q 270 1105 293 1082 q 235 1158 247 1128 q 224 1222 224 1188 l 303 1222 z "},"Ǧ":{"ha":764,"x_min":57,"x_max":679,"o":"m 679 31 q 558 -3 629 11 q 414 -17 486 -17 q 256 3 322 -17 q 144 78 189 24 q 78 228 100 132 q 57 478 57 325 q 83 728 57 631 q 158 882 108 826 q 276 959 207 938 q 433 981 346 981 q 552 972 494 981 q 661 949 610 964 l 649 864 q 542 884 594 876 q 436 892 490 892 q 322 876 372 892 q 238 817 272 861 q 184 692 203 772 q 165 483 165 613 q 182 272 165 353 q 231 146 199 190 q 309 87 263 101 q 418 72 356 72 q 505 80 467 72 q 571 99 543 88 l 571 454 l 369 454 l 369 540 l 679 540 l 679 31 m 257 1238 l 418 1151 l 575 1238 l 610 1171 l 413 1056 l 221 1171 l 257 1238 z "},"Ġ":{"ha":764,"x_min":57,"x_max":679,"o":"m 679 31 q 558 -3 629 11 q 414 -17 486 -17 q 256 3 322 -17 q 144 78 189 24 q 78 228 100 132 q 57 478 57 325 q 83 728 57 631 q 158 882 108 826 q 276 959 207 938 q 433 981 346 981 q 552 972 494 981 q 661 949 610 964 l 649 864 q 542 884 594 876 q 436 892 490 892 q 322 876 372 892 q 238 817 272 861 q 184 692 203 772 q 165 483 165 613 q 182 272 165 353 q 231 146 199 190 q 309 87 263 101 q 418 72 356 72 q 505 80 467 72 q 571 99 543 88 l 571 454 l 369 454 l 369 540 l 679 540 l 679 31 m 479 1146 q 476 1114 479 1128 q 464 1092 472 1100 q 442 1081 456 1085 q 408 1076 428 1076 q 374 1081 388 1076 q 353 1092 361 1085 q 341 1114 344 1100 q 338 1146 338 1128 q 341 1178 338 1165 q 353 1200 344 1192 q 374 1212 361 1208 q 408 1215 388 1215 q 464 1200 449 1215 q 479 1146 479 1185 z "},"Ģ":{"ha":764,"x_min":57,"x_max":679,"o":"m 679 31 q 558 -3 629 11 q 414 -17 486 -17 q 256 3 322 -17 q 144 78 189 24 q 78 228 100 132 q 57 478 57 325 q 83 728 57 631 q 158 882 108 826 q 276 959 207 938 q 433 981 346 981 q 552 972 494 981 q 661 949 610 964 l 649 864 q 542 884 594 876 q 436 892 490 892 q 322 876 372 892 q 238 817 272 861 q 184 692 203 772 q 165 483 165 613 q 182 272 165 353 q 231 146 199 190 q 309 87 263 101 q 418 72 356 72 q 505 80 467 72 q 571 99 543 88 l 571 454 l 369 454 l 369 540 l 679 540 l 679 31 m 213 -254 q 248 -237 228 -247 q 288 -217 268 -228 q 327 -196 308 -206 q 358 -178 346 -186 q 357 -164 357 -169 q 357 -154 357 -158 q 372 -114 357 -125 q 418 -103 388 -103 q 466 -117 453 -103 q 479 -168 479 -132 q 474 -199 479 -186 q 452 -222 468 -211 q 408 -244 436 -233 q 336 -268 381 -254 q 280 -287 307 -279 q 228 -304 253 -296 l 213 -254 z "},"H":{"ha":764,"x_min":86,"x_max":678,"o":"m 86 965 l 197 965 l 197 546 l 567 546 l 567 965 l 678 965 l 678 0 l 567 0 l 567 456 l 197 456 l 197 0 l 86 0 l 86 965 z "},"Ħ":{"ha":764,"x_min":14,"x_max":750,"o":"m 113 710 l 14 710 l 14 793 l 113 793 l 113 965 l 222 965 l 222 793 l 542 793 l 542 965 l 651 965 l 651 793 l 750 793 l 750 710 l 651 710 l 651 0 l 542 0 l 542 440 l 222 440 l 222 0 l 113 0 l 113 710 m 542 525 l 542 710 l 222 710 l 222 525 l 542 525 z "},"Ĥ":{"ha":764,"x_min":86,"x_max":678,"o":"m 86 965 l 197 965 l 197 546 l 567 546 l 567 965 l 678 965 l 678 0 l 567 0 l 567 456 l 197 456 l 197 0 l 86 0 l 86 965 m 385 1246 l 576 1129 l 540 1063 l 379 1149 l 222 1063 l 188 1129 l 385 1246 z "},"Ȟ":{"ha":764,"x_min":86,"x_max":678,"o":"m 86 965 l 197 965 l 197 546 l 567 546 l 567 965 l 678 965 l 678 0 l 567 0 l 567 456 l 197 456 l 197 0 l 86 0 l 86 965 m 224 1238 l 385 1151 l 542 1238 l 576 1171 l 379 1056 l 188 1171 l 224 1238 z "},"I":{"ha":764,"x_min":96,"x_max":668,"o":"m 96 90 l 326 90 l 326 875 l 99 875 l 99 965 l 668 965 l 668 875 l 438 875 l 438 90 l 665 90 l 665 0 l 96 0 l 96 90 z "},"Į":{"ha":764,"x_min":96,"x_max":668,"o":"m 96 90 l 326 90 l 326 875 l 99 875 l 99 965 l 668 965 l 668 875 l 438 875 l 438 90 l 665 90 l 665 0 l 446 0 q 392 -40 418 -19 q 347 -82 367 -60 q 315 -126 326 -104 q 304 -172 304 -149 q 320 -219 304 -204 q 371 -233 336 -233 q 413 -229 390 -233 q 458 -218 436 -225 l 471 -290 q 412 -304 442 -300 q 349 -308 382 -308 q 244 -280 281 -308 q 208 -190 208 -251 q 219 -133 208 -160 q 250 -83 231 -107 q 295 -37 269 -58 q 349 0 321 -17 l 96 0 l 96 90 z "},"Ì":{"ha":764,"x_min":96,"x_max":668,"o":"m 96 90 l 326 90 l 326 875 l 99 875 l 99 965 l 668 965 l 668 875 l 438 875 l 438 90 l 665 90 l 665 0 l 96 0 l 96 90 m 244 1253 l 481 1128 l 450 1060 l 204 1164 l 244 1253 z "},"Í":{"ha":764,"x_min":96,"x_max":668,"o":"m 96 90 l 326 90 l 326 875 l 99 875 l 99 965 l 668 965 l 668 875 l 438 875 l 438 90 l 665 90 l 665 0 l 96 0 l 96 90 m 514 1253 l 554 1164 l 308 1060 l 278 1128 l 514 1253 z "},"Î":{"ha":764,"x_min":96,"x_max":668,"o":"m 96 90 l 326 90 l 326 875 l 99 875 l 99 965 l 668 965 l 668 875 l 438 875 l 438 90 l 665 90 l 665 0 l 96 0 l 96 90 m 386 1246 l 578 1129 l 542 1063 l 381 1149 l 224 1063 l 189 1129 l 386 1246 z "},"Ï":{"ha":764,"x_min":96,"x_max":668,"o":"m 96 90 l 326 90 l 326 875 l 99 875 l 99 965 l 668 965 l 668 875 l 438 875 l 438 90 l 665 90 l 665 0 l 96 0 l 96 90 m 293 1146 q 290 1114 293 1128 q 278 1092 286 1100 q 258 1081 271 1085 q 225 1076 244 1076 q 191 1081 204 1076 q 169 1092 178 1085 q 158 1114 161 1100 q 156 1146 156 1128 q 158 1178 156 1165 q 169 1200 161 1192 q 191 1212 178 1208 q 225 1215 204 1215 q 279 1200 265 1215 q 293 1146 293 1185 m 611 1146 q 608 1114 611 1128 q 597 1092 606 1100 q 576 1081 589 1085 q 542 1076 563 1076 q 508 1081 521 1076 q 487 1092 494 1085 q 476 1114 479 1100 q 474 1146 474 1128 q 476 1178 474 1165 q 487 1200 479 1192 q 508 1212 494 1208 q 542 1215 521 1215 q 597 1200 583 1215 q 611 1146 611 1185 z "},"Ĩ":{"ha":764,"x_min":96,"x_max":668,"o":"m 96 90 l 326 90 l 326 875 l 99 875 l 99 965 l 668 965 l 668 875 l 438 875 l 438 90 l 665 90 l 665 0 l 96 0 l 96 90 m 164 1128 q 220 1185 186 1161 q 306 1208 254 1208 q 353 1201 332 1208 q 392 1183 374 1193 q 428 1166 410 1174 q 465 1158 446 1158 q 513 1172 493 1158 q 550 1207 532 1185 l 600 1160 q 544 1102 578 1126 q 458 1078 510 1078 q 411 1086 432 1078 q 372 1103 390 1094 q 336 1121 354 1113 q 299 1129 318 1129 q 251 1115 271 1129 q 214 1081 232 1101 l 164 1128 z "},"Ĭ":{"ha":764,"x_min":96,"x_max":668,"o":"m 96 90 l 326 90 l 326 875 l 99 875 l 99 965 l 668 965 l 668 875 l 438 875 l 438 90 l 665 90 l 665 0 l 96 0 l 96 90 m 275 1222 q 305 1158 278 1185 q 385 1132 332 1132 q 465 1158 439 1132 q 493 1222 490 1185 l 571 1222 q 558 1158 571 1188 q 522 1105 546 1128 q 462 1069 497 1082 q 381 1056 426 1056 q 300 1069 335 1056 q 242 1105 265 1082 q 208 1158 219 1128 q 196 1222 196 1188 l 275 1222 z "},"Ī":{"ha":764,"x_min":96,"x_max":668,"o":"m 96 90 l 326 90 l 326 875 l 99 875 l 99 965 l 668 965 l 668 875 l 438 875 l 438 90 l 665 90 l 665 0 l 96 0 l 96 90 m 164 1183 l 599 1183 l 599 1106 l 164 1106 l 164 1183 z "},"Ǐ":{"ha":764,"x_min":96,"x_max":668,"o":"m 96 90 l 326 90 l 326 875 l 99 875 l 99 965 l 668 965 l 668 875 l 438 875 l 438 90 l 665 90 l 665 0 l 96 0 l 96 90 m 225 1238 l 386 1151 l 543 1238 l 578 1171 l 381 1056 l 189 1171 l 225 1238 z "},"İ":{"ha":764,"x_min":96,"x_max":668,"o":"m 96 90 l 326 90 l 326 875 l 99 875 l 99 965 l 668 965 l 668 875 l 438 875 l 438 90 l 665 90 l 665 0 l 96 0 l 96 90 m 453 1146 q 449 1114 453 1128 q 438 1092 446 1100 q 415 1081 429 1085 q 382 1076 401 1076 q 348 1081 361 1076 q 326 1092 335 1085 q 315 1114 318 1100 q 311 1146 311 1128 q 315 1178 311 1165 q 326 1200 318 1192 q 348 1212 335 1208 q 382 1215 361 1215 q 438 1200 422 1215 q 453 1146 453 1185 z "},"Ĳ":{"ha":764,"x_min":119,"x_max":651,"o":"m 119 965 l 229 965 l 229 0 l 119 0 l 119 965 m 651 965 l 651 250 q 640 127 651 176 q 604 47 629 78 q 542 3 579 17 q 453 -10 504 -10 q 399 -7 426 -10 q 343 1 372 -4 l 350 89 q 397 82 376 83 q 438 81 417 81 q 517 115 494 81 q 540 238 540 150 l 540 965 l 651 965 z "},"J":{"ha":764,"x_min":100,"x_max":632,"o":"m 149 875 l 149 965 l 632 965 l 632 278 q 613 141 632 196 q 553 53 593 86 q 451 5 513 19 q 308 -10 390 -10 q 197 -4 249 -10 q 100 11 144 1 l 108 100 q 198 86 149 92 q 301 81 247 81 q 403 90 361 81 q 471 121 444 99 q 509 179 497 143 q 521 268 521 215 l 521 875 l 149 875 z "},"Ĵ":{"ha":764,"x_min":100,"x_max":632,"o":"m 149 875 l 149 965 l 632 965 l 632 278 q 613 141 632 196 q 553 53 593 86 q 451 5 513 19 q 308 -10 390 -10 q 197 -4 249 -10 q 100 11 144 1 l 108 100 q 198 86 149 92 q 301 81 247 81 q 403 90 361 81 q 471 121 444 99 q 509 179 497 143 q 521 268 521 215 l 521 875 l 149 875 m 433 1246 l 625 1129 l 589 1063 l 428 1149 l 271 1063 l 236 1129 l 433 1246 z "},"K":{"ha":764,"x_min":117,"x_max":744,"o":"m 117 965 l 228 965 l 228 506 l 597 965 l 729 965 l 343 499 l 744 0 l 607 0 l 228 478 l 228 0 l 117 0 l 117 965 z "},"Ǩ":{"ha":764,"x_min":117,"x_max":744,"o":"m 117 965 l 228 965 l 228 506 l 597 965 l 729 965 l 343 499 l 744 0 l 607 0 l 228 478 l 228 0 l 117 0 l 117 965 m 231 1238 l 392 1151 l 549 1238 l 583 1171 l 386 1056 l 194 1171 l 231 1238 z "},"Ķ":{"ha":764,"x_min":117,"x_max":744,"o":"m 117 965 l 228 965 l 228 506 l 597 965 l 729 965 l 343 499 l 744 0 l 607 0 l 228 478 l 228 0 l 117 0 l 117 965 m 199 -254 q 234 -237 214 -247 q 274 -217 254 -228 q 313 -196 294 -206 q 344 -178 332 -186 q 343 -164 343 -169 q 343 -154 343 -158 q 358 -114 343 -125 q 404 -103 374 -103 q 452 -117 439 -103 q 465 -168 465 -132 q 460 -199 465 -186 q 438 -222 454 -211 q 394 -244 422 -233 q 322 -268 367 -254 q 266 -287 293 -279 q 214 -304 239 -296 l 199 -254 z "},"L":{"ha":764,"x_min":138,"x_max":679,"o":"m 138 965 l 247 965 l 247 90 l 679 90 l 679 0 l 138 0 l 138 965 z "},"Ł":{"ha":764,"x_min":33,"x_max":679,"o":"m 169 482 l 74 433 l 33 510 l 169 579 l 169 965 l 279 965 l 279 635 l 435 715 l 474 639 l 279 539 l 279 90 l 679 90 l 679 0 l 169 0 l 169 482 z "},"Ĺ":{"ha":764,"x_min":138,"x_max":679,"o":"m 138 965 l 247 965 l 247 90 l 679 90 l 679 0 l 138 0 l 138 965 m 490 1253 l 531 1164 l 285 1060 l 254 1128 l 490 1253 z "},"Ľ":{"ha":764,"x_min":138,"x_max":679,"o":"m 138 965 l 247 965 l 247 90 l 679 90 l 679 0 l 138 0 l 138 965 m 403 1071 l 501 1054 l 435 788 l 361 797 l 403 1071 z "},"Ŀ":{"ha":764,"x_min":138,"x_max":679,"o":"m 138 965 l 247 965 l 247 90 l 679 90 l 679 0 l 138 0 l 138 965 m 624 513 q 619 473 624 489 q 606 447 615 457 q 580 433 596 438 q 539 429 564 429 q 498 433 514 429 q 472 447 482 438 q 458 473 463 457 q 454 513 454 489 q 458 552 454 536 q 472 578 463 568 q 498 592 482 588 q 539 596 514 596 q 580 592 564 596 q 606 578 596 588 q 619 552 615 568 q 624 513 624 536 z "},"Ļ":{"ha":764,"x_min":138,"x_max":679,"o":"m 138 965 l 247 965 l 247 90 l 679 90 l 679 0 l 138 0 l 138 965 m 211 -254 q 247 -237 226 -247 q 287 -217 267 -228 q 326 -196 307 -206 q 357 -178 344 -186 q 356 -164 356 -169 q 356 -154 356 -158 q 371 -114 356 -125 q 417 -103 386 -103 q 465 -117 451 -103 q 478 -168 478 -132 q 472 -199 478 -186 q 451 -222 467 -211 q 407 -244 435 -233 q 335 -268 379 -254 q 278 -287 306 -279 q 226 -304 251 -296 l 211 -254 z "},"M":{"ha":764,"x_min":29,"x_max":735,"o":"m 72 965 l 229 965 l 290 715 l 347 489 q 356 450 351 468 q 365 413 361 432 q 374 374 369 394 q 382 328 378 353 l 385 328 q 393 374 389 353 q 401 413 397 394 q 410 450 406 432 q 419 489 414 468 l 476 718 l 538 965 l 692 965 l 735 0 l 636 0 l 611 581 q 608 729 608 660 q 607 875 607 799 l 603 875 q 585 793 594 831 q 565 710 576 756 l 506 471 l 443 222 l 321 222 l 258 471 l 199 710 q 178 793 188 756 q 160 875 169 831 l 156 875 q 155 730 156 800 q 151 581 154 660 l 128 0 l 29 0 l 72 965 z "},"N":{"ha":764,"x_min":83,"x_max":681,"o":"m 83 965 l 229 965 l 492 361 q 517 302 506 331 q 540 244 529 274 q 563 187 551 215 q 589 125 575 158 l 593 125 q 585 253 588 190 q 582 378 582 315 l 582 965 l 681 965 l 681 0 l 533 0 l 272 604 q 247 663 258 635 q 223 720 235 692 q 199 778 211 749 q 175 840 188 807 l 171 840 q 178 713 175 775 q 182 588 182 650 l 182 0 l 83 0 l 83 965 z "},"Ŋ":{"ha":764,"x_min":83,"x_max":681,"o":"m 83 965 l 231 965 l 492 361 q 519 302 507 331 q 542 244 531 274 q 565 187 553 215 q 589 125 576 158 l 593 125 q 585 253 588 190 q 582 378 582 315 l 582 965 l 681 965 l 681 -71 q 667 -185 681 -139 q 628 -260 654 -232 q 565 -299 603 -287 q 479 -311 528 -311 q 426 -308 451 -311 q 372 -299 400 -306 l 383 -214 q 426 -220 407 -218 q 465 -222 444 -222 q 545 -192 519 -222 q 571 -78 571 -161 l 571 0 l 533 0 l 271 604 q 245 664 257 635 q 222 721 233 693 q 199 778 211 749 q 175 840 188 807 l 171 840 q 178 713 175 775 q 182 588 182 650 l 182 0 l 83 0 l 83 965 z "},"Ǹ":{"ha":764,"x_min":83,"x_max":681,"o":"m 83 965 l 229 965 l 492 361 q 517 302 506 331 q 540 244 529 274 q 563 187 551 215 q 589 125 575 158 l 593 125 q 585 253 588 190 q 582 378 582 315 l 582 965 l 681 965 l 681 0 l 533 0 l 272 604 q 247 663 258 635 q 223 720 235 692 q 199 778 211 749 q 175 840 188 807 l 171 840 q 178 713 175 775 q 182 588 182 650 l 182 0 l 83 0 l 83 965 m 218 1253 l 454 1128 l 424 1060 l 178 1164 l 218 1253 z "},"Ń":{"ha":764,"x_min":83,"x_max":681,"o":"m 83 965 l 229 965 l 492 361 q 517 302 506 331 q 540 244 529 274 q 563 187 551 215 q 589 125 575 158 l 593 125 q 585 253 588 190 q 582 378 582 315 l 582 965 l 681 965 l 681 0 l 533 0 l 272 604 q 247 663 258 635 q 223 720 235 692 q 199 778 211 749 q 175 840 188 807 l 171 840 q 178 713 175 775 q 182 588 182 650 l 182 0 l 83 0 l 83 965 m 556 1253 l 596 1164 l 350 1060 l 319 1128 l 556 1253 z "},"Ñ":{"ha":764,"x_min":83,"x_max":681,"o":"m 83 965 l 229 965 l 492 361 q 517 302 506 331 q 540 244 529 274 q 563 187 551 215 q 589 125 575 158 l 593 125 q 585 253 588 190 q 582 378 582 315 l 582 965 l 681 965 l 681 0 l 533 0 l 272 604 q 247 663 258 635 q 223 720 235 692 q 199 778 211 749 q 175 840 188 807 l 171 840 q 178 713 175 775 q 182 588 182 650 l 182 0 l 83 0 l 83 965 m 167 1128 q 223 1185 189 1161 q 308 1208 257 1208 q 356 1201 335 1208 q 394 1183 376 1193 q 431 1166 413 1174 q 468 1158 449 1158 q 515 1172 496 1158 q 553 1207 535 1185 l 603 1160 q 547 1102 581 1126 q 461 1078 513 1078 q 414 1086 435 1078 q 375 1103 393 1094 q 339 1121 357 1113 q 301 1129 321 1129 q 254 1115 274 1129 q 217 1081 235 1101 l 167 1128 z "},"Ň":{"ha":764,"x_min":83,"x_max":681,"o":"m 83 965 l 229 965 l 492 361 q 517 302 506 331 q 540 244 529 274 q 563 187 551 215 q 589 125 575 158 l 593 125 q 585 253 588 190 q 582 378 582 315 l 582 965 l 681 965 l 681 0 l 533 0 l 272 604 q 247 663 258 635 q 223 720 235 692 q 199 778 211 749 q 175 840 188 807 l 171 840 q 178 713 175 775 q 182 588 182 650 l 182 0 l 83 0 l 83 965 m 228 1238 l 389 1151 l 546 1238 l 581 1171 l 383 1056 l 192 1171 l 228 1238 z "},"Ņ":{"ha":764,"x_min":83,"x_max":681,"o":"m 83 965 l 229 965 l 492 361 q 517 302 506 331 q 540 244 529 274 q 563 187 551 215 q 589 125 575 158 l 593 125 q 585 253 588 190 q 582 378 582 315 l 582 965 l 681 965 l 681 0 l 533 0 l 272 604 q 247 663 258 635 q 223 720 235 692 q 199 778 211 749 q 175 840 188 807 l 171 840 q 178 713 175 775 q 182 588 182 650 l 182 0 l 83 0 l 83 965 m 192 -254 q 227 -237 207 -247 q 267 -217 247 -228 q 306 -196 288 -206 q 338 -178 325 -186 q 336 -164 336 -169 q 336 -154 336 -158 q 351 -114 336 -125 q 397 -103 367 -103 q 445 -117 432 -103 q 458 -168 458 -132 q 453 -199 458 -186 q 431 -222 447 -211 q 388 -244 415 -233 q 315 -268 360 -254 q 259 -287 286 -279 q 207 -304 232 -296 l 192 -254 z "},"O":{"ha":764,"x_min":57,"x_max":707,"o":"m 707 486 q 685 233 707 332 q 619 79 663 135 q 515 2 576 24 q 376 -19 454 -19 q 240 1 300 -19 q 139 76 179 21 q 78 227 99 131 q 57 478 57 324 q 78 731 57 633 q 142 885 100 829 q 246 963 185 942 q 386 985 307 985 q 523 965 463 985 q 624 890 583 944 q 686 738 665 835 q 707 486 707 640 m 597 481 q 582 693 597 611 q 539 819 567 775 q 471 880 511 864 q 381 896 431 896 q 290 881 331 896 q 223 821 250 865 q 181 695 196 776 q 167 483 167 614 q 181 272 167 353 q 223 146 196 190 q 290 85 250 101 q 381 69 331 69 q 471 85 431 69 q 539 144 511 100 q 582 269 567 189 q 597 481 597 350 z "},"Œ":{"ha":764,"x_min":24,"x_max":738,"o":"m 385 881 q 346 891 367 888 q 297 894 325 894 q 226 879 257 894 q 176 820 196 864 q 145 696 156 776 q 135 483 135 615 q 145 271 135 351 q 176 146 156 190 q 226 86 196 101 q 297 71 257 71 q 346 74 325 71 q 385 85 367 78 l 385 881 m 407 0 q 351 -12 382 -7 q 286 -17 319 -17 q 170 2 219 -17 q 88 75 121 21 q 40 226 56 129 q 24 478 24 324 q 41 733 24 635 q 94 887 58 832 q 180 962 129 942 q 297 982 231 982 q 362 977 332 982 q 417 965 392 972 l 738 965 l 738 878 l 496 878 l 496 543 l 721 543 l 721 457 l 496 457 l 496 88 l 738 88 l 738 0 l 407 0 z "},"Ø":{"ha":764,"x_min":57,"x_max":707,"o":"m 149 64 q 80 215 103 117 q 57 478 57 314 q 78 731 57 633 q 142 885 100 829 q 246 963 185 942 q 386 985 307 985 q 467 978 429 985 q 538 956 506 971 l 593 1082 l 672 1051 l 610 907 q 682 754 657 854 q 707 486 707 654 q 685 233 707 332 q 619 79 663 135 q 515 2 576 24 q 376 -19 454 -19 q 290 -12 329 -19 q 218 14 250 -4 l 164 -112 l 83 -83 l 149 64 m 501 872 q 447 896 476 889 q 381 903 418 903 q 285 887 326 903 q 215 825 244 871 q 171 697 186 779 q 156 483 156 615 q 166 302 156 375 q 197 179 176 229 l 501 872 m 254 99 q 309 71 278 79 q 381 63 340 63 q 476 78 435 63 q 547 140 518 94 q 592 267 576 185 q 608 481 608 349 q 597 671 608 596 q 561 794 585 746 l 254 99 z "},"Ò":{"ha":764,"x_min":57,"x_max":707,"o":"m 707 486 q 685 233 707 332 q 619 79 663 135 q 515 2 576 24 q 376 -19 454 -19 q 240 1 300 -19 q 139 76 179 21 q 78 227 99 131 q 57 478 57 324 q 78 731 57 633 q 142 885 100 829 q 246 963 185 942 q 386 985 307 985 q 523 965 463 985 q 624 890 583 944 q 686 738 665 835 q 707 486 707 640 m 597 481 q 582 693 597 611 q 539 819 567 775 q 471 880 511 864 q 381 896 431 896 q 290 881 331 896 q 223 821 250 865 q 181 695 196 776 q 167 483 167 614 q 181 272 167 353 q 223 146 196 190 q 290 85 250 101 q 381 69 331 69 q 471 85 431 69 q 539 144 511 100 q 582 269 567 189 q 597 481 597 350 m 215 1253 l 451 1128 l 421 1060 l 175 1164 l 215 1253 z "},"Ó":{"ha":764,"x_min":57,"x_max":707,"o":"m 707 486 q 685 233 707 332 q 619 79 663 135 q 515 2 576 24 q 376 -19 454 -19 q 240 1 300 -19 q 139 76 179 21 q 78 227 99 131 q 57 478 57 324 q 78 731 57 633 q 142 885 100 829 q 246 963 185 942 q 386 985 307 985 q 523 965 463 985 q 624 890 583 944 q 686 738 665 835 q 707 486 707 640 m 597 481 q 582 693 597 611 q 539 819 567 775 q 471 880 511 864 q 381 896 431 896 q 290 881 331 896 q 223 821 250 865 q 181 695 196 776 q 167 483 167 614 q 181 272 167 353 q 223 146 196 190 q 290 85 250 101 q 381 69 331 69 q 471 85 431 69 q 539 144 511 100 q 582 269 567 189 q 597 481 597 350 m 538 1253 l 578 1164 l 332 1060 l 301 1128 l 538 1253 z "},"Ô":{"ha":764,"x_min":57,"x_max":707,"o":"m 707 486 q 685 233 707 332 q 619 79 663 135 q 515 2 576 24 q 376 -19 454 -19 q 240 1 300 -19 q 139 76 179 21 q 78 227 99 131 q 57 478 57 324 q 78 731 57 633 q 142 885 100 829 q 246 963 185 942 q 386 985 307 985 q 523 965 463 985 q 624 890 583 944 q 686 738 665 835 q 707 486 707 640 m 597 481 q 582 693 597 611 q 539 819 567 775 q 471 880 511 864 q 381 896 431 896 q 290 881 331 896 q 223 821 250 865 q 181 695 196 776 q 167 483 167 614 q 181 272 167 353 q 223 146 196 190 q 290 85 250 101 q 381 69 331 69 q 471 85 431 69 q 539 144 511 100 q 582 269 567 189 q 597 481 597 350 m 385 1246 l 576 1129 l 540 1063 l 379 1149 l 222 1063 l 188 1129 l 385 1246 z "},"Ö":{"ha":764,"x_min":57,"x_max":707,"o":"m 707 486 q 685 233 707 332 q 619 79 663 135 q 515 2 576 24 q 376 -19 454 -19 q 240 1 300 -19 q 139 76 179 21 q 78 227 99 131 q 57 478 57 324 q 78 731 57 633 q 142 885 100 829 q 246 963 185 942 q 386 985 307 985 q 523 965 463 985 q 624 890 583 944 q 686 738 665 835 q 707 486 707 640 m 597 481 q 582 693 597 611 q 539 819 567 775 q 471 880 511 864 q 381 896 431 896 q 290 881 331 896 q 223 821 250 865 q 181 695 196 776 q 167 483 167 614 q 181 272 167 353 q 223 146 196 190 q 290 85 250 101 q 381 69 331 69 q 471 85 431 69 q 539 144 511 100 q 582 269 567 189 q 597 481 597 350 m 292 1146 q 288 1114 292 1128 q 277 1092 285 1100 q 256 1081 269 1085 q 224 1076 243 1076 q 190 1081 203 1076 q 168 1092 176 1085 q 157 1114 160 1100 q 154 1146 154 1128 q 157 1178 154 1165 q 168 1200 160 1192 q 190 1212 176 1208 q 224 1215 203 1215 q 278 1200 264 1215 q 292 1146 292 1185 m 610 1146 q 607 1114 610 1128 q 596 1092 604 1100 q 574 1081 588 1085 q 540 1076 561 1076 q 506 1081 519 1076 q 485 1092 493 1085 q 475 1114 478 1100 q 472 1146 472 1128 q 475 1178 472 1165 q 485 1200 478 1192 q 506 1212 493 1208 q 540 1215 519 1215 q 596 1200 582 1215 q 610 1146 610 1185 z "},"Õ":{"ha":764,"x_min":57,"x_max":707,"o":"m 707 486 q 685 233 707 332 q 619 79 663 135 q 515 2 576 24 q 376 -19 454 -19 q 240 1 300 -19 q 139 76 179 21 q 78 227 99 131 q 57 478 57 324 q 78 731 57 633 q 142 885 100 829 q 246 963 185 942 q 386 985 307 985 q 523 965 463 985 q 624 890 583 944 q 686 738 665 835 q 707 486 707 640 m 597 481 q 582 693 597 611 q 539 819 567 775 q 471 880 511 864 q 381 896 431 896 q 290 881 331 896 q 223 821 250 865 q 181 695 196 776 q 167 483 167 614 q 181 272 167 353 q 223 146 196 190 q 290 85 250 101 q 381 69 331 69 q 471 85 431 69 q 539 144 511 100 q 582 269 567 189 q 597 481 597 350 m 164 1128 q 220 1185 186 1161 q 306 1208 254 1208 q 353 1201 332 1208 q 392 1183 374 1193 q 428 1166 410 1174 q 465 1158 446 1158 q 513 1172 493 1158 q 550 1207 532 1185 l 600 1160 q 544 1102 578 1126 q 458 1078 510 1078 q 411 1086 432 1078 q 372 1103 390 1094 q 336 1121 354 1113 q 299 1129 318 1129 q 251 1115 271 1129 q 214 1081 232 1101 l 164 1128 z "},"Ŏ":{"ha":764,"x_min":57,"x_max":707,"o":"m 707 486 q 685 233 707 332 q 619 79 663 135 q 515 2 576 24 q 376 -19 454 -19 q 240 1 300 -19 q 139 76 179 21 q 78 227 99 131 q 57 478 57 324 q 78 731 57 633 q 142 885 100 829 q 246 963 185 942 q 386 985 307 985 q 523 965 463 985 q 624 890 583 944 q 686 738 665 835 q 707 486 707 640 m 597 481 q 582 693 597 611 q 539 819 567 775 q 471 880 511 864 q 381 896 431 896 q 290 881 331 896 q 223 821 250 865 q 181 695 196 776 q 167 483 167 614 q 181 272 167 353 q 223 146 196 190 q 290 85 250 101 q 381 69 331 69 q 471 85 431 69 q 539 144 511 100 q 582 269 567 189 q 597 481 597 350 m 274 1222 q 303 1158 276 1185 q 383 1132 331 1132 q 463 1158 438 1132 q 492 1222 489 1185 l 569 1222 q 557 1158 569 1188 q 520 1105 544 1128 q 460 1069 496 1082 q 379 1056 425 1056 q 299 1069 333 1056 q 241 1105 264 1082 q 206 1158 218 1128 q 194 1222 194 1188 l 274 1222 z "},"Ō":{"ha":764,"x_min":57,"x_max":707,"o":"m 707 486 q 685 233 707 332 q 619 79 663 135 q 515 2 576 24 q 376 -19 454 -19 q 240 1 300 -19 q 139 76 179 21 q 78 227 99 131 q 57 478 57 324 q 78 731 57 633 q 142 885 100 829 q 246 963 185 942 q 386 985 307 985 q 523 965 463 985 q 624 890 583 944 q 686 738 665 835 q 707 486 707 640 m 597 481 q 582 693 597 611 q 539 819 567 775 q 471 880 511 864 q 381 896 431 896 q 290 881 331 896 q 223 821 250 865 q 181 695 196 776 q 167 483 167 614 q 181 272 167 353 q 223 146 196 190 q 290 85 250 101 q 381 69 331 69 q 471 85 431 69 q 539 144 511 100 q 582 269 567 189 q 597 481 597 350 m 164 1183 l 599 1183 l 599 1106 l 164 1106 l 164 1183 z "},"Ǒ":{"ha":764,"x_min":57,"x_max":707,"o":"m 707 486 q 685 233 707 332 q 619 79 663 135 q 515 2 576 24 q 376 -19 454 -19 q 240 1 300 -19 q 139 76 179 21 q 78 227 99 131 q 57 478 57 324 q 78 731 57 633 q 142 885 100 829 q 246 963 185 942 q 386 985 307 985 q 523 965 463 985 q 624 890 583 944 q 686 738 665 835 q 707 486 707 640 m 597 481 q 582 693 597 611 q 539 819 567 775 q 471 880 511 864 q 381 896 431 896 q 290 881 331 896 q 223 821 250 865 q 181 695 196 776 q 167 483 167 614 q 181 272 167 353 q 223 146 196 190 q 290 85 250 101 q 381 69 331 69 q 471 85 431 69 q 539 144 511 100 q 582 269 567 189 q 597 481 597 350 m 224 1238 l 385 1151 l 542 1238 l 576 1171 l 379 1056 l 188 1171 l 224 1238 z "},"Ȯ":{"ha":764,"x_min":57,"x_max":707,"o":"m 707 486 q 685 233 707 332 q 619 79 663 135 q 515 2 576 24 q 376 -19 454 -19 q 240 1 300 -19 q 139 76 179 21 q 78 227 99 131 q 57 478 57 324 q 78 731 57 633 q 142 885 100 829 q 246 963 185 942 q 386 985 307 985 q 523 965 463 985 q 624 890 583 944 q 686 738 665 835 q 707 486 707 640 m 597 481 q 582 693 597 611 q 539 819 567 775 q 471 880 511 864 q 381 896 431 896 q 290 881 331 896 q 223 821 250 865 q 181 695 196 776 q 167 483 167 614 q 181 272 167 353 q 223 146 196 190 q 290 85 250 101 q 381 69 331 69 q 471 85 431 69 q 539 144 511 100 q 582 269 567 189 q 597 481 597 350 m 453 1146 q 449 1114 453 1128 q 438 1092 446 1100 q 415 1081 429 1085 q 382 1076 401 1076 q 348 1081 361 1076 q 326 1092 335 1085 q 315 1114 318 1100 q 311 1146 311 1128 q 315 1178 311 1165 q 326 1200 318 1192 q 348 1212 335 1208 q 382 1215 361 1215 q 438 1200 422 1215 q 453 1146 453 1185 z "},"Ő":{"ha":764,"x_min":57,"x_max":733,"o":"m 707 486 q 685 233 707 332 q 619 79 663 135 q 515 2 576 24 q 376 -19 454 -19 q 240 1 300 -19 q 139 76 179 21 q 78 227 99 131 q 57 478 57 324 q 78 731 57 633 q 142 885 100 829 q 246 963 185 942 q 386 985 307 985 q 523 965 463 985 q 624 890 583 944 q 686 738 665 835 q 707 486 707 640 m 597 481 q 582 693 597 611 q 539 819 567 775 q 471 880 511 864 q 381 896 431 896 q 290 881 331 896 q 223 821 250 865 q 181 695 196 776 q 167 483 167 614 q 181 272 167 353 q 223 146 196 190 q 290 85 250 101 q 381 69 331 69 q 471 85 431 69 q 539 144 511 100 q 582 269 567 189 q 597 481 597 350 m 403 1275 l 463 1208 l 250 1051 l 204 1101 l 403 1275 m 683 1261 l 733 1183 l 506 1051 l 464 1108 l 683 1261 z "},"Ǿ":{"ha":764,"x_min":57,"x_max":707,"o":"m 469 1275 l 540 1204 l 354 1026 l 303 1079 l 469 1275 m 149 64 q 80 215 103 117 q 57 478 57 314 q 78 731 57 633 q 142 885 100 829 q 246 963 185 942 q 386 985 307 985 q 467 978 429 985 q 538 956 506 971 l 593 1082 l 672 1051 l 610 907 q 682 754 657 854 q 707 486 707 654 q 685 233 707 332 q 619 79 663 135 q 515 2 576 24 q 376 -19 454 -19 q 290 -12 329 -19 q 218 14 250 -4 l 164 -112 l 83 -83 l 149 64 m 501 872 q 447 896 476 889 q 381 903 418 903 q 285 887 326 903 q 215 825 244 871 q 171 697 186 779 q 156 483 156 615 q 166 302 156 375 q 197 179 176 229 l 501 872 m 254 99 q 309 71 278 79 q 381 63 340 63 q 476 78 435 63 q 547 140 518 94 q 592 267 576 185 q 608 481 608 349 q 597 671 608 596 q 561 794 585 746 l 254 99 z "},"P":{"ha":764,"x_min":113,"x_max":707,"o":"m 113 965 l 382 965 q 526 955 465 965 q 628 916 588 944 q 688 838 669 888 q 707 707 707 788 q 686 575 707 629 q 624 487 665 521 q 518 436 582 453 q 367 419 454 419 l 222 419 l 222 0 l 113 0 l 113 965 m 372 507 q 542 551 488 507 q 597 701 597 596 q 585 790 597 756 q 546 844 572 825 q 478 872 519 864 q 378 879 436 879 l 222 879 l 222 507 l 372 507 z "},"Þ":{"ha":764,"x_min":113,"x_max":707,"o":"m 113 965 l 222 965 l 222 763 l 382 763 q 526 752 465 763 q 628 713 588 742 q 688 635 669 685 q 707 506 707 585 q 686 374 707 428 q 624 285 665 319 q 518 234 582 250 q 367 218 454 218 l 222 218 l 222 0 l 113 0 l 113 965 m 372 304 q 542 349 488 304 q 597 500 597 394 q 585 588 597 554 q 546 642 572 622 q 478 669 519 661 q 378 676 436 676 l 222 676 l 222 304 l 372 304 z "},"Q":{"ha":764,"x_min":57,"x_max":718,"o":"m 718 -107 l 640 -158 l 522 10 q 458 -12 493 -6 q 376 -19 422 -19 q 240 1 300 -19 q 139 76 179 21 q 78 227 99 131 q 57 478 57 324 q 78 731 57 633 q 142 885 100 829 q 246 963 185 942 q 386 985 307 985 q 523 965 463 985 q 624 890 583 944 q 686 738 665 835 q 707 486 707 640 q 700 334 707 401 q 680 214 693 267 q 647 123 667 161 q 601 58 626 85 l 718 -107 m 543 146 q 565 201 556 169 q 583 272 575 232 q 594 364 590 313 q 597 481 597 415 q 582 693 597 611 q 539 819 567 775 q 471 880 511 864 q 381 896 431 896 q 290 881 331 896 q 223 821 250 865 q 181 695 196 776 q 167 483 167 614 q 181 272 167 353 q 223 146 196 190 q 290 85 250 101 q 381 69 331 69 q 432 74 410 69 q 471 86 454 78 l 360 243 l 438 294 l 543 146 z "},"R":{"ha":764,"x_min":104,"x_max":718,"o":"m 104 965 l 369 965 q 519 954 458 965 q 618 916 579 943 q 674 843 657 889 q 690 726 690 797 q 628 540 690 601 q 436 468 567 479 l 718 0 l 588 0 l 321 457 l 215 457 l 215 0 l 104 0 l 104 965 m 365 543 q 469 553 428 543 q 535 585 510 564 q 570 640 560 607 q 581 721 581 674 q 569 799 581 768 q 533 848 558 831 q 467 872 508 865 q 365 879 425 879 l 215 879 l 215 543 l 365 543 z "},"Ŕ":{"ha":764,"x_min":104,"x_max":718,"o":"m 104 965 l 369 965 q 519 954 458 965 q 618 916 579 943 q 674 843 657 889 q 690 726 690 797 q 628 540 690 601 q 436 468 567 479 l 718 0 l 588 0 l 321 457 l 215 457 l 215 0 l 104 0 l 104 965 m 365 543 q 469 553 428 543 q 535 585 510 564 q 570 640 560 607 q 581 721 581 674 q 569 799 581 768 q 533 848 558 831 q 467 872 508 865 q 365 879 425 879 l 215 879 l 215 543 l 365 543 m 518 1253 l 558 1164 l 313 1060 l 282 1128 l 518 1253 z "},"Ř":{"ha":764,"x_min":104,"x_max":718,"o":"m 104 965 l 369 965 q 519 954 458 965 q 618 916 579 943 q 674 843 657 889 q 690 726 690 797 q 628 540 690 601 q 436 468 567 479 l 718 0 l 588 0 l 321 457 l 215 457 l 215 0 l 104 0 l 104 965 m 365 543 q 469 553 428 543 q 535 585 510 564 q 570 640 560 607 q 581 721 581 674 q 569 799 581 768 q 533 848 558 831 q 467 872 508 865 q 365 879 425 879 l 215 879 l 215 543 l 365 543 m 210 1238 l 371 1151 l 528 1238 l 563 1171 l 365 1056 l 174 1171 l 210 1238 z "},"Ŗ":{"ha":764,"x_min":104,"x_max":718,"o":"m 104 965 l 369 965 q 519 954 458 965 q 618 916 579 943 q 674 843 657 889 q 690 726 690 797 q 628 540 690 601 q 436 468 567 479 l 718 0 l 588 0 l 321 457 l 215 457 l 215 0 l 104 0 l 104 965 m 365 543 q 469 553 428 543 q 535 585 510 564 q 570 640 560 607 q 581 721 581 674 q 569 799 581 768 q 533 848 558 831 q 467 872 508 865 q 365 879 425 879 l 215 879 l 215 543 l 365 543 m 178 -254 q 213 -237 193 -247 q 253 -217 233 -228 q 292 -196 274 -206 q 324 -178 311 -186 q 322 -164 322 -169 q 322 -154 322 -158 q 338 -114 322 -125 q 383 -103 353 -103 q 431 -117 418 -103 q 444 -168 444 -132 q 439 -199 444 -186 q 417 -222 433 -211 q 374 -244 401 -233 q 301 -268 346 -254 q 245 -287 272 -279 q 193 -304 218 -296 l 178 -254 z "},"S":{"ha":764,"x_min":86,"x_max":688,"o":"m 103 103 q 220 79 164 88 q 342 71 276 71 q 523 117 465 71 q 581 240 581 163 q 572 300 581 275 q 537 349 563 325 q 466 397 511 372 q 349 456 421 421 q 223 519 274 490 q 142 578 172 547 q 99 649 111 610 q 86 740 86 688 q 106 839 86 794 q 165 915 125 883 q 268 964 206 946 q 418 982 331 982 q 536 974 482 982 q 638 951 590 965 l 624 867 q 526 887 574 879 q 415 894 478 894 q 313 884 354 894 q 244 854 271 874 q 204 808 217 835 q 192 749 192 781 q 200 692 192 717 q 233 645 208 668 q 301 598 258 622 q 415 542 344 574 q 546 475 494 504 q 629 414 597 446 q 674 343 661 382 q 688 251 688 304 q 665 140 688 190 q 600 56 643 90 q 492 3 557 22 q 339 -17 426 -17 q 213 -8 272 -17 q 92 18 153 1 l 103 103 z "},"Ş":{"ha":764,"x_min":86,"x_max":688,"o":"m 103 103 q 220 79 164 88 q 342 71 276 71 q 523 117 465 71 q 581 240 581 163 q 572 300 581 275 q 537 349 563 325 q 466 397 511 372 q 349 456 421 421 q 223 519 274 490 q 142 578 172 547 q 99 649 111 610 q 86 740 86 688 q 106 839 86 794 q 165 915 125 883 q 268 964 206 946 q 418 982 331 982 q 536 974 482 982 q 638 951 590 965 l 624 867 q 526 887 574 879 q 415 894 478 894 q 313 884 354 894 q 244 854 271 874 q 204 808 217 835 q 192 749 192 781 q 200 692 192 717 q 233 645 208 668 q 301 598 258 622 q 415 542 344 574 q 546 475 494 504 q 629 414 597 446 q 674 343 661 382 q 688 251 688 304 q 611 67 688 138 q 388 -14 535 -4 l 381 -74 q 485 -102 451 -76 q 519 -181 519 -128 q 474 -274 519 -240 q 349 -308 429 -308 q 299 -306 324 -308 q 253 -299 275 -304 l 261 -237 q 301 -244 281 -242 q 343 -246 322 -246 q 431 -185 431 -246 q 411 -144 431 -157 q 342 -131 392 -131 l 301 -131 l 313 -15 q 199 -6 253 -14 q 92 18 144 3 l 103 103 z "},"ẞ":{"ha":764,"x_min":86,"x_max":710,"o":"m 86 965 l 639 965 l 639 893 l 463 579 q 566 548 521 569 q 643 491 611 526 q 692 408 675 456 q 710 297 710 360 q 636 65 710 142 q 429 -12 563 -12 q 356 -8 390 -12 q 289 6 321 -4 l 299 88 q 353 78 328 82 q 413 74 379 74 q 550 126 501 74 q 599 292 599 178 q 536 442 599 389 q 344 499 474 496 l 344 571 l 518 878 l 196 878 l 196 0 l 86 0 l 86 965 z "},"Ś":{"ha":764,"x_min":86,"x_max":688,"o":"m 103 103 q 220 79 164 88 q 342 71 276 71 q 523 117 465 71 q 581 240 581 163 q 572 300 581 275 q 537 349 563 325 q 466 397 511 372 q 349 456 421 421 q 223 519 274 490 q 142 578 172 547 q 99 649 111 610 q 86 740 86 688 q 106 839 86 794 q 165 915 125 883 q 268 964 206 946 q 418 982 331 982 q 536 974 482 982 q 638 951 590 965 l 624 867 q 526 887 574 879 q 415 894 478 894 q 313 884 354 894 q 244 854 271 874 q 204 808 217 835 q 192 749 192 781 q 200 692 192 717 q 233 645 208 668 q 301 598 258 622 q 415 542 344 574 q 546 475 494 504 q 629 414 597 446 q 674 343 661 382 q 688 251 688 304 q 665 140 688 190 q 600 56 643 90 q 492 3 557 22 q 339 -17 426 -17 q 213 -8 272 -17 q 92 18 153 1 l 103 103 m 540 1253 l 581 1164 l 335 1060 l 304 1128 l 540 1253 z "},"Ŝ":{"ha":764,"x_min":86,"x_max":688,"o":"m 103 103 q 220 79 164 88 q 342 71 276 71 q 523 117 465 71 q 581 240 581 163 q 572 300 581 275 q 537 349 563 325 q 466 397 511 372 q 349 456 421 421 q 223 519 274 490 q 142 578 172 547 q 99 649 111 610 q 86 740 86 688 q 106 839 86 794 q 165 915 125 883 q 268 964 206 946 q 418 982 331 982 q 536 974 482 982 q 638 951 590 965 l 624 867 q 526 887 574 879 q 415 894 478 894 q 313 884 354 894 q 244 854 271 874 q 204 808 217 835 q 192 749 192 781 q 200 692 192 717 q 233 645 208 668 q 301 598 258 622 q 415 542 344 574 q 546 475 494 504 q 629 414 597 446 q 674 343 661 382 q 688 251 688 304 q 665 140 688 190 q 600 56 643 90 q 492 3 557 22 q 339 -17 426 -17 q 213 -8 272 -17 q 92 18 153 1 l 103 103 m 396 1246 l 588 1129 l 551 1063 l 390 1149 l 233 1063 l 199 1129 l 396 1246 z "},"Š":{"ha":764,"x_min":86,"x_max":688,"o":"m 103 103 q 220 79 164 88 q 342 71 276 71 q 523 117 465 71 q 581 240 581 163 q 572 300 581 275 q 537 349 563 325 q 466 397 511 372 q 349 456 421 421 q 223 519 274 490 q 142 578 172 547 q 99 649 111 610 q 86 740 86 688 q 106 839 86 794 q 165 915 125 883 q 268 964 206 946 q 418 982 331 982 q 536 974 482 982 q 638 951 590 965 l 624 867 q 526 887 574 879 q 415 894 478 894 q 313 884 354 894 q 244 854 271 874 q 204 808 217 835 q 192 749 192 781 q 200 692 192 717 q 233 645 208 668 q 301 598 258 622 q 415 542 344 574 q 546 475 494 504 q 629 414 597 446 q 674 343 661 382 q 688 251 688 304 q 665 140 688 190 q 600 56 643 90 q 492 3 557 22 q 339 -17 426 -17 q 213 -8 272 -17 q 92 18 153 1 l 103 103 m 238 1238 l 399 1151 l 556 1238 l 590 1171 l 393 1056 l 201 1171 l 238 1238 z "},"Ș":{"ha":764,"x_min":86,"x_max":688,"o":"m 103 103 q 220 79 164 88 q 342 71 276 71 q 523 117 465 71 q 581 240 581 163 q 572 300 581 275 q 537 349 563 325 q 466 397 511 372 q 349 456 421 421 q 223 519 274 490 q 142 578 172 547 q 99 649 111 610 q 86 740 86 688 q 106 839 86 794 q 165 915 125 883 q 268 964 206 946 q 418 982 331 982 q 536 974 482 982 q 638 951 590 965 l 624 867 q 526 887 574 879 q 415 894 478 894 q 313 884 354 894 q 244 854 271 874 q 204 808 217 835 q 192 749 192 781 q 200 692 192 717 q 233 645 208 668 q 301 598 258 622 q 415 542 344 574 q 546 475 494 504 q 629 414 597 446 q 674 343 661 382 q 688 251 688 304 q 665 140 688 190 q 600 56 643 90 q 492 3 557 22 q 339 -17 426 -17 q 213 -8 272 -17 q 92 18 153 1 l 103 103 m 171 -254 q 206 -237 186 -247 q 247 -217 226 -228 q 285 -196 267 -206 q 317 -178 304 -186 q 315 -164 315 -169 q 315 -154 315 -158 q 331 -114 315 -125 q 376 -103 346 -103 q 424 -117 411 -103 q 438 -168 438 -132 q 432 -199 438 -186 q 410 -222 426 -211 q 367 -244 394 -233 q 294 -268 339 -254 q 238 -287 265 -279 q 186 -304 211 -296 l 171 -254 z "},"T":{"ha":764,"x_min":38,"x_max":726,"o":"m 326 875 l 38 875 l 38 965 l 726 965 l 726 875 l 436 875 l 436 0 l 326 0 l 326 875 z "},"Ŧ":{"ha":764,"x_min":38,"x_max":726,"o":"m 326 451 l 122 451 l 122 535 l 326 535 l 326 875 l 38 875 l 38 965 l 726 965 l 726 875 l 436 875 l 436 535 l 640 535 l 640 451 l 436 451 l 436 0 l 326 0 l 326 451 z "},"Ť":{"ha":764,"x_min":38,"x_max":726,"o":"m 326 875 l 38 875 l 38 965 l 726 965 l 726 875 l 436 875 l 436 0 l 326 0 l 326 875 m 224 1238 l 385 1151 l 542 1238 l 576 1171 l 379 1056 l 188 1171 l 224 1238 z "},"Ț":{"ha":764,"x_min":38,"x_max":726,"o":"m 326 875 l 38 875 l 38 965 l 726 965 l 726 875 l 436 875 l 436 0 l 326 0 l 326 875 m 174 -254 q 209 -237 189 -247 q 249 -217 229 -228 q 288 -196 269 -206 q 319 -178 307 -186 q 318 -164 318 -169 q 318 -154 318 -158 q 333 -114 318 -125 q 379 -103 349 -103 q 427 -117 414 -103 q 440 -168 440 -132 q 435 -199 440 -186 q 413 -222 429 -211 q 369 -244 397 -233 q 297 -268 342 -254 q 241 -287 268 -279 q 189 -304 214 -296 l 174 -254 z "},"Ţ":{"ha":764,"x_min":38,"x_max":726,"o":"m 326 875 l 38 875 l 38 965 l 726 965 l 726 875 l 436 875 l 436 0 l 417 0 l 410 -74 q 514 -102 479 -76 q 549 -181 549 -128 q 503 -274 549 -240 q 376 -308 457 -308 q 328 -306 351 -308 q 281 -299 304 -304 l 289 -237 q 329 -244 308 -242 q 372 -246 350 -246 q 460 -185 460 -246 q 440 -144 460 -157 q 371 -131 419 -131 l 329 -131 l 342 0 l 326 0 l 326 875 z "},"U":{"ha":764,"x_min":81,"x_max":685,"o":"m 190 965 l 190 322 q 199 215 190 263 q 228 136 207 168 q 286 87 249 104 q 383 69 324 69 q 480 87 443 69 q 538 137 517 104 q 566 216 558 169 q 574 322 574 263 l 574 965 l 685 965 l 685 329 q 669 185 685 250 q 619 76 654 121 q 526 6 585 31 q 378 -19 467 -19 q 233 3 290 -19 q 142 70 176 26 q 94 176 108 114 q 81 318 81 239 l 81 965 l 190 965 z "},"Ų":{"ha":764,"x_min":81,"x_max":685,"o":"m 190 965 l 190 322 q 199 215 190 263 q 228 136 207 168 q 286 87 249 104 q 383 69 324 69 q 480 87 443 69 q 538 137 517 104 q 566 216 558 169 q 574 322 574 263 l 574 965 l 685 965 l 685 329 q 674 203 685 257 q 642 112 663 150 q 593 47 622 74 q 526 1 564 21 q 471 -35 496 -14 q 428 -78 446 -56 q 401 -125 411 -101 q 392 -171 392 -149 q 408 -218 392 -203 q 457 -233 424 -233 q 501 -229 478 -233 q 546 -218 524 -225 l 557 -290 q 499 -304 528 -300 q 436 -308 469 -308 q 332 -280 368 -308 q 296 -190 296 -251 q 306 -136 296 -161 q 331 -90 315 -111 q 366 -49 346 -68 q 406 -17 386 -31 q 384 -18 393 -18 q 365 -18 375 -18 q 235 3 289 -18 q 146 65 181 24 q 96 170 111 107 q 81 318 81 233 l 81 965 l 190 965 z "},"Ù":{"ha":764,"x_min":81,"x_max":685,"o":"m 190 965 l 190 322 q 199 215 190 263 q 228 136 207 168 q 286 87 249 104 q 383 69 324 69 q 480 87 443 69 q 538 137 517 104 q 566 216 558 169 q 574 322 574 263 l 574 965 l 685 965 l 685 329 q 669 185 685 250 q 619 76 654 121 q 526 6 585 31 q 378 -19 467 -19 q 233 3 290 -19 q 142 70 176 26 q 94 176 108 114 q 81 318 81 239 l 81 965 l 190 965 m 215 1253 l 451 1128 l 421 1060 l 175 1164 l 215 1253 z "},"Ú":{"ha":764,"x_min":81,"x_max":685,"o":"m 190 965 l 190 322 q 199 215 190 263 q 228 136 207 168 q 286 87 249 104 q 383 69 324 69 q 480 87 443 69 q 538 137 517 104 q 566 216 558 169 q 574 322 574 263 l 574 965 l 685 965 l 685 329 q 669 185 685 250 q 619 76 654 121 q 526 6 585 31 q 378 -19 467 -19 q 233 3 290 -19 q 142 70 176 26 q 94 176 108 114 q 81 318 81 239 l 81 965 l 190 965 m 539 1253 l 579 1164 l 333 1060 l 303 1128 l 539 1253 z "},"Û":{"ha":764,"x_min":81,"x_max":685,"o":"m 190 965 l 190 322 q 199 215 190 263 q 228 136 207 168 q 286 87 249 104 q 383 69 324 69 q 480 87 443 69 q 538 137 517 104 q 566 216 558 169 q 574 322 574 263 l 574 965 l 685 965 l 685 329 q 669 185 685 250 q 619 76 654 121 q 526 6 585 31 q 378 -19 467 -19 q 233 3 290 -19 q 142 70 176 26 q 94 176 108 114 q 81 318 81 239 l 81 965 l 190 965 m 385 1246 l 576 1129 l 540 1063 l 379 1149 l 222 1063 l 188 1129 l 385 1246 z "},"Ü":{"ha":764,"x_min":81,"x_max":685,"o":"m 190 965 l 190 322 q 199 215 190 263 q 228 136 207 168 q 286 87 249 104 q 383 69 324 69 q 480 87 443 69 q 538 137 517 104 q 566 216 558 169 q 574 322 574 263 l 574 965 l 685 965 l 685 329 q 669 185 685 250 q 619 76 654 121 q 526 6 585 31 q 378 -19 467 -19 q 233 3 290 -19 q 142 70 176 26 q 94 176 108 114 q 81 318 81 239 l 81 965 l 190 965 m 292 1146 q 288 1114 292 1128 q 277 1092 285 1100 q 256 1081 269 1085 q 224 1076 243 1076 q 190 1081 203 1076 q 168 1092 176 1085 q 157 1114 160 1100 q 154 1146 154 1128 q 157 1178 154 1165 q 168 1200 160 1192 q 190 1212 176 1208 q 224 1215 203 1215 q 278 1200 264 1215 q 292 1146 292 1185 m 610 1146 q 607 1114 610 1128 q 596 1092 604 1100 q 574 1081 588 1085 q 540 1076 561 1076 q 506 1081 519 1076 q 485 1092 493 1085 q 475 1114 478 1100 q 472 1146 472 1128 q 475 1178 472 1165 q 485 1200 478 1192 q 506 1212 493 1208 q 540 1215 519 1215 q 596 1200 582 1215 q 610 1146 610 1185 z "},"Ũ":{"ha":764,"x_min":81,"x_max":685,"o":"m 190 965 l 190 322 q 199 215 190 263 q 228 136 207 168 q 286 87 249 104 q 383 69 324 69 q 480 87 443 69 q 538 137 517 104 q 566 216 558 169 q 574 322 574 263 l 574 965 l 685 965 l 685 329 q 669 185 685 250 q 619 76 654 121 q 526 6 585 31 q 378 -19 467 -19 q 233 3 290 -19 q 142 70 176 26 q 94 176 108 114 q 81 318 81 239 l 81 965 l 190 965 m 164 1128 q 220 1185 186 1161 q 306 1208 254 1208 q 353 1201 332 1208 q 392 1183 374 1193 q 428 1166 410 1174 q 465 1158 446 1158 q 513 1172 493 1158 q 550 1207 532 1185 l 600 1160 q 544 1102 578 1126 q 458 1078 510 1078 q 411 1086 432 1078 q 372 1103 390 1094 q 336 1121 354 1113 q 299 1129 318 1129 q 251 1115 271 1129 q 214 1081 232 1101 l 164 1128 z "},"Ŭ":{"ha":764,"x_min":81,"x_max":685,"o":"m 190 965 l 190 322 q 199 215 190 263 q 228 136 207 168 q 286 87 249 104 q 383 69 324 69 q 480 87 443 69 q 538 137 517 104 q 566 216 558 169 q 574 322 574 263 l 574 965 l 685 965 l 685 329 q 669 185 685 250 q 619 76 654 121 q 526 6 585 31 q 378 -19 467 -19 q 233 3 290 -19 q 142 70 176 26 q 94 176 108 114 q 81 318 81 239 l 81 965 l 190 965 m 274 1222 q 303 1158 276 1185 q 383 1132 331 1132 q 463 1158 438 1132 q 492 1222 489 1185 l 569 1222 q 557 1158 569 1188 q 520 1105 544 1128 q 460 1069 496 1082 q 379 1056 425 1056 q 299 1069 333 1056 q 241 1105 264 1082 q 206 1158 218 1128 q 194 1222 194 1188 l 274 1222 z "},"Ū":{"ha":764,"x_min":81,"x_max":685,"o":"m 190 965 l 190 322 q 199 215 190 263 q 228 136 207 168 q 286 87 249 104 q 383 69 324 69 q 480 87 443 69 q 538 137 517 104 q 566 216 558 169 q 574 322 574 263 l 574 965 l 685 965 l 685 329 q 669 185 685 250 q 619 76 654 121 q 526 6 585 31 q 378 -19 467 -19 q 233 3 290 -19 q 142 70 176 26 q 94 176 108 114 q 81 318 81 239 l 81 965 l 190 965 m 165 1183 l 600 1183 l 600 1106 l 165 1106 l 165 1183 z "},"Ǔ":{"ha":764,"x_min":81,"x_max":685,"o":"m 190 965 l 190 322 q 199 215 190 263 q 228 136 207 168 q 286 87 249 104 q 383 69 324 69 q 480 87 443 69 q 538 137 517 104 q 566 216 558 169 q 574 322 574 263 l 574 965 l 685 965 l 685 329 q 669 185 685 250 q 619 76 654 121 q 526 6 585 31 q 378 -19 467 -19 q 233 3 290 -19 q 142 70 176 26 q 94 176 108 114 q 81 318 81 239 l 81 965 l 190 965 m 224 1238 l 385 1151 l 542 1238 l 576 1171 l 379 1056 l 188 1171 l 224 1238 z "},"Ů":{"ha":764,"x_min":81,"x_max":685,"o":"m 190 965 l 190 322 q 199 215 190 263 q 228 136 207 168 q 286 87 249 104 q 383 69 324 69 q 480 87 443 69 q 538 137 517 104 q 566 216 558 169 q 574 322 574 263 l 574 965 l 685 965 l 685 329 q 669 185 685 250 q 619 76 654 121 q 526 6 585 31 q 378 -19 467 -19 q 233 3 290 -19 q 142 70 176 26 q 94 176 108 114 q 81 318 81 239 l 81 965 l 190 965 m 526 1153 q 487 1053 526 1092 q 383 1015 447 1015 q 280 1053 319 1015 q 240 1153 240 1092 q 280 1251 240 1213 q 383 1290 319 1290 q 440 1280 414 1290 q 486 1251 467 1269 q 516 1208 506 1233 q 526 1153 526 1183 m 457 1153 q 438 1208 457 1188 q 383 1228 418 1228 q 329 1208 349 1228 q 310 1153 310 1188 q 329 1098 310 1118 q 383 1078 349 1078 q 438 1098 418 1078 q 457 1153 457 1118 z "},"Ű":{"ha":764,"x_min":81,"x_max":729,"o":"m 190 965 l 190 322 q 199 215 190 263 q 228 136 207 168 q 286 87 249 104 q 383 69 324 69 q 480 87 443 69 q 538 137 517 104 q 566 216 558 169 q 574 322 574 263 l 574 965 l 685 965 l 685 329 q 669 185 685 250 q 619 76 654 121 q 526 6 585 31 q 378 -19 467 -19 q 233 3 290 -19 q 142 70 176 26 q 94 176 108 114 q 81 318 81 239 l 81 965 l 190 965 m 399 1275 l 458 1208 l 246 1051 l 200 1101 l 399 1275 m 679 1261 l 729 1183 l 501 1051 l 460 1108 l 679 1261 z "},"V":{"ha":764,"x_min":19,"x_max":744,"o":"m 19 965 l 136 965 l 300 399 q 344 242 324 321 q 385 78 364 163 l 386 78 q 426 241 407 163 q 469 399 446 319 l 635 965 l 744 965 l 463 0 l 303 0 l 19 965 z "},"W":{"ha":764,"x_min":0,"x_max":764,"o":"m 0 965 l 99 965 l 175 385 q 184 313 179 347 q 192 244 189 279 q 199 174 196 210 q 206 97 203 138 l 210 97 q 222 178 215 138 q 238 269 228 219 l 317 743 l 447 743 l 528 269 q 543 179 538 219 q 554 97 549 139 l 558 97 q 566 174 563 138 q 573 245 569 211 q 581 313 576 279 q 590 385 585 347 l 667 965 l 764 965 l 638 0 l 485 0 l 404 474 q 397 521 400 501 q 391 558 393 540 q 387 594 389 576 q 383 635 385 613 l 379 635 q 376 594 378 613 q 371 557 374 575 q 365 519 368 539 q 358 474 363 500 l 278 0 l 126 0 l 0 965 z "},"Ŵ":{"ha":764,"x_min":0,"x_max":764,"o":"m 0 965 l 99 965 l 175 385 q 184 313 179 347 q 192 244 189 279 q 199 174 196 210 q 206 97 203 138 l 210 97 q 222 178 215 138 q 238 269 228 219 l 317 743 l 447 743 l 528 269 q 543 179 538 219 q 554 97 549 139 l 558 97 q 566 174 563 138 q 573 245 569 211 q 581 313 576 279 q 590 385 585 347 l 667 965 l 764 965 l 638 0 l 485 0 l 404 474 q 397 521 400 501 q 391 558 393 540 q 387 594 389 576 q 383 635 385 613 l 379 635 q 376 594 378 613 q 371 557 374 575 q 365 519 368 539 q 358 474 363 500 l 278 0 l 126 0 l 0 965 m 385 1246 l 576 1129 l 540 1063 l 379 1149 l 222 1063 l 188 1129 l 385 1246 z "},"X":{"ha":764,"x_min":19,"x_max":744,"o":"m 303 492 l 32 965 l 160 965 l 388 561 l 390 563 q 426 629 410 600 q 461 694 442 658 l 615 965 l 732 965 l 460 493 l 744 0 l 617 0 l 374 422 l 371 422 q 338 358 353 388 q 303 294 322 329 l 138 0 l 19 0 l 303 492 z "},"Y":{"ha":764,"x_min":17,"x_max":747,"o":"m 326 364 l 17 965 l 132 965 l 296 661 q 322 609 311 632 q 344 565 333 586 q 364 522 354 544 q 386 475 374 500 l 389 475 q 431 569 411 528 q 476 661 451 610 l 633 965 l 747 965 l 436 363 l 436 0 l 326 0 l 326 364 z "},"Ý":{"ha":764,"x_min":17,"x_max":747,"o":"m 326 364 l 17 965 l 132 965 l 296 661 q 322 609 311 632 q 344 565 333 586 q 364 522 354 544 q 386 475 374 500 l 389 475 q 431 569 411 528 q 476 661 451 610 l 633 965 l 747 965 l 436 363 l 436 0 l 326 0 l 326 364 m 540 1253 l 581 1164 l 335 1060 l 304 1128 l 540 1253 z "},"Ŷ":{"ha":764,"x_min":17,"x_max":747,"o":"m 326 364 l 17 965 l 132 965 l 296 661 q 322 609 311 632 q 344 565 333 586 q 364 522 354 544 q 386 475 374 500 l 389 475 q 431 569 411 528 q 476 661 451 610 l 633 965 l 747 965 l 436 363 l 436 0 l 326 0 l 326 364 m 386 1246 l 578 1129 l 542 1063 l 381 1149 l 224 1063 l 189 1129 l 386 1246 z "},"Ÿ":{"ha":764,"x_min":17,"x_max":747,"o":"m 326 364 l 17 965 l 132 965 l 296 661 q 322 609 311 632 q 344 565 333 586 q 364 522 354 544 q 386 475 374 500 l 389 475 q 431 569 411 528 q 476 661 451 610 l 633 965 l 747 965 l 436 363 l 436 0 l 326 0 l 326 364 m 293 1146 q 290 1114 293 1128 q 278 1092 286 1100 q 258 1081 271 1085 q 225 1076 244 1076 q 191 1081 204 1076 q 169 1092 178 1085 q 158 1114 161 1100 q 156 1146 156 1128 q 158 1178 156 1165 q 169 1200 161 1192 q 191 1212 178 1208 q 225 1215 204 1215 q 279 1200 265 1215 q 293 1146 293 1185 m 611 1146 q 608 1114 611 1128 q 597 1092 606 1100 q 576 1081 589 1085 q 542 1076 563 1076 q 508 1081 521 1076 q 487 1092 494 1085 q 476 1114 479 1100 q 474 1146 474 1128 q 476 1178 474 1165 q 487 1200 479 1192 q 508 1212 494 1208 q 542 1215 521 1215 q 597 1200 583 1215 q 611 1146 611 1185 z "},"Ȳ":{"ha":764,"x_min":17,"x_max":747,"o":"m 326 364 l 17 965 l 132 965 l 296 661 q 322 609 311 632 q 344 565 333 586 q 364 522 354 544 q 386 475 374 500 l 389 475 q 431 569 411 528 q 476 661 451 610 l 633 965 l 747 965 l 436 363 l 436 0 l 326 0 l 326 364 m 167 1183 l 601 1183 l 601 1106 l 167 1106 l 167 1183 z "},"Z":{"ha":764,"x_min":69,"x_max":693,"o":"m 69 72 l 551 875 l 88 875 l 88 965 l 682 965 l 682 893 l 199 90 l 693 90 l 693 0 l 69 0 l 69 72 z "},"Ź":{"ha":764,"x_min":69,"x_max":693,"o":"m 69 72 l 551 875 l 88 875 l 88 965 l 682 965 l 682 893 l 199 90 l 693 90 l 693 0 l 69 0 l 69 72 m 551 1253 l 592 1164 l 346 1060 l 315 1128 l 551 1253 z "},"Ž":{"ha":764,"x_min":69,"x_max":693,"o":"m 69 72 l 551 875 l 88 875 l 88 965 l 682 965 l 682 893 l 199 90 l 693 90 l 693 0 l 69 0 l 69 72 m 244 1238 l 406 1151 l 563 1238 l 597 1171 l 400 1056 l 208 1171 l 244 1238 z "},"Ż":{"ha":764,"x_min":69,"x_max":693,"o":"m 69 72 l 551 875 l 88 875 l 88 965 l 682 965 l 682 893 l 199 90 l 693 90 l 693 0 l 69 0 l 69 72 m 467 1146 q 463 1114 467 1128 q 451 1092 460 1100 q 429 1081 443 1085 q 396 1076 415 1076 q 362 1081 375 1076 q 340 1092 349 1085 q 328 1114 332 1100 q 325 1146 325 1128 q 328 1178 325 1165 q 340 1200 332 1192 q 362 1212 349 1208 q 396 1215 375 1215 q 451 1200 436 1215 q 467 1146 467 1185 z "},"`":{"ha":764,"x_min":263,"x_max":500,"o":"m 333 1040 l 500 844 l 449 792 l 263 969 l 333 1040 z "},"´":{"ha":764,"x_min":263,"x_max":500,"o":"m 429 1040 l 500 969 l 314 792 l 263 844 l 429 1040 z "},"ˆ":{"ha":764,"x_min":197,"x_max":565,"o":"m 381 1031 l 565 854 l 515 793 l 379 919 l 244 796 l 197 853 l 381 1031 z "},"¨":{"ha":764,"x_min":178,"x_max":585,"o":"m 315 908 q 312 876 315 890 q 301 855 308 863 q 280 844 293 847 q 246 840 267 840 q 192 855 206 840 q 178 908 178 869 q 192 963 178 947 q 246 978 206 978 q 280 974 267 978 q 301 963 293 971 q 312 941 308 954 q 315 908 315 928 m 585 908 q 571 855 585 869 q 517 840 557 840 q 483 844 496 840 q 462 855 469 847 q 451 876 454 863 q 447 908 447 890 q 451 941 447 928 q 462 963 454 954 q 483 974 469 971 q 517 978 496 978 q 571 963 557 978 q 585 908 585 947 z "},"˜":{"ha":764,"x_min":174,"x_max":590,"o":"m 174 869 q 195 910 182 890 q 225 946 208 931 q 263 970 242 961 q 308 979 283 979 q 354 968 333 979 q 394 943 375 957 q 429 918 413 929 q 464 907 446 907 q 505 926 489 907 q 533 976 521 946 l 590 938 q 568 896 581 915 q 539 860 556 876 q 501 835 522 844 q 456 826 481 826 q 409 838 429 826 q 370 862 389 849 q 335 887 351 875 q 300 899 318 899 q 259 879 275 899 q 231 831 243 860 l 174 869 z "},"˘":{"ha":764,"x_min":213,"x_max":551,"o":"m 290 992 q 316 917 292 946 q 383 888 340 888 q 450 917 426 888 q 474 992 474 946 l 551 992 q 506 860 551 911 q 379 810 461 810 q 256 860 300 810 q 213 992 213 911 l 290 992 z "},"¯":{"ha":764,"x_min":201,"x_max":561,"o":"m 201 944 l 561 944 l 561 863 l 201 863 l 201 944 z "},"ˇ":{"ha":764,"x_min":197,"x_max":565,"o":"m 247 1024 l 383 897 l 518 1022 l 565 965 l 381 786 l 197 964 l 247 1024 z "},"ʼ":{"ha":764,"x_min":300,"x_max":463,"o":"m 300 778 q 318 812 308 793 q 336 849 328 831 q 353 884 344 867 q 367 915 361 901 q 348 933 356 921 q 340 974 340 946 q 353 1020 340 1007 q 401 1033 365 1033 q 450 1020 438 1033 q 463 974 463 1007 q 459 940 463 954 q 447 908 456 925 q 401 835 429 876 q 342 754 372 793 l 300 778 z "},"˙":{"ha":764,"x_min":311,"x_max":453,"o":"m 453 908 q 438 855 453 869 q 382 840 424 840 q 326 855 340 840 q 311 908 311 869 q 326 963 311 947 q 382 978 340 978 q 438 963 424 978 q 453 908 453 947 z "},"˚":{"ha":764,"x_min":242,"x_max":522,"o":"m 522 915 q 512 857 522 883 q 483 812 501 831 q 438 783 464 793 q 382 772 413 772 q 281 812 319 772 q 242 915 242 851 q 281 1018 242 978 q 382 1058 321 1058 q 439 1048 413 1058 q 483 1018 465 1038 q 512 972 501 999 q 522 915 522 946 m 451 915 q 433 974 451 951 q 382 996 415 996 q 331 974 349 996 q 313 915 313 951 q 331 856 313 878 q 382 833 349 833 q 433 856 415 833 q 451 915 451 878 z "},"˝":{"ha":764,"x_min":157,"x_max":606,"o":"m 306 1042 l 379 989 l 213 790 l 157 831 l 306 1042 m 535 1031 l 606 972 l 422 789 l 368 833 l 535 1031 z "},"̕":{"ha":764,"x_min":311,"x_max":451,"o":"m 353 1071 l 451 1054 l 385 788 l 311 797 l 353 1071 z "},"̒":{"ha":764,"x_min":242,"x_max":508,"o":"m 508 964 q 472 947 492 957 q 431 927 451 938 q 393 907 411 917 q 361 889 375 897 q 364 875 364 881 q 364 865 364 869 q 348 824 364 836 q 301 813 332 813 q 255 827 268 813 q 242 878 242 842 q 247 908 242 896 q 268 932 253 921 q 311 953 283 943 q 385 979 339 964 q 440 998 413 989 q 492 1014 467 1007 l 508 964 z "},"̦":{"ha":764,"x_min":236,"x_max":503,"o":"m 236 -254 q 272 -237 251 -247 q 312 -217 292 -228 q 351 -196 332 -206 q 382 -178 369 -186 q 381 -164 381 -169 q 381 -154 381 -158 q 396 -114 381 -125 q 442 -103 411 -103 q 490 -117 476 -103 q 503 -168 503 -132 q 497 -199 503 -186 q 476 -222 492 -211 q 432 -244 460 -233 q 360 -268 404 -254 q 303 -287 331 -279 q 251 -304 276 -296 l 236 -254 z "},"˛":{"ha":764,"x_min":256,"x_max":517,"o":"m 492 0 q 438 -40 464 -19 q 392 -81 411 -60 q 360 -126 372 -103 q 349 -171 349 -149 q 365 -219 349 -203 q 417 -235 381 -235 q 459 -231 436 -235 q 506 -221 482 -228 l 517 -290 q 458 -303 488 -299 q 396 -308 428 -308 q 292 -280 328 -308 q 256 -189 256 -251 q 267 -133 256 -160 q 297 -83 278 -107 q 342 -39 317 -60 q 396 0 367 -18 l 492 0 z "},"¸":{"ha":764,"x_min":253,"x_max":513,"o":"m 389 0 l 381 -75 q 479 -103 446 -78 q 513 -181 513 -128 q 469 -273 513 -239 q 346 -307 425 -307 q 253 -297 296 -307 l 261 -237 q 301 -244 282 -242 q 340 -246 319 -246 q 405 -230 385 -246 q 425 -185 425 -214 q 406 -143 425 -157 q 338 -129 388 -129 l 301 -129 l 317 0 l 389 0 z "},".":{"ha":764,"x_min":297,"x_max":467,"o":"m 467 72 q 463 33 467 49 q 449 8 458 18 q 423 -7 439 -3 q 382 -11 407 -11 q 341 -7 357 -11 q 315 8 325 -3 q 301 33 306 18 q 297 72 297 49 q 301 113 297 97 q 315 138 306 128 q 341 151 325 147 q 382 156 357 156 q 423 151 407 156 q 449 138 439 147 q 463 113 458 128 q 467 72 467 97 z "},",":{"ha":764,"x_min":153,"x_max":467,"o":"m 153 -218 q 251 -108 208 -160 q 332 -1 294 -57 q 307 23 315 7 q 299 72 299 39 q 303 113 299 97 q 317 138 307 128 q 342 151 326 147 q 383 156 358 156 q 424 151 407 156 q 449 138 440 147 q 463 113 458 128 q 467 72 467 97 q 461 25 467 43 q 444 -11 456 7 q 402 -67 428 -36 q 344 -133 376 -99 q 275 -201 311 -167 q 203 -267 239 -235 l 153 -218 z "},":":{"ha":764,"x_min":297,"x_max":467,"o":"m 467 72 q 463 33 467 49 q 449 8 458 18 q 423 -7 439 -3 q 382 -11 407 -11 q 341 -7 357 -11 q 315 8 325 -3 q 301 33 306 18 q 297 72 297 49 q 301 113 297 97 q 315 138 306 128 q 341 151 325 147 q 382 156 357 156 q 423 151 407 156 q 449 138 439 147 q 463 113 458 128 q 467 72 467 97 m 467 525 q 463 485 467 501 q 449 460 458 469 q 423 446 439 450 q 382 442 407 442 q 341 446 357 442 q 315 460 325 450 q 301 485 306 469 q 297 525 297 501 q 301 565 297 549 q 315 591 306 581 q 341 605 325 601 q 382 608 357 608 q 423 605 407 608 q 449 591 439 601 q 463 565 458 581 q 467 525 467 549 z "},";":{"ha":764,"x_min":153,"x_max":467,"o":"m 467 525 q 463 485 467 501 q 449 460 458 469 q 423 446 439 450 q 382 442 407 442 q 341 446 357 442 q 315 460 325 450 q 301 485 306 469 q 297 525 297 501 q 301 565 297 549 q 315 591 306 581 q 341 605 325 601 q 382 608 357 608 q 423 605 407 608 q 449 591 439 601 q 463 565 458 581 q 467 525 467 549 m 153 -218 q 249 -108 206 -160 q 331 -1 293 -57 q 306 23 314 7 q 297 72 297 39 q 301 113 297 97 q 315 138 306 128 q 341 151 325 147 q 382 156 357 156 q 423 151 407 156 q 449 138 439 147 q 463 113 458 128 q 467 72 467 97 q 460 25 467 43 q 443 -11 454 7 q 401 -67 428 -36 q 342 -133 375 -99 q 274 -201 310 -167 q 201 -267 238 -235 l 153 -218 z "},"…":{"ha":764,"x_min":67,"x_max":697,"o":"m 204 63 q 201 28 204 42 q 191 6 199 14 q 170 -7 183 -3 q 136 -11 157 -11 q 81 5 94 -11 q 67 63 67 21 q 81 119 67 103 q 136 135 94 135 q 170 131 157 135 q 191 119 183 128 q 201 96 199 110 q 204 63 204 82 m 451 63 q 448 28 451 42 q 437 6 444 14 q 416 -7 429 -3 q 382 -11 403 -11 q 326 5 340 -11 q 313 63 313 21 q 326 119 313 103 q 382 135 340 135 q 416 131 403 135 q 437 119 429 128 q 448 96 444 110 q 451 63 451 82 m 697 63 q 694 28 697 42 q 684 6 692 14 q 663 -7 676 -3 q 628 -11 649 -11 q 573 5 586 -11 q 560 63 560 21 q 573 119 560 103 q 628 135 586 135 q 663 131 649 135 q 684 119 676 128 q 694 96 692 110 q 697 63 697 82 z "},"·":{"ha":764,"x_min":297,"x_max":467,"o":"m 467 361 q 463 322 467 338 q 449 296 458 306 q 423 282 439 286 q 382 278 407 278 q 341 282 357 278 q 315 296 325 286 q 301 322 306 306 q 297 361 297 338 q 301 401 297 385 q 315 426 306 417 q 341 440 325 436 q 382 444 357 444 q 423 440 407 444 q 449 426 439 436 q 463 401 458 417 q 467 361 467 385 z "},"•":{"ha":764,"x_min":256,"x_max":508,"o":"m 508 501 q 501 440 508 464 q 480 400 494 415 q 442 378 465 385 q 382 372 418 372 q 322 378 346 372 q 284 400 299 385 q 263 440 269 415 q 256 501 256 464 q 263 563 256 538 q 284 603 269 588 q 322 624 299 618 q 382 631 346 631 q 442 624 418 631 q 480 603 465 618 q 501 563 494 588 q 508 501 508 538 z "},"-":{"ha":764,"x_min":163,"x_max":601,"o":"m 163 413 l 601 413 l 601 319 l 163 319 l 163 413 z "},"­":{"ha":764,"x_min":163,"x_max":601,"o":"m 163 413 l 601 413 l 601 319 l 163 319 l 163 413 z "},"–":{"ha":764,"x_min":58,"x_max":706,"o":"m 58 413 l 706 413 l 706 319 l 58 319 l 58 413 z "},"—":{"ha":764,"x_min":0,"x_max":764,"o":"m 0 413 l 764 413 l 764 319 l 0 319 l 0 413 z "},"―":{"ha":764,"x_min":0,"x_max":764,"o":"m 0 413 l 764 413 l 764 319 l 0 319 l 0 413 z "},"_":{"ha":764,"x_min":0,"x_max":764,"o":"m 0 -229 l 764 -229 l 764 -319 l 0 -319 l 0 -229 z "},"!":{"ha":764,"x_min":301,"x_max":463,"o":"m 322 1025 l 442 1025 l 431 339 l 333 339 l 322 1025 m 463 69 q 459 31 463 46 q 447 6 456 15 q 422 -7 438 -3 q 382 -11 406 -11 q 342 -7 358 -11 q 317 6 326 -3 q 305 31 308 15 q 301 69 301 46 q 305 107 301 92 q 317 131 308 122 q 342 144 326 140 q 382 149 358 149 q 422 144 406 149 q 447 131 438 140 q 459 107 456 122 q 463 69 463 92 z "},"¡":{"ha":764,"x_min":301,"x_max":463,"o":"m 442 -297 l 322 -297 l 333 400 l 431 400 l 442 -297 m 301 671 q 305 708 301 693 q 317 733 308 724 q 342 745 326 742 q 382 749 358 749 q 422 745 406 749 q 447 733 438 742 q 459 708 456 724 q 463 671 463 693 q 459 632 463 647 q 447 607 456 617 q 422 594 438 597 q 382 590 406 590 q 342 594 358 590 q 317 607 326 597 q 305 632 308 617 q 301 671 301 647 z "},"?":{"ha":764,"x_min":121,"x_max":654,"o":"m 276 397 q 280 461 275 432 q 301 518 285 490 q 345 575 317 546 q 419 640 374 604 q 480 690 456 667 q 519 735 504 713 q 540 781 533 758 q 546 829 546 803 q 499 919 546 888 q 361 950 453 950 q 246 942 301 950 q 136 917 190 933 l 121 1000 q 244 1026 181 1017 q 378 1036 307 1036 q 583 985 511 1036 q 654 843 654 935 q 647 773 654 806 q 623 711 640 740 q 576 652 606 682 q 504 589 547 622 q 444 539 468 561 q 405 495 419 517 q 383 450 390 474 q 376 396 376 426 l 375 339 l 276 339 l 276 397 m 407 69 q 403 31 407 46 q 391 6 400 15 q 367 -7 382 -3 q 328 -11 351 -11 q 288 -7 304 -11 q 263 6 272 -3 q 251 31 254 15 q 247 69 247 46 q 251 107 247 92 q 263 131 254 122 q 288 144 272 140 q 328 149 304 149 q 367 144 351 149 q 391 131 382 140 q 403 107 400 122 q 407 69 407 92 z "},"¿":{"ha":764,"x_min":131,"x_max":664,"o":"m 508 343 q 503 275 508 306 q 483 215 499 244 q 439 156 468 186 q 364 90 410 126 q 305 40 329 64 q 266 -6 281 17 q 245 -51 251 -28 q 239 -99 239 -74 q 285 -190 239 -158 q 424 -222 331 -222 q 538 -214 482 -222 q 649 -189 593 -206 l 664 -271 q 541 -298 604 -287 q 407 -308 478 -308 q 202 -258 274 -308 q 131 -114 131 -208 q 138 -43 131 -75 q 162 19 144 -11 q 208 78 179 49 q 281 142 238 108 q 340 192 315 168 q 380 238 365 215 q 401 286 394 261 q 408 343 408 311 l 410 401 l 507 401 l 508 343 m 376 671 q 380 708 376 693 q 392 733 383 724 q 417 745 401 742 q 457 749 433 749 q 497 745 481 749 q 522 733 513 742 q 534 708 531 724 q 538 671 538 693 q 534 632 538 647 q 522 607 531 617 q 497 594 513 597 q 457 590 481 590 q 417 594 433 590 q 392 607 401 597 q 380 632 383 617 q 376 671 376 647 z "},"'":{"ha":764,"x_min":325,"x_max":439,"o":"m 325 1025 l 439 1025 l 424 682 l 340 682 l 325 1025 z "},"\"":{"ha":764,"x_min":194,"x_max":571,"o":"m 457 1025 l 571 1025 l 556 682 l 472 682 l 457 1025 m 194 1025 l 308 1025 l 293 682 l 210 682 l 194 1025 z "},"‚":{"ha":764,"x_min":153,"x_max":467,"o":"m 153 -218 q 251 -108 208 -160 q 332 -1 294 -57 q 307 23 315 7 q 299 72 299 39 q 303 113 299 97 q 317 138 307 128 q 342 151 326 147 q 383 156 358 156 q 424 151 407 156 q 449 138 440 147 q 463 113 458 128 q 467 72 467 97 q 461 25 467 43 q 444 -11 456 7 q 402 -67 428 -36 q 344 -133 376 -99 q 275 -201 311 -167 q 203 -267 239 -235 l 153 -218 z "},"’":{"ha":764,"x_min":208,"x_max":522,"o":"m 208 667 q 307 776 264 725 q 388 883 350 828 q 363 908 371 892 q 354 957 354 924 q 358 997 354 982 q 372 1022 363 1013 q 398 1036 382 1032 q 439 1040 414 1040 q 479 1036 463 1040 q 505 1022 496 1032 q 518 997 514 1013 q 522 957 522 982 q 517 910 522 928 q 500 874 511 892 q 458 817 483 849 q 399 752 432 786 q 331 684 367 718 q 258 618 294 650 l 208 667 z "},"‘":{"ha":764,"x_min":282,"x_max":596,"o":"m 596 1036 q 498 928 542 979 q 417 821 454 876 q 442 797 433 813 q 450 746 450 781 q 446 707 450 722 q 433 682 442 692 q 407 667 424 672 q 365 663 390 663 q 324 667 340 663 q 299 682 308 672 q 286 707 290 692 q 282 746 282 722 q 288 794 282 775 q 304 829 293 813 q 347 886 321 854 q 406 952 374 918 q 475 1020 439 986 q 547 1086 511 1054 l 596 1036 z "},"„":{"ha":764,"x_min":38,"x_max":626,"o":"m 38 -215 q 127 -109 88 -158 q 204 -3 167 -60 q 180 20 188 6 q 172 67 172 35 q 188 127 172 110 q 247 144 203 144 q 284 140 269 144 q 308 127 299 136 q 320 103 317 118 q 324 67 324 89 q 318 22 324 39 q 301 -14 313 4 q 261 -71 285 -40 q 209 -133 238 -101 q 149 -198 181 -165 q 85 -260 117 -231 l 38 -215 m 339 -215 q 430 -109 390 -158 q 507 -3 469 -60 q 482 20 489 6 q 475 67 475 35 q 490 127 475 110 q 550 144 506 144 q 586 140 571 144 q 610 127 601 136 q 622 103 618 118 q 626 67 626 89 q 621 22 626 39 q 604 -14 615 4 q 563 -71 588 -40 q 511 -133 539 -101 q 451 -198 483 -165 q 386 -260 419 -231 l 339 -215 z "},"”":{"ha":764,"x_min":82,"x_max":671,"o":"m 82 682 q 172 788 132 739 q 249 894 211 838 q 224 917 232 903 q 217 964 217 932 q 232 1024 217 1007 q 292 1042 247 1042 q 328 1038 314 1042 q 352 1024 343 1033 q 365 1001 361 1015 q 368 964 368 986 q 363 919 368 936 q 346 883 357 901 q 306 826 329 857 q 253 764 282 796 q 193 699 225 732 q 129 638 161 667 l 82 682 m 383 682 q 474 788 435 739 q 551 894 514 838 q 526 917 533 903 q 519 964 519 932 q 535 1024 519 1007 q 594 1042 550 1042 q 631 1038 615 1042 q 654 1024 646 1033 q 667 1001 663 1015 q 671 964 671 986 q 665 919 671 936 q 649 883 660 901 q 608 826 632 857 q 556 764 583 796 q 496 699 528 732 q 431 638 464 667 l 383 682 z "},"“":{"ha":764,"x_min":129,"x_max":718,"o":"m 718 1029 q 627 924 667 974 q 551 817 588 875 q 575 794 568 808 q 582 749 582 781 q 567 688 582 706 q 507 671 551 671 q 470 675 485 671 q 447 688 456 679 q 435 712 439 697 q 432 749 432 726 q 437 794 432 776 q 453 829 442 813 q 494 885 469 856 q 547 947 518 915 q 606 1012 575 979 q 671 1075 638 1044 l 718 1029 m 415 1029 q 324 924 364 974 q 249 817 285 875 q 272 794 265 808 q 279 749 279 781 q 264 688 279 706 q 206 671 249 671 q 169 675 183 671 q 145 688 154 679 q 133 712 136 697 q 129 749 129 726 q 134 794 129 776 q 151 829 139 813 q 192 885 168 856 q 244 947 215 915 q 303 1012 272 979 q 368 1075 335 1044 l 415 1029 z "},"‹":{"ha":764,"x_min":139,"x_max":578,"o":"m 139 339 l 514 649 l 578 589 l 285 340 l 578 93 l 514 31 l 139 339 z "},"›":{"ha":764,"x_min":186,"x_max":625,"o":"m 625 339 l 250 31 l 186 90 l 479 338 l 186 585 l 250 649 l 625 339 z "},"«":{"ha":764,"x_min":88,"x_max":665,"o":"m 372 339 l 579 636 l 664 594 l 496 340 l 665 86 l 579 43 l 372 339 m 88 339 l 303 647 l 388 606 l 214 340 l 389 74 l 303 32 l 88 339 z "},"»":{"ha":764,"x_min":99,"x_max":676,"o":"m 392 339 l 185 43 l 101 83 l 268 338 l 99 593 l 185 636 l 392 339 m 676 339 l 461 32 l 378 72 l 551 338 l 375 606 l 461 647 l 676 339 z "},"(":{"ha":764,"x_min":239,"x_max":608,"o":"m 533 -249 q 408 -99 463 -176 q 315 60 353 -22 q 258 233 278 143 q 239 425 239 324 q 258 617 239 526 q 315 790 278 707 q 408 949 353 872 q 533 1100 463 1026 l 607 1051 q 494 911 543 983 q 411 762 444 839 q 360 601 378 685 q 343 425 343 517 q 361 249 343 332 q 413 88 379 165 q 495 -60 446 11 q 608 -200 544 -132 l 533 -249 z "},")":{"ha":764,"x_min":156,"x_max":525,"o":"m 157 -201 q 270 -62 221 -133 q 353 88 319 10 q 403 249 386 165 q 421 426 421 333 q 403 601 421 518 q 351 762 385 685 q 269 910 318 839 q 156 1050 219 982 l 231 1100 q 356 949 301 1026 q 449 790 411 872 q 506 617 486 707 q 525 426 525 526 q 506 234 525 325 q 449 60 486 143 q 356 -99 411 -22 q 231 -249 301 -176 l 157 -201 z "},"{":{"ha":764,"x_min":113,"x_max":649,"o":"m 649 -225 q 629 -227 642 -226 q 604 -228 617 -228 q 406 -175 471 -228 q 340 -4 340 -122 l 340 175 q 329 248 340 215 q 292 306 318 281 q 221 347 265 331 q 113 375 176 364 l 113 460 q 221 488 176 469 q 292 530 265 506 q 329 585 318 554 q 340 656 340 617 l 340 821 q 404 992 340 940 q 604 1044 468 1044 q 629 1044 617 1044 q 649 1042 642 1043 l 649 964 q 548 956 588 964 q 485 932 508 949 q 452 887 461 915 q 443 818 443 858 l 443 653 q 432 569 443 606 q 398 503 421 532 q 339 455 375 475 q 253 419 303 435 q 340 385 304 406 q 398 335 375 364 q 432 267 421 306 q 443 179 443 228 l 443 1 q 453 -69 443 -40 q 486 -115 463 -97 q 549 -140 510 -133 q 649 -147 589 -147 l 649 -225 z "},"}":{"ha":764,"x_min":115,"x_max":651,"o":"m 115 -147 q 216 -140 176 -147 q 279 -116 256 -133 q 312 -70 303 -99 q 321 -1 321 -42 l 321 182 q 332 266 321 229 q 366 331 343 303 q 424 380 389 360 q 511 415 460 400 q 424 450 460 429 q 366 500 389 471 q 332 567 343 529 q 321 656 321 606 l 321 815 q 311 885 321 856 q 278 931 301 914 q 215 956 254 949 q 115 964 175 964 l 115 1042 q 135 1044 122 1043 q 160 1044 147 1044 q 358 992 292 1044 q 424 821 424 939 l 424 660 q 435 587 424 619 q 472 529 446 554 q 543 487 499 504 q 651 460 588 469 l 651 375 q 543 347 588 364 q 472 305 499 329 q 435 249 446 281 q 424 179 424 218 l 424 -4 q 360 -176 424 -125 q 160 -228 296 -228 q 135 -227 147 -228 q 115 -225 122 -226 l 115 -147 z "},"[":{"ha":764,"x_min":229,"x_max":611,"o":"m 229 1044 l 611 1044 l 611 964 l 329 964 l 329 -147 l 611 -147 l 611 -228 l 229 -228 l 229 1044 z "},"]":{"ha":764,"x_min":153,"x_max":535,"o":"m 153 -147 l 435 -147 l 435 964 l 153 964 l 153 1044 l 535 1044 l 535 -228 l 153 -228 l 153 -147 z "},"/":{"ha":764,"x_min":60,"x_max":672,"o":"m 568 1025 l 672 1025 l 165 -156 l 60 -156 l 568 1025 z "},"\\":{"ha":764,"x_min":92,"x_max":704,"o":"m 92 1025 l 196 1025 l 704 -156 l 599 -156 l 92 1025 z "},"|":{"ha":764,"x_min":328,"x_max":436,"o":"m 328 1025 l 436 1025 l 436 -297 l 328 -297 l 328 1025 z "},"¦":{"ha":764,"x_min":328,"x_max":436,"o":"m 328 1025 l 436 1025 l 436 479 l 328 479 l 328 1025 m 328 226 l 436 226 l 436 -297 l 328 -297 l 328 226 z "},"&":{"ha":764,"x_min":49,"x_max":750,"o":"m 750 36 l 672 -21 l 572 107 q 463 15 526 49 q 315 -19 400 -19 q 205 -1 254 -19 q 121 53 156 18 q 67 138 86 88 q 49 250 49 188 q 61 342 49 299 q 97 424 74 386 q 153 496 121 463 q 224 557 185 529 q 185 613 204 583 q 151 672 165 642 q 127 736 136 703 q 118 806 118 769 q 183 983 118 921 q 367 1044 247 1044 q 466 1029 424 1044 q 535 988 508 1014 q 576 927 563 963 q 589 851 589 892 q 577 774 589 811 q 542 701 565 738 l 467 750 q 484 797 479 774 q 489 844 489 821 q 481 889 489 868 q 458 926 474 910 q 419 951 443 942 q 360 960 394 960 q 256 922 293 960 q 219 808 219 883 q 227 748 219 776 q 250 692 235 719 q 287 634 265 664 q 336 568 308 604 l 565 274 q 592 387 582 324 q 604 526 601 450 l 696 526 q 677 350 693 436 q 628 194 661 264 l 750 36 m 278 486 q 185 388 219 444 q 150 256 150 331 q 163 176 150 211 q 199 116 176 140 q 254 78 222 92 q 324 65 286 65 q 438 95 392 65 q 519 175 485 125 l 278 486 z "},"@":{"ha":764,"x_min":54,"x_max":696,"o":"m 451 901 q 333 873 388 901 q 237 779 278 844 q 172 608 196 714 q 149 343 149 501 q 164 147 149 232 q 213 5 179 63 q 297 -83 246 -53 q 421 -112 349 -112 q 501 -103 464 -112 q 576 -82 539 -94 l 586 -161 q 502 -186 547 -176 q 408 -196 457 -196 q 249 -160 315 -196 q 139 -55 182 -124 q 75 113 96 14 q 54 338 54 211 q 85 640 54 517 q 170 840 115 763 q 299 951 225 917 q 463 985 374 985 q 573 964 528 985 q 645 906 618 943 q 684 820 672 869 q 696 714 696 771 l 696 167 l 617 167 l 611 229 q 531 175 572 196 q 435 154 489 154 q 313 209 360 154 q 265 372 265 264 q 281 481 265 433 q 331 560 297 528 q 419 608 365 592 q 550 625 472 625 l 600 625 l 600 706 q 594 783 600 746 q 572 845 588 819 q 526 886 556 871 q 451 901 497 901 m 553 550 q 462 540 499 550 q 403 508 425 529 q 371 454 381 486 q 361 381 361 422 q 388 272 361 308 q 456 236 415 236 q 524 253 492 236 q 600 306 557 271 l 600 550 l 553 550 z "},"§":{"ha":764,"x_min":76,"x_max":686,"o":"m 168 -65 q 253 -81 210 -75 q 344 -86 297 -86 q 466 -65 422 -86 q 510 7 510 -44 q 501 48 510 31 q 471 83 493 65 q 410 122 449 100 q 310 174 371 143 q 192 241 238 211 q 120 298 146 271 q 85 354 94 325 q 76 419 76 383 q 113 528 76 486 q 203 603 150 571 q 165 651 181 624 q 149 728 149 679 q 219 866 149 819 q 419 913 290 913 q 522 905 472 913 q 610 888 571 897 l 594 804 q 509 819 553 814 q 418 825 465 825 q 297 804 340 825 q 253 733 253 783 q 261 691 253 708 q 292 656 269 674 q 353 617 314 639 q 453 565 392 596 q 571 499 525 528 q 642 442 617 469 q 677 385 668 414 q 686 319 686 356 q 676 261 686 288 q 650 213 667 235 q 610 172 633 190 q 560 138 586 154 q 601 84 588 114 q 614 11 614 54 q 543 -127 614 -82 q 343 -172 472 -172 q 241 -165 290 -172 q 153 -147 192 -158 l 168 -65 m 383 492 q 324 524 350 510 q 276 553 297 539 q 206 498 231 525 q 182 428 182 471 q 189 388 182 406 q 217 349 196 369 q 276 304 238 328 q 379 247 315 281 q 440 215 411 231 q 486 186 468 199 q 556 240 531 213 q 581 313 581 267 q 574 352 581 333 q 545 391 567 371 q 485 435 524 411 q 383 492 447 458 z "},"†":{"ha":764,"x_min":93,"x_max":671,"o":"m 328 557 l 93 557 l 93 640 l 328 640 l 328 894 l 435 894 l 435 640 l 671 640 l 671 557 l 435 557 l 435 0 l 328 0 l 328 557 z "},"‡":{"ha":764,"x_min":93,"x_max":671,"o":"m 328 236 l 93 236 l 93 319 l 328 319 l 328 576 l 93 576 l 93 660 l 328 660 l 328 894 l 435 894 l 435 660 l 671 660 l 671 576 l 435 576 l 435 319 l 671 319 l 671 236 l 435 236 l 435 0 l 328 0 l 328 236 z "},"*":{"ha":764,"x_min":71,"x_max":693,"o":"m 363 547 l 122 379 l 72 467 l 343 582 l 71 696 l 122 785 l 361 618 l 328 894 l 436 894 l 401 617 l 642 785 l 692 697 l 421 583 l 693 468 l 642 379 l 403 546 l 436 269 l 328 269 l 363 547 z "},"℗":{"ha":764,"x_min":13,"x_max":751,"o":"m 235 713 l 386 713 q 525 676 482 713 q 568 553 568 640 q 522 413 568 458 q 376 368 476 368 l 321 368 l 321 164 l 235 164 l 235 713 m 376 433 q 457 461 433 433 q 481 550 481 489 q 458 624 481 604 q 381 644 435 644 l 321 644 l 321 433 l 376 433 m 751 447 q 727 248 751 335 q 655 102 703 161 q 538 13 607 43 q 381 -18 468 -18 q 108 102 203 -18 q 13 447 13 222 q 110 792 13 672 q 383 913 207 913 q 656 793 561 913 q 751 447 751 674 m 665 447 q 595 738 665 640 q 381 835 525 835 q 167 738 236 835 q 99 447 99 640 q 169 157 99 254 q 383 60 239 60 q 597 156 528 60 q 665 447 665 253 z "},"©":{"ha":764,"x_min":13,"x_max":751,"o":"m 519 193 q 461 176 493 183 q 390 169 429 169 q 307 182 344 169 q 243 225 269 194 q 203 309 217 256 q 189 444 189 363 q 204 580 189 526 q 247 666 219 633 q 313 712 275 699 q 397 725 351 725 q 465 719 433 725 q 524 703 496 714 l 513 631 q 457 646 483 642 q 401 650 431 650 q 349 642 372 650 q 310 613 326 635 q 285 551 294 590 q 276 449 276 511 q 285 347 276 386 q 311 285 294 307 q 351 254 328 263 q 404 246 375 246 q 460 251 435 246 q 513 265 486 256 l 519 193 m 751 447 q 727 248 751 335 q 655 102 703 161 q 538 13 607 43 q 381 -18 468 -18 q 108 102 203 -18 q 13 447 13 222 q 110 792 13 672 q 383 913 207 913 q 656 793 561 913 q 751 447 751 674 m 665 447 q 595 738 665 640 q 381 835 525 835 q 167 738 236 835 q 99 447 99 640 q 169 157 99 254 q 383 60 239 60 q 597 156 528 60 q 665 447 665 253 z "},"®":{"ha":764,"x_min":124,"x_max":640,"o":"m 640 731 q 572 544 640 613 q 382 476 503 476 q 192 544 261 476 q 124 731 124 613 q 192 917 124 849 q 382 985 261 985 q 572 917 503 985 q 640 731 640 849 m 579 731 q 529 880 579 828 q 382 932 479 932 q 235 880 285 932 q 185 731 185 828 q 235 581 185 633 q 382 529 285 529 q 529 581 479 529 q 579 731 579 633 m 279 878 l 385 878 q 473 858 446 878 q 500 799 500 839 q 479 736 500 757 q 425 711 458 715 l 507 586 l 439 586 l 363 707 l 336 707 l 336 586 l 279 586 l 279 878 m 375 749 q 428 760 415 749 q 442 793 442 771 q 430 824 442 815 q 382 832 418 832 l 336 832 l 336 749 l 375 749 z "},"™":{"ha":764,"x_min":13,"x_max":750,"o":"m 117 907 l 13 907 l 13 965 l 282 965 l 282 907 l 185 907 l 185 483 l 117 483 l 117 907 m 338 965 l 440 965 l 501 743 l 533 631 l 565 744 l 628 965 l 732 965 l 750 483 l 683 483 l 675 794 l 674 913 l 640 794 l 578 581 l 490 581 l 426 794 l 393 913 l 392 794 l 383 483 l 318 483 l 338 965 z "},"℠":{"ha":764,"x_min":13,"x_max":750,"o":"m 338 965 l 440 965 l 501 743 l 533 631 l 565 744 l 628 965 l 732 965 l 750 483 l 683 483 l 675 794 l 674 913 l 640 794 l 578 581 l 490 581 l 426 794 l 393 913 l 392 794 l 383 483 l 318 483 l 338 965 m 19 549 q 65 537 40 542 q 115 532 90 532 q 179 552 157 532 q 201 610 201 572 q 183 659 201 639 q 114 707 164 679 q 69 735 88 721 q 37 765 50 749 q 18 800 24 781 q 13 846 13 819 q 50 939 13 906 q 157 972 88 972 q 206 969 182 972 q 250 958 231 965 l 242 903 q 201 913 222 910 q 160 917 181 917 q 97 900 117 917 q 78 851 78 883 q 82 824 78 836 q 96 802 86 813 q 122 781 106 792 q 163 757 138 771 q 212 726 192 740 q 244 695 232 711 q 261 660 256 679 q 267 615 267 640 q 227 515 267 553 q 117 476 188 476 q 61 481 89 476 q 13 494 33 485 l 19 549 z "},"ª":{"ha":764,"x_min":158,"x_max":604,"o":"m 503 757 q 477 822 503 801 q 388 843 451 843 q 303 837 344 843 q 218 819 263 831 l 207 885 q 299 903 253 896 q 401 911 346 911 q 545 876 499 911 q 592 771 592 840 l 592 413 l 518 413 l 513 458 q 421 415 465 432 q 317 399 376 399 q 256 407 285 399 q 206 432 228 415 q 172 475 185 449 q 158 538 158 501 q 172 606 158 575 q 216 658 185 636 q 297 690 247 679 q 422 701 347 701 l 503 701 l 503 757 m 425 640 q 337 634 372 640 q 281 616 301 628 q 251 586 260 604 q 243 546 243 568 q 268 483 243 501 q 336 465 293 465 q 417 480 378 465 q 503 521 457 494 l 503 640 l 425 640 m 158 313 l 604 313 l 604 239 l 158 239 l 158 313 z "},"º":{"ha":764,"x_min":143,"x_max":619,"o":"m 619 657 q 603 530 619 581 q 556 449 588 479 q 480 406 525 419 q 378 393 435 393 q 277 405 321 393 q 203 446 233 417 q 158 524 174 475 q 143 649 143 574 q 160 774 143 724 q 208 855 176 825 q 283 898 239 885 q 385 911 328 911 q 487 899 443 911 q 560 858 531 888 q 605 779 590 828 q 619 657 619 731 m 532 653 q 523 748 532 711 q 496 806 514 785 q 449 834 478 826 q 382 842 421 842 q 315 833 343 842 q 268 804 286 825 q 241 747 250 783 q 232 651 232 710 q 241 556 232 593 q 268 499 250 519 q 315 470 286 478 q 382 463 343 463 q 449 471 421 463 q 496 500 478 479 q 523 558 514 521 q 532 653 532 594 m 174 313 l 590 313 l 590 239 l 174 239 l 174 313 z "},"№":{"ha":764,"x_min":24,"x_max":747,"o":"m 24 894 l 125 894 l 286 356 q 302 301 294 328 q 317 247 310 274 q 332 190 325 219 q 347 129 339 161 l 350 131 q 345 193 347 164 q 342 250 343 222 q 340 306 340 278 q 339 363 339 333 l 339 894 l 413 894 l 413 0 l 313 0 l 150 539 q 134 593 142 567 q 119 647 126 619 q 105 703 113 675 q 90 765 97 732 l 88 764 q 91 701 89 731 q 95 644 93 672 q 98 590 97 617 q 99 532 99 563 l 99 0 l 24 0 l 24 894 m 747 675 q 738 562 747 607 q 712 490 729 517 q 669 451 694 463 q 608 440 643 440 q 547 450 572 440 q 506 485 522 460 q 481 555 489 511 q 472 667 472 599 q 481 778 472 733 q 508 851 490 824 q 551 890 525 878 q 611 901 576 901 q 672 890 647 901 q 714 854 697 879 q 739 785 731 829 q 747 675 747 740 m 676 671 q 672 758 676 725 q 660 809 668 790 q 639 835 651 828 q 610 842 626 842 q 581 835 593 842 q 560 809 568 828 q 548 756 551 790 q 544 669 544 722 q 548 583 544 615 q 560 531 551 550 q 581 506 568 513 q 610 500 593 500 q 639 506 626 500 q 660 531 651 513 q 672 583 668 550 q 676 671 676 617 m 492 382 l 728 382 l 728 322 l 492 322 l 492 382 z "},"¶":{"ha":764,"x_min":65,"x_max":736,"o":"m 351 308 q 212 326 267 310 q 124 384 157 343 q 78 492 92 425 q 65 658 65 558 q 82 807 65 747 q 138 902 99 867 q 241 951 176 938 q 400 965 306 965 l 736 965 l 736 900 l 622 900 l 622 -228 l 544 -228 l 544 900 l 429 900 l 429 -228 l 351 -228 l 351 308 z "},"#":{"ha":764,"x_min":24,"x_max":740,"o":"m 449 254 l 238 254 l 188 0 l 118 0 l 168 254 l 24 254 l 24 317 l 179 317 l 231 583 l 85 583 l 85 647 l 243 647 l 292 894 l 361 894 l 314 647 l 525 647 l 574 894 l 643 894 l 594 647 l 740 647 l 740 583 l 582 583 l 531 317 l 679 317 l 679 254 l 518 254 l 469 0 l 400 0 l 449 254 m 250 317 l 461 317 l 513 583 l 301 583 l 250 317 z "},"¤":{"ha":764,"x_min":40,"x_max":724,"o":"m 154 272 q 124 351 136 304 q 111 457 111 399 q 122 558 111 513 q 151 638 133 603 l 42 763 l 106 828 l 214 704 q 285 746 244 729 q 382 763 325 763 q 481 747 440 763 q 550 706 521 731 l 660 828 l 724 763 l 613 639 q 642 558 631 603 q 653 457 653 513 q 642 353 653 400 q 611 271 631 307 l 722 144 l 658 79 l 547 206 q 479 166 518 182 q 382 150 440 150 q 286 167 325 150 q 219 207 247 183 l 104 79 l 40 144 l 154 272 m 564 457 q 519 622 564 563 q 382 682 475 682 q 246 622 290 682 q 201 457 201 563 q 246 291 201 350 q 382 232 290 232 q 519 291 475 232 q 564 457 564 350 z "},"$":{"ha":764,"x_min":97,"x_max":685,"o":"m 256 -12 q 215 -7 236 -11 q 172 1 193 -3 q 132 10 151 6 q 97 19 113 15 l 113 104 q 189 85 146 94 q 275 72 232 76 l 346 424 q 231 478 278 453 q 157 533 185 504 q 117 597 129 563 q 106 681 106 632 q 187 853 106 793 q 419 914 268 914 l 447 914 l 475 1051 l 554 1051 l 524 907 q 592 897 558 904 q 656 881 626 889 l 640 797 q 576 812 611 804 q 506 822 542 819 l 439 492 q 560 435 513 461 q 635 379 607 408 q 674 314 663 350 q 685 229 685 278 q 663 126 685 172 q 601 47 642 79 q 501 -2 560 15 q 367 -19 442 -19 q 350 -19 358 -19 q 333 -18 342 -19 l 304 -156 l 226 -156 l 256 -12 m 581 222 q 575 272 581 250 q 551 313 569 293 q 501 351 533 332 q 417 393 468 371 l 350 67 l 376 67 q 530 109 479 67 q 581 222 581 151 m 208 688 q 215 640 208 661 q 240 599 222 618 q 288 563 257 581 q 368 524 319 544 l 429 829 l 407 829 q 256 790 303 829 q 208 688 208 751 z "},"€":{"ha":764,"x_min":56,"x_max":721,"o":"m 167 590 q 209 744 179 682 q 284 843 239 806 q 391 896 329 881 q 531 911 453 911 q 633 904 586 911 q 718 886 681 897 l 704 801 q 622 818 664 813 q 531 824 579 824 q 427 812 471 824 q 352 772 383 800 q 302 700 321 744 q 276 590 283 656 l 592 590 l 592 511 l 268 511 q 267 481 267 493 q 267 449 267 468 q 267 412 267 432 q 268 376 267 392 l 592 376 l 592 297 l 274 297 q 301 182 281 226 q 356 113 322 138 q 433 80 389 89 q 531 71 476 71 q 619 78 576 71 q 707 96 663 85 l 721 11 q 626 -8 676 0 q 521 -17 576 -17 q 382 -3 443 -17 q 276 45 321 10 q 204 142 232 81 q 167 297 176 203 l 56 297 l 56 376 l 160 376 q 160 410 160 392 q 160 446 160 429 q 160 479 160 465 q 160 511 160 493 l 56 511 l 56 590 l 167 590 z "},"¢":{"ha":764,"x_min":106,"x_max":658,"o":"m 353 129 q 242 159 289 138 q 165 219 196 181 q 120 313 135 257 q 106 446 106 369 q 131 604 106 540 q 202 706 156 668 q 314 759 249 743 q 458 775 379 775 l 481 908 l 557 908 l 533 771 q 600 762 568 768 q 658 749 632 756 l 646 667 q 583 678 615 674 q 521 686 551 683 l 442 210 q 455 208 450 208 q 465 208 460 208 q 510 210 486 208 q 558 216 535 213 q 605 224 582 219 q 647 233 628 229 l 656 151 q 610 141 635 146 q 558 132 585 136 q 505 126 532 128 q 453 124 478 124 q 442 124 449 124 q 428 124 436 124 l 406 -14 l 329 -14 l 353 129 m 213 449 q 251 283 213 336 q 367 217 289 229 l 444 688 q 349 676 392 686 q 277 640 307 667 q 230 567 247 613 q 213 449 213 521 z "},"£":{"ha":764,"x_min":72,"x_max":675,"o":"m 232 507 q 219 555 226 532 q 206 601 213 578 q 194 647 199 624 q 189 700 189 671 q 262 853 189 796 q 474 911 335 911 q 584 905 540 911 q 668 888 628 899 l 656 804 q 571 819 613 814 q 475 824 529 824 q 341 788 386 824 q 296 688 296 753 q 301 641 296 664 q 313 597 306 618 q 328 553 321 575 q 339 507 335 531 l 625 507 l 625 419 l 351 419 q 352 400 351 410 q 353 379 353 390 q 348 308 353 342 q 333 239 343 274 q 306 167 322 204 q 267 89 289 131 l 675 89 l 675 0 l 72 0 l 72 89 l 157 89 q 196 165 179 129 q 224 236 213 201 q 240 306 235 271 q 244 378 244 340 q 244 399 244 389 q 243 419 244 410 l 110 419 l 110 507 l 232 507 z "},"¥":{"ha":764,"x_min":67,"x_max":697,"o":"m 328 140 l 118 140 l 118 219 l 328 219 l 328 336 l 118 336 l 118 414 l 314 414 l 67 894 l 185 894 l 300 668 q 325 620 314 642 q 346 578 336 599 q 365 538 356 557 q 386 493 375 518 l 389 493 q 410 540 400 518 q 430 582 419 561 q 450 623 440 603 q 471 668 460 643 l 583 894 l 697 894 l 450 414 l 646 414 l 646 336 l 436 336 l 436 219 l 646 219 l 646 140 l 436 140 l 436 0 l 328 0 l 328 140 z "},"ƒ":{"ha":764,"x_min":-3,"x_max":728,"o":"m 310 543 l 321 664 q 345 782 326 735 q 397 858 364 829 q 474 899 429 886 q 579 911 519 911 q 657 905 619 911 q 728 890 694 899 l 710 807 q 646 820 679 815 q 581 825 613 825 q 521 818 547 825 q 476 792 494 811 q 447 744 458 774 q 431 669 435 715 l 418 543 l 649 543 l 642 461 l 410 461 l 365 72 q 339 -44 358 3 q 290 -120 319 -92 q 218 -161 260 -149 q 124 -174 176 -174 q 58 -169 86 -174 q -3 -157 31 -165 l 15 -74 q 69 -85 44 -81 q 125 -89 93 -89 q 172 -81 150 -89 q 212 -56 194 -74 q 240 -8 229 -37 q 256 67 251 22 l 300 461 l 104 461 l 111 543 l 310 543 z "},"₀":{"ha":764,"x_min":157,"x_max":606,"o":"m 606 243 q 591 124 606 172 q 547 45 576 75 q 476 1 518 15 q 381 -12 433 -12 q 284 1 326 -12 q 214 44 242 14 q 172 122 186 74 q 157 240 157 171 q 172 360 157 311 q 215 438 186 408 q 287 482 244 468 q 383 496 329 496 q 549 439 492 496 q 606 243 606 382 m 442 424 q 412 432 426 429 q 381 435 397 435 q 321 426 347 435 q 276 394 294 417 q 247 335 257 372 q 236 243 236 299 q 245 154 236 189 q 271 94 254 119 l 442 424 m 321 60 q 349 51 335 54 q 383 49 364 49 q 443 58 417 49 q 488 88 469 67 q 516 147 506 110 q 526 240 526 185 q 517 328 526 293 q 492 389 508 364 l 321 60 z "},"₁":{"ha":764,"x_min":176,"x_max":599,"o":"m 183 71 l 353 71 l 353 397 l 193 347 l 176 408 l 372 483 l 442 483 l 442 71 l 599 71 l 599 0 l 183 0 l 183 71 z "},"₂":{"ha":764,"x_min":196,"x_max":568,"o":"m 196 63 l 338 183 q 426 267 396 231 q 457 343 457 303 q 429 401 457 383 q 349 419 401 419 q 290 416 319 419 q 225 403 260 413 l 217 472 q 294 488 257 483 q 372 492 332 492 q 507 458 458 492 q 556 363 556 425 q 517 255 556 300 q 415 160 479 210 l 310 74 l 568 74 l 568 0 l 196 0 l 196 63 z "},"₃":{"ha":764,"x_min":199,"x_max":569,"o":"m 207 71 q 271 63 239 65 q 336 60 303 60 q 440 79 404 60 q 475 140 475 99 q 467 174 475 160 q 439 199 460 189 q 380 214 418 208 q 281 219 342 219 l 281 285 q 372 291 338 285 q 427 309 407 297 q 454 335 447 321 q 461 367 461 350 q 436 409 461 394 q 353 424 411 424 q 293 419 324 424 q 229 408 263 415 l 218 474 q 294 487 257 482 q 369 492 332 492 q 511 460 469 492 q 553 379 553 428 q 524 303 553 332 q 443 260 494 275 q 536 224 503 254 q 569 144 569 193 q 513 33 569 74 q 344 -8 456 -8 q 199 4 269 -8 l 207 71 z "},"₄":{"ha":764,"x_min":156,"x_max":610,"o":"m 156 171 l 401 483 l 515 483 l 515 174 l 610 174 l 610 100 l 515 100 l 515 0 l 429 0 l 429 100 l 156 100 l 156 171 m 429 174 l 429 407 l 243 174 l 429 174 z "},"₅":{"ha":764,"x_min":199,"x_max":567,"o":"m 540 483 l 540 415 l 307 415 l 307 286 q 351 288 332 288 q 389 289 369 289 q 517 258 468 289 q 567 153 567 226 q 551 85 567 115 q 507 35 536 56 q 435 3 478 15 q 336 -8 392 -8 q 265 -5 300 -8 q 199 4 231 -1 l 206 71 q 268 63 238 65 q 332 60 299 60 q 436 83 401 60 q 471 149 471 107 q 441 206 471 188 q 350 225 411 225 q 294 224 321 225 q 229 218 267 222 l 229 483 l 540 483 z "},"₆":{"ha":764,"x_min":188,"x_max":575,"o":"m 536 413 q 481 421 508 418 q 422 424 454 424 q 351 410 378 424 q 307 376 324 397 q 284 326 290 354 q 275 267 278 297 q 335 288 303 279 q 407 296 368 296 q 532 260 489 296 q 575 156 575 225 q 563 89 575 119 q 526 36 550 58 q 465 1 501 14 q 382 -12 429 -12 q 238 39 288 -12 q 188 203 188 90 q 197 313 188 261 q 232 405 206 365 q 306 468 258 444 q 429 492 353 492 q 492 489 463 492 q 547 479 521 486 l 536 413 m 489 149 q 465 210 489 189 q 389 232 442 232 q 275 204 333 232 l 275 185 q 303 84 275 114 q 386 54 332 54 q 463 80 436 54 q 489 149 489 106 z "},"₇":{"ha":764,"x_min":189,"x_max":576,"o":"m 189 483 l 576 483 l 576 421 q 515 314 543 365 q 458 212 486 263 q 404 109 431 161 q 350 0 378 57 l 250 0 q 310 114 281 61 q 367 217 339 167 q 424 314 396 267 q 483 410 453 361 l 189 410 l 189 483 z "},"₈":{"ha":764,"x_min":185,"x_max":579,"o":"m 579 128 q 528 26 579 65 q 379 -12 476 -12 q 236 23 288 -12 q 185 121 185 58 q 220 201 185 169 q 306 250 256 232 q 228 299 257 271 q 200 372 200 328 q 251 462 200 428 q 386 496 301 496 q 519 464 472 496 q 567 378 567 432 q 538 303 567 332 q 460 256 508 275 q 546 206 513 238 q 579 128 579 175 m 390 285 q 458 320 433 300 q 483 371 483 340 q 458 415 483 397 q 383 433 433 433 q 311 416 338 433 q 285 372 285 399 q 312 322 285 342 q 390 285 339 301 m 376 218 q 301 183 332 204 q 271 128 271 161 q 299 73 271 94 q 383 51 328 51 q 466 72 440 51 q 492 125 492 93 q 462 180 492 158 q 376 218 432 201 z "},"₉":{"ha":764,"x_min":189,"x_max":576,"o":"m 213 74 q 279 63 249 67 q 342 60 310 60 q 413 73 386 60 q 457 108 440 86 q 480 158 474 129 q 489 217 486 186 q 428 196 461 204 q 357 188 396 188 q 232 223 275 188 q 189 328 189 258 q 201 394 189 364 q 238 447 213 425 q 299 483 263 469 q 382 496 335 496 q 526 444 476 496 q 576 281 576 393 q 567 170 576 222 q 532 78 558 118 q 458 15 506 39 q 335 -8 411 -8 q 267 -4 300 -8 q 203 7 235 0 l 213 74 m 275 335 q 299 273 275 294 q 375 251 322 251 q 489 279 431 251 l 489 299 q 460 399 489 369 q 378 429 432 429 q 301 403 328 429 q 275 335 275 378 z "},"⁰":{"ha":764,"x_min":157,"x_max":606,"o":"m 606 726 q 591 607 606 656 q 547 528 576 558 q 476 485 518 499 q 381 471 433 471 q 284 484 326 471 q 214 527 242 497 q 172 606 186 557 q 157 724 157 654 q 172 843 157 794 q 215 922 186 892 q 287 965 244 951 q 383 979 329 979 q 549 922 492 979 q 606 726 606 865 m 442 907 q 412 915 426 913 q 381 918 397 918 q 321 909 347 918 q 276 878 294 900 q 247 819 257 856 q 236 726 236 782 q 245 638 236 672 q 271 578 254 603 l 442 907 m 321 543 q 349 535 335 538 q 383 532 364 532 q 443 541 417 532 q 488 572 469 550 q 516 631 506 593 q 526 724 526 668 q 517 812 526 776 q 492 872 508 847 l 321 543 z "},"¹":{"ha":764,"x_min":176,"x_max":599,"o":"m 183 554 l 353 554 l 353 881 l 193 831 l 176 892 l 372 967 l 442 967 l 442 554 l 599 554 l 599 483 l 183 483 l 183 554 z "},"²":{"ha":764,"x_min":196,"x_max":568,"o":"m 196 546 l 338 667 q 426 750 396 714 q 457 826 457 786 q 429 885 457 867 q 349 903 401 903 q 290 899 319 903 q 225 886 260 896 l 217 956 q 294 971 257 967 q 372 975 332 975 q 507 942 458 975 q 556 846 556 908 q 517 738 556 783 q 415 643 479 693 l 310 557 l 568 557 l 568 483 l 196 483 l 196 546 z "},"³":{"ha":764,"x_min":199,"x_max":569,"o":"m 207 554 q 271 546 239 549 q 336 543 303 543 q 440 563 404 543 q 475 624 475 582 q 467 658 475 643 q 439 682 460 672 q 380 697 418 692 q 281 703 342 703 l 281 768 q 372 774 338 768 q 427 792 407 781 q 454 819 447 804 q 461 850 461 833 q 436 892 461 878 q 353 907 411 907 q 293 903 324 907 q 229 892 263 899 l 218 957 q 294 970 257 965 q 369 975 332 975 q 511 943 469 975 q 553 863 553 911 q 524 787 553 815 q 443 743 494 758 q 536 707 503 738 q 569 628 569 676 q 513 516 569 557 q 344 475 456 475 q 199 488 269 475 l 207 554 z "},"⁴":{"ha":764,"x_min":156,"x_max":610,"o":"m 156 654 l 401 967 l 515 967 l 515 657 l 610 657 l 610 583 l 515 583 l 515 483 l 429 483 l 429 583 l 156 583 l 156 654 m 429 657 l 429 890 l 243 657 l 429 657 z "},"⁵":{"ha":764,"x_min":199,"x_max":567,"o":"m 540 967 l 540 899 l 307 899 l 307 769 q 351 772 332 771 q 389 772 369 772 q 517 741 468 772 q 567 636 567 710 q 551 569 567 599 q 507 519 536 539 q 435 487 478 499 q 336 475 392 475 q 265 478 300 475 q 199 488 231 482 l 206 554 q 268 546 238 549 q 332 543 299 543 q 436 567 401 543 q 471 632 471 590 q 441 690 471 671 q 350 708 411 708 q 294 707 321 708 q 229 701 267 706 l 229 967 l 540 967 z "}}}
